<?xml version="1.0" encoding="UTF-8" ?>
<!DOCTYPE svg PUBLIC "-//W3C//DTD SVG 1.1//EN" "http://www.w3.org/Graphics/SVG/1.1/DTD/svg11.dtd">
<svg width="186pt" height="186pt" viewBox="0 0 186 186" version="1.1" xmlns="http://www.w3.org/2000/svg">
<g id="#000000ff">
<path fill="#000000" opacity="1.00" d=" M 16.97 3.20 C 26.10 0.80 35.69 0.51 45.07 1.20 C 50.38 1.79 56.06 2.37 60.50 5.62 C 66.72 9.91 70.58 17.43 70.44 24.99 C 70.49 38.33 70.62 51.68 70.35 65.01 C 70.32 68.60 66.36 71.54 62.93 70.17 C 60.53 69.65 59.12 67.34 58.86 65.03 C 58.07 59.61 59.09 54.12 58.65 48.68 C 50.58 51.50 45.77 60.80 48.10 69.05 C 49.48 75.97 55.96 81.27 62.90 81.85 C 69.18 82.47 75.67 79.40 79.15 74.13 C 81.66 70.26 81.70 65.46 81.76 61.01 C 81.76 50.01 81.77 39.01 81.73 28.01 C 81.84 26.70 81.44 24.64 83.27 24.40 C 92.29 24.06 101.95 24.15 109.99 28.84 C 116.53 32.44 121.19 38.40 126.48 43.51 C 143.06 59.90 159.48 76.47 175.93 93.01 C 180.24 97.13 182.93 102.73 184.18 108.51 C 186.20 118.55 184.77 129.90 177.76 137.78 C 170.65 145.65 162.88 152.91 155.55 160.57 C 147.59 168.65 139.67 177.15 129.58 182.61 C 116.88 188.16 100.74 184.94 91.34 174.67 C 71.51 154.85 51.23 135.45 32.06 114.98 C 28.57 110.34 25.51 104.94 24.98 99.05 C 24.94 74.36 24.95 49.66 24.93 24.96 C 36.24 24.92 47.55 25.08 58.86 24.93 C 58.75 20.04 55.80 14.52 50.66 13.54 C 44.16 12.49 37.55 13.04 31.01 13.13 C 26.48 13.30 21.58 13.08 17.54 15.49 C 14.92 17.02 13.60 20.00 13.22 22.90 C 12.39 29.24 13.32 35.64 12.86 41.99 C 12.26 44.12 11.23 46.55 8.98 47.36 C 5.49 48.43 1.24 45.75 1.36 41.94 C 1.46 33.08 -0.09 23.75 3.54 15.35 C 5.78 9.51 10.82 4.68 16.97 3.20 M 74.75 87.09 C 78.20 90.31 81.16 94.17 85.14 96.76 C 89.67 99.02 95.28 93.86 92.96 89.17 C 96.94 90.11 100.91 86.07 99.24 82.14 C 96.91 78.13 93.02 75.32 89.91 71.93 C 84.84 76.98 79.79 82.03 74.75 87.09 M 90.04 102.41 C 91.08 103.42 92.09 104.45 93.12 105.48 C 95.24 103.35 97.38 101.22 99.50 99.09 C 103.83 102.56 100.29 108.08 100.10 112.55 C 101.30 113.67 102.42 114.86 103.59 116.00 C 104.59 112.20 105.92 108.29 105.30 104.31 C 109.55 108.13 116.78 103.45 114.98 98.07 C 112.66 93.74 108.46 90.84 105.22 87.24 C 100.15 92.29 95.10 97.35 90.04 102.41 M 103.81 116.18 C 104.89 117.26 105.98 118.33 107.05 119.42 C 108.62 118.69 110.19 117.96 111.76 117.23 C 113.80 119.24 115.83 121.27 117.84 123.30 C 117.13 124.89 116.43 126.49 115.72 128.08 C 116.83 129.17 117.91 130.28 119.01 131.38 C 122.07 124.30 125.09 117.21 128.11 110.11 C 127.03 109.04 125.95 107.96 124.88 106.88 C 117.85 109.97 110.82 113.06 103.81 116.18 M 135.62 117.90 C 130.78 123.08 125.62 127.95 120.67 133.02 C 121.61 133.96 122.56 134.90 123.50 135.86 C 126.82 132.55 130.11 129.22 133.45 125.94 C 132.20 131.30 130.91 136.65 129.65 142.01 C 130.67 143.02 131.69 144.05 132.71 145.08 C 137.78 140.03 142.83 134.97 147.89 129.90 C 146.94 128.96 146.00 128.01 145.05 127.07 C 141.66 130.43 138.31 133.83 134.91 137.19 C 136.19 131.71 137.50 126.24 138.83 120.78 C 137.78 119.79 136.76 118.78 135.62 117.90 M 135.97 148.33 C 139.76 151.54 142.63 156.82 147.99 157.40 C 153.67 157.21 158.57 152.36 160.03 147.07 C 161.26 140.74 154.61 137.32 151.14 133.17 C 146.08 138.21 141.02 143.27 135.97 148.33 Z" />
<path fill="#000000" opacity="1.00" d=" M 86.98 81.01 C 88.14 79.86 89.28 78.68 90.44 77.53 C 92.15 79.29 94.15 80.84 95.39 83.00 C 95.76 84.74 93.88 86.36 92.21 85.79 C 90.19 84.53 88.67 82.66 86.98 81.01 Z" />
<path fill="#000000" opacity="1.00" d=" M 80.38 87.62 C 81.73 86.25 83.10 84.88 84.48 83.54 C 86.25 85.44 88.37 87.11 89.63 89.43 C 90.35 91.61 87.45 94.06 85.53 92.50 C 83.63 91.08 82.07 89.27 80.38 87.62 Z" />
<path fill="#000000" opacity="1.00" d=" M 101.90 96.83 C 103.10 95.44 104.42 94.16 105.73 92.88 C 107.43 94.67 109.44 96.23 110.75 98.35 C 111.44 100.23 109.22 102.40 107.36 101.68 C 105.28 100.38 103.69 98.47 101.90 96.83 Z" />
<path fill="#000000" opacity="1.00" d=" M 115.28 115.57 C 117.82 114.39 120.37 113.21 122.92 112.03 C 121.75 114.59 120.61 117.16 119.46 119.73 C 118.04 118.36 116.65 116.98 115.28 115.57 Z" />
<path fill="#000000" opacity="1.00" d=" M 141.60 148.85 C 144.95 145.48 148.29 142.10 151.69 138.79 C 153.64 140.99 157.28 143.40 155.69 146.81 C 154.04 149.76 151.40 152.61 148.01 153.43 C 145.18 153.26 143.56 150.54 141.60 148.85 Z" />
</g>
</svg>
