<?xml version="1.0" encoding="UTF-8" ?>
<!DOCTYPE svg PUBLIC "-//W3C//DTD SVG 1.1//EN" "http://www.w3.org/Graphics/SVG/1.1/DTD/svg11.dtd">
<svg width="142pt" height="142pt" viewBox="0 0 142 142" version="1.1" xmlns="http://www.w3.org/2000/svg">
<g id="#939598ff">
<path fill="#939598" opacity="1.00" d=" M 28.51 28.45 C 39.56 17.18 55.31 10.81 71.07 10.95 C 70.79 19.81 71.37 28.68 70.70 37.52 C 67.72 37.43 64.70 37.36 61.76 37.98 L 60.79 39.35 C 60.78 39.37 60.76 39.40 60.75 39.42 C 58.71 37.65 56.58 39.71 55.27 41.30 C 53.65 43.60 53.55 46.54 52.97 49.21 C 49.47 49.37 45.95 49.17 42.49 49.74 C 37.48 50.03 32.76 53.22 31.00 57.96 C 29.52 62.47 29.59 67.28 29.61 71.97 C 29.79 79.67 29.16 87.41 30.41 95.05 C 30.86 100.60 36.00 105.02 41.42 105.42 C 51.20 105.85 61.01 105.06 70.78 105.78 C 71.17 114.20 70.92 122.63 71.04 131.05 C 55.26 131.18 39.50 124.79 28.46 113.50 C 17.21 102.46 10.81 86.73 10.97 70.99 C 10.81 55.23 17.23 39.48 28.51 28.45 Z" />
<path fill="#939598" opacity="1.00" d=" M 60.49 46.74 C 60.88 45.91 61.23 45.07 61.55 44.21 L 61.09 45.61 C 64.48 45.55 67.87 45.39 71.25 45.71 C 70.85 46.90 70.44 48.09 70.04 49.28 C 66.26 49.25 61.72 50.48 58.89 47.22 C 59.29 47.10 60.09 46.86 60.49 46.74 Z" />
</g>
<g id="#7f7f7fff">
<path fill="#7f7f7f" opacity="1.00" d=" M 71.07 10.95 C 86.81 10.82 102.52 17.23 113.54 28.49 C 124.55 39.29 130.94 54.58 131.03 69.99 C 131.36 83.42 127.02 96.99 118.74 107.60 C 107.66 122.31 89.46 131.28 71.04 131.05 C 70.92 122.63 71.17 114.20 70.78 105.78 C 78.15 106.75 85.61 106.28 93.02 106.32 C 98.02 106.19 104.30 105.01 106.21 99.65 C 109.45 94.33 108.54 87.95 108.63 82.03 C 108.45 74.60 108.97 67.15 108.39 59.74 C 108.08 55.00 104.31 51.44 99.88 50.31 C 95.30 48.53 89.95 50.45 85.74 47.46 C 85.85 44.22 84.85 39.78 81.02 39.23 C 74.30 38.91 67.51 38.79 60.79 39.35 L 61.76 37.98 C 64.70 37.36 67.72 37.43 70.70 37.52 C 71.37 28.68 70.79 19.81 71.07 10.95 Z" />
<path fill="#7f7f7f" opacity="1.00" d=" M 55.27 41.30 C 56.58 39.71 58.71 37.65 60.75 39.42 C 58.49 41.26 57.41 43.91 56.92 46.71 C 57.41 46.84 58.39 47.09 58.89 47.22 C 61.72 50.48 66.26 49.25 70.04 49.28 C 70.44 48.09 70.85 46.90 71.25 45.71 C 73.30 46.01 75.33 46.43 77.37 46.80 C 77.35 47.98 77.33 49.16 77.29 50.35 C 65.30 50.88 53.28 50.89 41.29 50.57 L 42.49 49.74 C 45.95 49.17 49.47 49.37 52.97 49.21 C 53.55 46.54 53.65 43.60 55.27 41.30 Z" />
</g>
<g id="#f8f8f9ff">
<path fill="#f8f8f9" opacity="1.00" d=" M 60.79 39.35 C 67.51 38.79 74.30 38.91 81.02 39.23 C 84.85 39.78 85.85 44.22 85.74 47.46 C 84.38 47.20 83.01 47.05 81.64 46.88 C 81.23 45.43 81.15 42.79 79.01 43.00 C 73.31 42.87 67.61 43.01 61.92 43.06 L 61.55 44.21 C 61.23 45.07 60.88 45.91 60.49 46.74 C 60.09 46.86 59.29 47.10 58.89 47.22 C 58.39 47.09 57.41 46.84 56.92 46.71 C 57.41 43.91 58.49 41.26 60.75 39.42 C 60.76 39.40 60.78 39.37 60.79 39.35 Z" />
<path fill="#f8f8f9" opacity="1.00" d=" M 41.29 50.57 C 53.28 50.89 65.30 50.88 77.29 50.35 C 84.82 50.31 92.35 50.30 99.88 50.31 C 104.31 51.44 108.08 55.00 108.39 59.74 C 108.97 67.15 108.45 74.60 108.63 82.03 C 108.54 87.95 109.45 94.33 106.21 99.65 C 103.91 101.56 101.15 103.21 98.03 102.95 C 80.32 102.92 62.61 103.08 44.91 102.95 C 39.72 103.18 34.32 99.46 33.98 94.02 C 33.41 84.70 33.93 75.33 33.72 65.98 C 33.82 62.19 33.36 57.90 35.76 54.68 C 37.03 52.65 39.33 51.75 41.29 50.57 M 42.77 57.00 C 42.77 69.67 42.77 82.33 42.77 95.00 C 43.58 95.00 45.19 95.00 46.00 95.00 C 46.00 82.33 46.00 69.67 46.00 57.00 C 45.19 57.00 43.58 57.00 42.77 57.00 M 95.99 56.99 C 95.99 69.66 95.98 82.34 95.99 95.01 C 96.74 95.01 98.26 95.01 99.01 95.01 C 99.02 82.34 99.01 69.66 99.01 56.99 C 98.26 56.99 96.74 56.99 95.99 56.99 M 68.46 61.64 C 61.22 62.74 55.39 69.66 55.73 77.01 C 55.69 83.97 61.10 90.27 67.84 91.68 C 76.72 93.78 86.45 86.17 86.16 76.95 C 86.70 67.72 77.44 60.05 68.46 61.64 Z" />
</g>
<g id="#5e5e5ff2">
<path fill="#5e5e5f" opacity="0.95" d=" M 61.92 43.06 C 67.61 43.01 73.31 42.87 79.01 43.00 C 81.15 42.79 81.23 45.43 81.64 46.88 C 83.01 47.05 84.38 47.20 85.74 47.46 C 89.95 50.45 95.30 48.53 99.88 50.31 C 92.35 50.30 84.82 50.31 77.29 50.35 C 77.33 49.16 77.35 47.98 77.37 46.80 C 75.33 46.43 73.30 46.01 71.25 45.71 C 67.87 45.39 64.48 45.55 61.09 45.61 L 61.55 44.21 L 61.92 43.06 Z" />
<path fill="#5e5e5f" opacity="0.95" d=" M 31.00 57.96 C 32.76 53.22 37.48 50.03 42.49 49.74 L 41.29 50.57 C 39.33 51.75 37.03 52.65 35.76 54.68 C 33.36 57.90 33.82 62.19 33.72 65.98 C 33.93 75.33 33.41 84.70 33.98 94.02 C 34.32 99.46 39.72 103.18 44.91 102.95 C 62.61 103.08 80.32 102.92 98.03 102.95 C 101.15 103.21 103.91 101.56 106.21 99.65 C 104.30 105.01 98.02 106.19 93.02 106.32 C 85.61 106.28 78.15 106.75 70.78 105.78 C 61.01 105.06 51.20 105.85 41.42 105.42 C 36.00 105.02 30.86 100.60 30.41 95.05 C 29.16 87.41 29.79 79.67 29.61 71.97 C 29.59 67.28 29.52 62.47 31.00 57.96 Z" />
</g>
<g id="#221e1fff">
<path fill="#221e1f" opacity="1.00" d=" M 42.77 57.00 C 43.58 57.00 45.19 57.00 46.00 57.00 C 46.00 69.67 46.00 82.33 46.00 95.00 C 45.19 95.00 43.58 95.00 42.77 95.00 C 42.77 82.33 42.77 69.67 42.77 57.00 Z" />
<path fill="#221e1f" opacity="1.00" d=" M 95.99 56.99 C 96.74 56.99 98.26 56.99 99.01 56.99 C 99.01 69.66 99.02 82.34 99.01 95.01 C 98.26 95.01 96.74 95.01 95.99 95.01 C 95.98 82.34 95.99 69.66 95.99 56.99 Z" />
<path fill="#221e1f" opacity="1.00" d=" M 68.46 61.64 C 77.44 60.05 86.70 67.72 86.16 76.95 C 86.45 86.17 76.72 93.78 67.84 91.68 C 61.10 90.27 55.69 83.97 55.73 77.01 C 55.39 69.66 61.22 62.74 68.46 61.64 M 67.02 66.01 C 67.02 68.26 66.98 70.51 66.98 72.76 C 64.65 72.75 62.33 72.77 60.00 72.76 C 59.99 75.44 60.00 78.13 60.05 80.82 C 62.32 80.95 64.59 80.88 66.86 81.05 C 66.97 83.26 67.00 85.46 67.10 87.67 C 69.69 87.66 72.27 87.57 74.85 87.44 C 74.98 85.26 74.94 83.07 75.05 80.88 C 77.28 80.86 79.51 80.79 81.74 80.74 C 81.84 78.10 82.08 75.44 81.52 72.83 C 79.32 72.97 77.11 73.01 74.90 73.04 C 74.97 70.71 74.98 68.38 74.96 66.05 C 72.31 66.01 69.67 66.00 67.02 66.01 Z" />
</g>
<g id="#f96f6fff">
<path fill="#f96f6f" opacity="1.00" d=" M 67.02 66.01 C 69.67 66.00 72.31 66.01 74.96 66.05 C 74.98 68.38 74.97 70.71 74.90 73.04 C 74.78 70.80 74.70 68.56 74.61 66.31 C 73.75 66.30 72.03 66.28 71.17 66.27 C 71.09 73.18 71.12 80.09 71.15 87.00 C 72.03 87.00 73.78 87.00 74.65 86.99 C 74.72 84.80 74.77 82.60 74.84 80.40 C 76.97 80.33 79.10 80.28 81.23 80.21 C 81.25 77.75 81.32 75.29 81.52 72.83 C 82.08 75.44 81.84 78.10 81.74 80.74 C 79.51 80.79 77.28 80.86 75.05 80.88 C 74.94 83.07 74.98 85.26 74.85 87.44 C 72.27 87.57 69.69 87.66 67.10 87.67 C 67.00 85.46 66.97 83.26 66.86 81.05 C 64.59 80.88 62.32 80.95 60.05 80.82 C 60.00 78.13 59.99 75.44 60.00 72.76 C 62.33 72.77 64.65 72.75 66.98 72.76 C 66.98 70.51 67.02 68.26 67.02 66.01 Z" />
</g>
<g id="#ff0000ff">
<path fill="#ff0000" opacity="1.00" d=" M 71.17 66.27 C 72.03 66.28 73.75 66.30 74.61 66.31 C 74.70 68.56 74.78 70.80 74.90 73.04 C 77.11 73.01 79.32 72.97 81.52 72.83 C 81.32 75.29 81.25 77.75 81.23 80.21 C 79.10 80.28 76.97 80.33 74.84 80.40 C 74.77 82.60 74.72 84.80 74.65 86.99 C 73.78 87.00 72.03 87.00 71.15 87.00 C 71.12 80.09 71.09 73.18 71.17 66.27 Z" />
</g>
</svg>
