<?xml version="1.0" encoding="UTF-8"?>
<!DOCTYPE svg PUBLIC "-//W3C//DTD SVG 1.1//EN" "http://www.w3.org/Graphics/SVG/1.1/DTD/svg11.dtd">
<!-- Creator: CorelDRAW 2017 -->
<svg xmlns="http://www.w3.org/2000/svg" xml:space="preserve" width="336px" height="336px" version="1.1" style="shape-rendering:geometricPrecision; text-rendering:geometricPrecision; image-rendering:optimizeQuality; fill-rule:evenodd; clip-rule:evenodd"
viewBox="0 0 8.14 8.14"
 xmlns:xlink="http://www.w3.org/1999/xlink">
 <defs>
  <style type="text/css">
   <![CDATA[
    .str2 {stroke:#4D4D4D;stroke-width:0.07;stroke-miterlimit:10}
    .str1 {stroke:#4D4D4D;stroke-width:0.36;stroke-miterlimit:2.61313}
    .str0 {stroke:#666666;stroke-width:0.22;stroke-miterlimit:2.61313}
    .fil1 {fill:none}
    .fil3 {fill:#4D4D4D;fill-rule:nonzero}
    .fil0 {fill:url(#id0)}
    .fil2 {fill:url(#id1);fill-rule:nonzero}
   ]]>
  </style>
  <linearGradient id="id0" gradientUnits="userSpaceOnUse" x1="4.07" y1="0.11" x2="4.07" y2="7.91">
   <stop offset="0" style="stop-opacity:1; stop-color:#CCCACB"/>
   <stop offset="1" style="stop-opacity:1; stop-color:white"/>
  </linearGradient>
  <linearGradient id="id1" gradientUnits="userSpaceOnUse" x1="4.17" y1="7.91" x2="3.96" y2="0.22">
   <stop offset="0" style="stop-opacity:1; stop-color:#A2A1A6"/>
   <stop offset="1" style="stop-opacity:1; stop-color:white"/>
  </linearGradient>
 </defs>
 <g id="Layer_x0020_1">
  <metadata id="CorelCorpID_0Corel-Layer"/>
  <g id="_952704128">
   <circle class="fil0" cx="4.07" cy="4.01" r="3.9"/>
   <circle class="fil1 str0" cx="4.07" cy="4.07" r="3.96"/>
   <path class="fil2" d="M4.07 0.22c1.06,0 2.02,0.43 2.72,1.13 0.69,0.7 1.12,1.66 1.12,2.72 0,1.06 -0.43,2.02 -1.12,2.72 -0.7,0.69 -1.66,1.12 -2.72,1.12 -1.06,0 -2.02,-0.43 -2.72,-1.12 -0.7,-0.7 -1.13,-1.66 -1.13,-2.72 0,-1.06 0.43,-2.02 1.13,-2.72 0.7,-0.7 1.66,-1.13 2.72,-1.13zm2.54 1.3c-0.65,-0.65 -1.55,-1.05 -2.54,-1.05 -1,0 -1.89,0.4 -2.55,1.05 -0.65,0.66 -1.05,1.55 -1.05,2.55 0,0.99 0.4,1.89 1.05,2.54 0.65,0.65 1.55,1.06 2.55,1.06 0.99,0 1.89,-0.41 2.54,-1.06 0.65,-0.65 1.06,-1.55 1.06,-2.54 0,-1 -0.41,-1.89 -1.06,-2.55z"/>
   <polygon class="fil1 str1" points="4.07,1.51 5.15,3.38 6.23,5.25 4.07,5.25 1.91,5.25 2.99,3.38 "/>
   <path class="fil3" d="M4.09 4.93l-0.04 0c-0.2,0 -0.35,-0.16 -0.35,-0.35l0 -0.98 0.74 0 0 0.98c0,0.19 -0.16,0.35 -0.35,0.35zm-0.05 -0.14c-0.19,-0.01 -0.23,-0.22 -0.21,-0.4l0 -0.58c0,-0.02 -0.02,-0.03 -0.04,-0.03 -0.02,0 -0.04,0.01 -0.04,0.03l0 0.58c0.01,0.09 -0.01,0.19 0.03,0.29 0.04,0.1 0.15,0.18 0.25,0.18 0.02,0.01 0.04,-0.01 0.04,-0.03 0,-0.02 -0.01,-0.04 -0.03,-0.04z"/>
   <path class="fil3 str2" d="M4.37 3.44l0 -0.72c0,-0.16 -0.13,-0.29 -0.29,-0.29l-0.03 0c-0.16,0 -0.29,0.13 -0.29,0.29l0 0.72 0.61 0 0 0zm0.04 0.04l-0.68 0 0 -0.76c0,-0.18 0.14,-0.33 0.32,-0.33l0.03 0c0.18,0 0.33,0.15 0.33,0.33l0 0.76z"/>
  </g>
 </g>
</svg>
