<?xml version="1.0" encoding="UTF-8"?>
<!DOCTYPE svg PUBLIC "-//W3C//DTD SVG 1.1//EN" "http://www.w3.org/Graphics/SVG/1.1/DTD/svg11.dtd">
<!-- Creator: CorelDRAW 2017 -->
<svg xmlns="http://www.w3.org/2000/svg" xml:space="preserve" width="161px" height="208px" version="1.1" style="shape-rendering:geometricPrecision; text-rendering:geometricPrecision; image-rendering:optimizeQuality; fill-rule:evenodd; clip-rule:evenodd"
viewBox="0 0 2.46 3.18"
 xmlns:xlink="http://www.w3.org/1999/xlink">
 <defs>
  <style type="text/css">
   <![CDATA[
    .str0 {stroke:black;stroke-width:0.05;stroke-miterlimit:10}
    .fil0 {fill:black}
    .fil1 {fill:white}
    .fil2 {fill:black;fill-rule:nonzero}
    .fil3 {fill:#4D4D4D;fill-rule:nonzero}
   ]]>
  </style>
 </defs>
 <g id="Layer_x0020_1">
  <metadata id="CorelCorpID_0Corel-Layer"/>
  <g id="_831748352">
   <path class="fil0" d="M2.35 0l-0.24 0.24c-0.52,-0.33 -1.09,-0.19 -1.54,0.24l0.05 0.05c0.7,-0.39 1.52,0.32 1.84,0.67l-0.11 -1.2z"/>
   <path class="fil0" d="M0 1.98l0.11 1.2 0.24 -0.24c0.52,0.33 1.09,0.19 1.53,-0.24l-0.04 -0.05c-0.7,0.38 -1.52,-0.32 -1.84,-0.67z"/>
   <rect class="fil1" transform="matrix(-8.01672E-15 0.302694 0.36541 9.67771E-15 0.728067 0.511885)" width="6.61" height="1.82"/>
   <path class="fil2" d="M1.08 0.57l-0.03 0c-0.15,0 -0.26,0.12 -0.26,0.26l0 0.72 0.55 0 0 -0.72c0,-0.14 -0.12,-0.26 -0.26,-0.26zm-0.04 0.1c-0.14,0.01 -0.17,0.16 -0.16,0.3l0 0.43c0,0.01 -0.01,0.02 -0.03,0.02 -0.01,0 -0.02,-0.01 -0.02,-0.02l0 -0.43c0,-0.07 -0.01,-0.14 0.02,-0.22 0.03,-0.07 0.11,-0.13 0.19,-0.13 0.01,0 0.02,0.01 0.02,0.02 0,0.02 -0.01,0.03 -0.02,0.03z"/>
   <path class="fil3 str0" d="M1.29 1.67l0 0.54c0,0.12 -0.1,0.22 -0.22,0.22l-0.02 0c-0.12,0 -0.22,-0.1 -0.22,-0.22l0 -0.54 0.46 0 0 0zm0.02 -0.02l-0.5 0 0 0.56c0,0.14 0.11,0.24 0.24,0.24l0.02 0c0.14,0 0.24,-0.1 0.24,-0.24l0 -0.56z"/>
   <path class="fil2" d="M1.39 2.19l0.68 -0.71c-0.2,-0.15 -0.47,-0.18 -0.68,-0.07l0 0.78zm0.76 -0.63l-0.76 0.8c0,0.06 -0.02,0.1 -0.05,0.14 0.25,0.17 0.57,0.14 0.79,-0.08 0.22,-0.24 0.23,-0.61 0.02,-0.86z"/>
  </g>
 </g>
</svg>
