<?xml version="1.0" encoding="UTF-8" ?><!DOCTYPE svg PUBLIC "-//W3C//DTD SVG 1.1//EN"
    "http://www.w3.org/Graphics/SVG/1.1/DTD/svg11.dtd">
<svg height="142pt" version="1.1" viewBox="0 0 142 142" width="142pt"
    xmlns="http://www.w3.org/2000/svg">
    <g id="#898a8cff">
        <path d=" M 60.60 11.81 C 73.61 9.68 87.37 11.58 99.02 17.86 C 115.10 26.10 126.79 42.12 130.04 59.86 C 132.31 72.86 130.64 86.67 124.46 98.41 C 116.43 114.52 100.64 126.38 83.01 129.86 C 69.74 132.46 55.56 130.77 43.54 124.46 C 29.02 117.19 17.92 103.64 13.37 88.08 C 8.92 72.91 10.59 55.98 18.28 42.13 C 26.76 26.24 42.88 14.83 60.60 11.81 M 55.90 36.92 C 44.50 44.30 39.62 57.79 36.49 70.38 C 33.39 70.50 30.30 70.74 27.21 71.03 C 26.73 71.54 25.77 72.56 25.29 73.07 C 31.63 81.89 38.75 90.13 45.65 98.51 C 46.78 100.33 49.24 99.73 50.94 99.21 C 55.91 91.34 60.57 83.28 65.59 75.44 C 66.84 73.34 68.68 70.78 67.06 68.35 C 63.38 68.57 59.69 68.82 56.00 68.83 C 55.13 62.25 55.72 55.48 57.66 49.13 C 60.09 42.44 65.09 37.03 70.84 32.97 C 65.67 33.32 60.22 33.72 55.90 36.92 M 89.47 39.49 C 84.91 46.66 80.66 54.04 76.08 61.21 C 74.51 63.76 72.32 66.61 73.69 69.76 C 77.40 69.59 81.10 69.43 84.81 69.26 C 86.06 78.66 84.74 89.07 78.77 96.76 C 76.45 100.05 73.18 102.47 70.09 104.96 C 75.29 104.84 80.78 104.50 85.14 101.30 C 96.34 93.91 101.45 80.77 104.53 68.27 C 108.02 66.48 113.40 69.00 116.00 65.01 C 109.30 55.78 101.86 47.11 94.60 38.33 C 92.89 38.48 90.44 37.56 89.47 39.49 Z" fill="#898a8c"
            opacity="1.00" />
    </g>
    <g id="#ff0000ff">
        <path d=" M 55.90 36.92 C 60.22 33.72 65.67 33.32 70.84 32.97 C 65.09 37.03 60.09 42.44 57.66 49.13 C 55.72 55.48 55.13 62.25 56.00 68.83 C 59.69 68.82 63.38 68.57 67.06 68.35 C 68.68 70.78 66.84 73.34 65.59 75.44 C 60.57 83.28 55.91 91.34 50.94 99.21 C 49.24 99.73 46.78 100.33 45.65 98.51 C 38.75 90.13 31.63 81.89 25.29 73.07 C 25.77 72.56 26.73 71.54 27.21 71.03 C 30.30 70.74 33.39 70.50 36.49 70.38 C 39.62 57.79 44.50 44.30 55.90 36.92 Z" fill="#ff0000"
            opacity="1.00" />
    </g>
    <g id="#4c7effff">
        <path d=" M 89.47 39.49 C 90.44 37.56 92.89 38.48 94.60 38.33 C 101.86 47.11 109.30 55.78 116.00 65.01 C 113.40 69.00 108.02 66.48 104.53 68.27 C 101.45 80.77 96.34 93.91 85.14 101.30 C 80.78 104.50 75.29 104.84 70.09 104.96 C 73.18 102.47 76.45 100.05 78.77 96.76 C 84.74 89.07 86.06 78.66 84.81 69.26 C 81.10 69.43 77.40 69.59 73.69 69.76 C 72.32 66.61 74.51 63.76 76.08 61.21 C 80.66 54.04 84.91 46.66 89.47 39.49 Z" fill="#4c7eff"
            opacity="1.00" />
    </g>
</svg>
