<?xml version="1.0" encoding="UTF-8"?>
<!DOCTYPE svg PUBLIC "-//W3C//DTD SVG 1.1//EN" "http://www.w3.org/Graphics/SVG/1.1/DTD/svg11.dtd">
<!-- Creator: CorelDRAW 2017 -->
<svg xmlns="http://www.w3.org/2000/svg" xml:space="preserve" width="336px" height="337px" version="1.1" style="shape-rendering:geometricPrecision; text-rendering:geometricPrecision; image-rendering:optimizeQuality; fill-rule:evenodd; clip-rule:evenodd"
viewBox="0 0 10.59 10.61"
 xmlns:xlink="http://www.w3.org/1999/xlink">
 <defs>
  <style type="text/css">
   <![CDATA[
    .str1 {stroke:#4D4D4D;stroke-width:0.11;stroke-miterlimit:10}
    .str0 {stroke:#666666;stroke-width:0.29;stroke-miterlimit:2.61313}
    .fil1 {fill:none}
    .fil3 {fill:#4D4D4D}
    .fil4 {fill:#E6E6E6}
    .fil5 {fill:#4D4D4D;fill-rule:nonzero}
    .fil0 {fill:url(#id0)}
    .fil2 {fill:url(#id1);fill-rule:nonzero}
   ]]>
  </style>
  <linearGradient id="id0" gradientUnits="userSpaceOnUse" x1="5.3" y1="0" x2="5.3" y2="10.46">
   <stop offset="0" style="stop-opacity:1; stop-color:#CCCACB"/>
   <stop offset="1" style="stop-opacity:1; stop-color:white"/>
  </linearGradient>
  <linearGradient id="id1" gradientUnits="userSpaceOnUse" x1="5.43" y1="10.31" x2="5.16" y2="0.31">
   <stop offset="0" style="stop-opacity:1; stop-color:#A2A1A6"/>
   <stop offset="1" style="stop-opacity:1; stop-color:white"/>
  </linearGradient>
 </defs>
 <g id="Layer_x0020_1">
  <metadata id="CorelCorpID_0Corel-Layer"/>
  <g id="_952727456">
   <circle class="fil0" cx="5.3" cy="5.23" r="5.23"/>
   <circle class="fil1 str0" cx="5.3" cy="5.31" r="5.15"/>
   <path class="fil2" d="M5.3 0.3c1.38,0 2.63,0.56 3.54,1.47 0.9,0.91 1.46,2.16 1.46,3.54 0,1.38 -0.56,2.63 -1.46,3.54 -0.91,0.91 -2.16,1.47 -3.54,1.47 -1.39,0 -2.64,-0.56 -3.54,-1.47 -0.91,-0.91 -1.47,-2.16 -1.47,-3.54 0,-1.38 0.56,-2.63 1.47,-3.54 0.9,-0.91 2.15,-1.47 3.54,-1.47zm3.31 1.7c-0.85,-0.85 -2.02,-1.37 -3.31,-1.37 -1.3,0 -2.47,0.52 -3.32,1.37 -0.84,0.85 -1.37,2.02 -1.37,3.31 0,1.29 0.53,2.46 1.37,3.31 0.85,0.85 2.02,1.37 3.32,1.37 1.29,0 2.46,-0.52 3.31,-1.37 0.85,-0.85 1.37,-2.02 1.37,-3.31 0,-1.29 -0.52,-2.46 -1.37,-3.31z"/>
   <path class="fil3" d="M7.61 2.03l-0.49 0.5c-1.08,-0.69 -2.25,-0.41 -3.17,0.48l0.09 0.11c1.44,-0.79 3.14,0.65 3.79,1.39l-0.22 -2.48z"/>
   <path class="fil3" d="M2.76 6.11l0.23 2.48 0.49 -0.5c1.08,0.69 2.25,0.41 3.17,-0.48l-0.1 -0.11c-1.43,0.79 -3.14,-0.65 -3.79,-1.39z"/>
   <rect class="fil4" transform="matrix(-8.01672E-15 0.302694 0.36541 9.67771E-15 4.26398 3.08524)" width="13.65" height="3.76"/>
   <path class="fil5" d="M4.98 3.2l-0.06 0c-0.3,0 -0.54,0.25 -0.54,0.54l0 1.5 1.14 0 0 -1.5c0,-0.29 -0.24,-0.54 -0.54,-0.54zm-0.07 0.21c-0.3,0.01 -0.36,0.34 -0.33,0.63l0 0.88c0,0.03 -0.03,0.05 -0.06,0.05 -0.03,0 -0.05,-0.02 -0.05,-0.05l0 -0.88c0,-0.15 -0.02,-0.3 0.04,-0.46 0.06,-0.16 0.23,-0.28 0.39,-0.28 0.03,0 0.05,0.02 0.05,0.05 0,0.04 -0.02,0.06 -0.04,0.06z"/>
   <path class="fil5 str1" d="M5.42 5.49l0 1.11c0,0.24 -0.2,0.44 -0.45,0.44l-0.04 0c-0.25,0 -0.45,-0.2 -0.45,-0.44l0 -1.11 0.94 0 0 0zm0.06 -0.06l-1.05 0 0 1.17c0,0.27 0.22,0.5 0.5,0.5l0.04 0c0.28,0 0.51,-0.23 0.51,-0.5l0 -1.17z"/>
   <path class="fil5" d="M5.63 6.55l1.4 -1.46c-0.41,-0.32 -0.96,-0.37 -1.4,-0.14l0 1.6zm1.57 -1.29l-1.57 1.65c0,0.11 -0.04,0.2 -0.11,0.28 0.52,0.36 1.18,0.3 1.63,-0.17 0.47,-0.49 0.48,-1.26 0.05,-1.76z"/>
  </g>
 </g>
</svg>
