<?xml version="1.0" encoding="UTF-8"?>
<!DOCTYPE svg PUBLIC "-//W3C//DTD SVG 1.1//EN" "http://www.w3.org/Graphics/SVG/1.1/DTD/svg11.dtd">
<!-- Creator: CorelDRAW 2017 -->
<svg xmlns="http://www.w3.org/2000/svg" xml:space="preserve" width="163px" height="227px" version="1.1" style="shape-rendering:geometricPrecision; text-rendering:geometricPrecision; image-rendering:optimizeQuality; fill-rule:evenodd; clip-rule:evenodd"
viewBox="0 0 4.27 5.94"
 xmlns:xlink="http://www.w3.org/1999/xlink">
 <defs>
  <style type="text/css">
   <![CDATA[
    .str1 {stroke:black;stroke-width:0.16;stroke-miterlimit:10}
    .str2 {stroke:black;stroke-width:0.15;stroke-miterlimit:10}
    .str0 {stroke:black;stroke-width:0.01;stroke-miterlimit:2.61313}
    .fil1 {fill:none;fill-rule:nonzero}
    .fil0 {fill:#4D4D4D;fill-rule:nonzero}
   ]]>
  </style>
 </defs>
 <g id="Layer_x0020_1">
  <metadata id="CorelCorpID_0Corel-Layer"/>
  <g id="_1010725568">
   <polygon class="fil0 str0" points="2.03,1.13 2.24,1.13 2.24,0.93 2.43,0.93 2.43,0.72 2.24,0.72 2.24,0.53 2.03,0.53 2.03,0.72 1.83,0.72 1.83,0.93 2.03,0.93 "/>
   <path class="fil1 str1" d="M2.64 4.36l-0.51 0.83 -0.52 -0.83c-1.07,0.13 -1.61,0.09 -1.52,1.5 1.36,0 2.73,0 4.09,0 0.08,-1.4 -0.45,-1.37 -1.54,-1.5z"/>
   <path class="fil1 str2" d="M1.22 2.53c0.08,0 0.16,0.01 0.24,0.01l0.05 -0.13 0.01 -0.01 0.04 -0.12 0 0 0.05 -0.13 0.02 0.12 0.01 0.13 0.02 0.13c0.19,-0.01 0.38,-0.03 0.56,-0.07 0.28,-0.05 0.53,-0.14 0.75,-0.26 0.03,0.23 0.05,0.45 0.02,0.69 -0.04,0.32 -0.14,0.57 -0.29,0.75l-0.01 0.01 0 0 0 0 0 0 0 0.01 0 0 0 0 -0.01 0 0 0 0 0 0 0.01 0 0 0 0 0 0 -0.01 0 0 0 0 0.01 0 0 0 0 0 0 0 0 -0.01 0 0 0.01 0 0 0 0 0 0 0 0 0 0 -0.01 0.01 0 0 0 0 0 0 0 0 0 0 0 0 -0.01 0.01 0 0 0 0 0 0 0 0 0 0 0 0 0 0.01 -0.01 0 0 0 0 0 0 0 0 0 -0.01 0.01 0 0 0 0 0 0 0 0 0 0 0 0.01 -0.01 0 0 0 0 0 0 0c-0.34,0.34 -0.61,0.32 -0.96,0l0 0 0 0 -0.01 -0.01 0 0 0 0 0 0 -0.01 -0.01 0 0 0 0 -0.01 0 0 -0.01 0 0 0 0 -0.01 -0.01 0 0 0 0 -0.01 -0.01 0 0 0 0 -0.01 0 0 -0.01 0 0 0 0 -0.01 -0.01 0 0 0 0 -0.01 -0.01 0 0 0 0 0 -0.01 -0.01 0 0 -0.01 0 0 -0.01 0 0 -0.01 0 0 0 0 -0.01 -0.01 0 0 0 0 -0.01 0 0 -0.01 0 0 0 0 -0.01 -0.01 0 0 0 -0.01 -0.01 0 0 0 -0.01 -0.01 0 -0.01 0 0 0 0c-0.01,-0.01 -0.01,-0.01 -0.02,-0.02l0 0c0,-0.01 -0.01,-0.02 -0.02,-0.03l0 0 0 -0.01 0 0 -0.01 0 0 -0.01 0 0 0 -0.01 -0.01 -0.01 0 0 -0.01 -0.01c-0.14,-0.24 -0.22,-0.55 -0.21,-0.94zm1.81 -2.17l-0.08 1.03c-0.27,-0.07 -0.55,-0.1 -0.82,-0.1 -0.28,0 -0.55,0.04 -0.82,0.11l-0.1 -1.04 1.82 0zm-0.13 3.44c0.02,-0.02 0.03,-0.04 0.04,-0.06l0.73 0c-0.04,-0.71 0.03,-1.82 -0.43,-2.37l0.1 -1.29 -2.44 0 0.13 1.33c-0.42,0.52 -0.38,1.65 -0.43,2.33l0.71 0c0.47,0.63 1.08,0.71 1.59,0.06z"/>
  </g>
 </g>
</svg>
