<?xml version="1.0" encoding="UTF-8"?>
<!DOCTYPE svg PUBLIC "-//W3C//DTD SVG 1.1//EN" "http://www.w3.org/Graphics/SVG/1.1/DTD/svg11.dtd">
<!-- Creator: CorelDRAW 2017 -->
<svg xmlns="http://www.w3.org/2000/svg" xml:space="preserve" width="336px" height="336px" version="1.1" style="shape-rendering:geometricPrecision; text-rendering:geometricPrecision; image-rendering:optimizeQuality; fill-rule:evenodd; clip-rule:evenodd"
viewBox="0 0 15.69 15.69"
 xmlns:xlink="http://www.w3.org/1999/xlink">
 <defs>
  <style type="text/css">
   <![CDATA[
    .str2 {stroke:#4D4D4D;stroke-width:0.28;stroke-miterlimit:10}
    .str3 {stroke:#4D4D4D;stroke-width:0.27;stroke-miterlimit:10}
    .str1 {stroke:#4D4D4D;stroke-width:0.01;stroke-miterlimit:2.61313}
    .str0 {stroke:#666666;stroke-width:0.42;stroke-miterlimit:2.61313}
    .fil1 {fill:none}
    .fil4 {fill:none;fill-rule:nonzero}
    .fil3 {fill:#4D4D4D;fill-rule:nonzero}
    .fil0 {fill:url(#id0)}
    .fil2 {fill:url(#id1);fill-rule:nonzero}
   ]]>
  </style>
  <linearGradient id="id0" gradientUnits="userSpaceOnUse" x1="7.85" y1="0.15" x2="7.85" y2="15.31">
   <stop offset="0" style="stop-opacity:1; stop-color:#CCCACB"/>
   <stop offset="1" style="stop-opacity:1; stop-color:white"/>
  </linearGradient>
  <linearGradient id="id1" gradientUnits="userSpaceOnUse" x1="8.05" y1="15.26" x2="7.65" y2="0.43">
   <stop offset="0" style="stop-opacity:1; stop-color:#A2A1A6"/>
   <stop offset="1" style="stop-opacity:1; stop-color:white"/>
  </linearGradient>
 </defs>
 <g id="Layer_x0020_1">
  <metadata id="CorelCorpID_0Corel-Layer"/>
  <g id="_889001280">
   <circle class="fil0" cx="7.85" cy="7.73" r="7.58"/>
   <circle class="fil1 str0" cx="7.85" cy="7.85" r="7.63"/>
   <path class="fil2" d="M7.85 0.43c2.04,0 3.9,0.83 5.24,2.17 1.34,1.34 2.17,3.2 2.17,5.25 0,2.04 -0.83,3.9 -2.17,5.24 -1.34,1.34 -3.2,2.17 -5.24,2.17 -2.05,0 -3.91,-0.83 -5.25,-2.17 -1.34,-1.34 -2.17,-3.2 -2.17,-5.24 0,-2.05 0.83,-3.91 2.17,-5.25 1.34,-1.34 3.2,-2.17 5.25,-2.17zm4.9 2.51c-1.25,-1.26 -2.99,-2.03 -4.9,-2.03 -1.92,0 -3.66,0.77 -4.91,2.03 -1.26,1.25 -2.03,2.99 -2.03,4.91 0,1.91 0.77,3.65 2.03,4.9 1.25,1.26 2.99,2.03 4.91,2.03 1.91,0 3.65,-0.77 4.9,-2.03 1.26,-1.25 2.03,-2.99 2.03,-4.9 0,-1.92 -0.77,-3.66 -2.03,-4.91z"/>
   <polygon class="fil3 str1" points="7.66,3.82 8.03,3.82 8.03,3.47 8.38,3.47 8.38,3.1 8.03,3.1 8.03,2.75 7.66,2.75 7.66,3.1 7.31,3.1 7.31,3.47 7.66,3.47 "/>
   <path class="fil4 str2" d="M8.75 9.59l-0.9 1.49 -0.95 -1.49c-1.9,0.23 -2.86,0.17 -2.71,2.68 2.44,0 4.87,0 7.31,0 0.15,-2.49 -0.81,-2.45 -2.75,-2.68z"/>
   <path class="fil4 str3" d="M6.21 6.33c0.15,0 0.29,0.01 0.44,0l0.09 -0.23 0 -0.01 0.09 -0.22 0 0 0.09 -0.23 0.03 0.23 0.02 0.23 0.03 0.23c0.35,-0.02 0.68,-0.06 1,-0.13 0.49,-0.09 0.94,-0.25 1.35,-0.47 0.05,0.42 0.09,0.81 0.03,1.24 -0.07,0.57 -0.26,1.01 -0.52,1.34l-0.01 0.02 -0.01 0 0 0 0 0 0 0.01 -0.01 0 0 0 0 0 0 0.01 0 0 -0.01 0.01 0 0 0 0 0 0 -0.01 0.01 0 0 0 0 0 0 -0.01 0.01 0 0 0 0 -0.01 0.01 0 0 0 0 0 0 -0.01 0.01 0 0 0 0 0 0.01 -0.01 0 0 0 0 0.01 0 0 -0.01 0 0 0 0 0.01 0 0 -0.01 0 0 0 0 0 0 0.01 0 0 -0.01 0 0 0 0 0.01 0 0 0 0 -0.01 0 -0.01 0.01 0 0 0 0.01 -0.01 0 0 0.01 0 0 0 0 0 0 -0.01 0 0 0.01 0 0c-0.61,0.61 -1.1,0.58 -1.72,0l0 0 0 -0.01 -0.01 0 -0.01 -0.01 0 0 0 -0.01 -0.01 0 -0.01 -0.01 0 0 0 -0.01 -0.01 0 0 -0.01 -0.01 0 0 -0.01 -0.01 0 0 -0.01 -0.01 -0.01 -0.01 0 0 0 -0.01 -0.01 0 -0.01 -0.01 0 0 0 -0.01 -0.02 -0.01 0 0 -0.01 -0.01 -0.01 0 0 0 0 -0.01 -0.01 -0.01 -0.01 0 0 0 -0.01 -0.01 -0.01 -0.01 0 0 0 0 -0.01 -0.01 -0.01 -0.01 -0.01 0 0 -0.01 0 0 -0.01 0 -0.01 -0.01 0 -0.01 -0.02 0 0 -0.01 0 -0.01 -0.02 0 0 -0.01 -0.02 0 0 -0.01 0 0 -0.01c-0.01,-0.01 -0.02,-0.02 -0.02,-0.03l-0.01 -0.01c-0.01,-0.01 -0.02,-0.03 -0.03,-0.04l0 0 -0.01 -0.03 0 0 -0.01 0 -0.01 -0.02 0 0 0 0 -0.01 -0.02 -0.01 -0.01 -0.01 -0.02c-0.25,-0.42 -0.4,-0.98 -0.38,-1.67zm3.24 -3.88l-0.14 1.85c-0.5,-0.13 -0.99,-0.19 -1.48,-0.18 -0.49,0 -0.98,0.06 -1.46,0.18l-0.17 -1.85 3.25 0zm-0.23 6.14c0.02,-0.03 0.05,-0.06 0.07,-0.1l1.3 0c-0.08,-1.28 0.06,-3.26 -0.77,-4.23l0.17 -2.32 -4.34 0 0.22 2.38c-0.75,0.94 -0.67,2.96 -0.77,4.17l1.27 0c0.85,1.12 1.93,1.26 2.85,0.1z"/>
  </g>
 </g>
</svg>
