<?xml version="1.0" encoding="UTF-8" ?>
<!DOCTYPE svg PUBLIC "-//W3C//DTD SVG 1.1//EN" "http://www.w3.org/Graphics/SVG/1.1/DTD/svg11.dtd">
<svg width="142pt" height="142pt" viewBox="0 0 142 142" version="1.1" xmlns="http://www.w3.org/2000/svg">
<g id="#84beeaff">
<path fill="#84beea" opacity="1.00" d=" M 18.18 42.00 C 28.32 23.06 49.43 10.35 71.01 10.98 C 71.00 16.64 70.98 22.30 71.02 27.96 C 71.61 28.24 72.78 28.79 73.37 29.07 C 60.35 27.79 48.08 34.72 39.50 44.04 C 42.51 49.86 45.16 56.02 49.09 61.26 C 62.91 58.97 77.34 57.45 91.06 61.23 C 92.01 60.17 92.98 59.13 93.89 58.03 C 93.12 59.42 92.85 61.46 91.02 61.88 C 84.51 60.88 78.00 59.40 71.37 59.40 C 71.19 60.04 70.85 61.32 70.68 61.96 C 70.43 62.29 69.91 62.94 69.66 63.27 C 64.80 63.39 59.94 63.52 55.09 63.25 C 52.95 64.20 50.76 65.03 48.46 65.50 C 45.19 66.20 43.61 69.47 41.93 72.02 C 42.04 72.73 42.26 74.16 42.37 74.87 C 40.14 82.78 36.88 90.77 37.31 99.11 C 37.25 102.53 39.99 104.88 41.40 107.74 C 48.84 109.40 56.60 109.97 63.45 113.62 C 65.97 113.69 68.48 113.87 70.99 114.13 C 71.01 119.76 71.00 125.39 71.00 131.02 C 52.56 131.54 34.33 122.34 23.21 107.73 C 8.79 89.34 6.85 62.38 18.18 42.00 Z" />
</g>
<g id="#0a7dd6ff">
<path fill="#0a7dd6" opacity="1.00" d=" M 71.01 10.98 C 74.98 11.16 79.20 10.66 82.96 12.25 C 83.80 12.90 84.73 13.15 85.77 12.99 C 90.28 13.23 94.40 15.55 98.46 17.36 C 98.51 17.38 98.61 17.43 98.66 17.45 C 107.31 21.89 114.84 28.46 120.39 36.44 C 120.44 36.50 120.52 36.62 120.57 36.69 C 121.61 38.22 122.59 39.79 123.50 41.40 C 123.53 41.45 123.58 41.55 123.61 41.60 C 124.27 42.83 124.90 44.06 125.51 45.31 C 125.53 45.36 125.58 45.46 125.60 45.51 C 127.03 48.95 128.79 52.40 129.10 56.15 C 129.26 56.65 129.59 57.63 129.75 58.13 C 131.35 63.61 130.98 69.39 130.97 75.03 C 130.83 77.68 130.90 80.48 129.75 82.94 C 129.11 83.79 128.86 84.73 129.01 85.77 C 128.77 90.29 126.44 94.41 124.63 98.48 C 124.61 98.54 124.55 98.65 124.52 98.70 C 120.09 107.35 113.49 114.87 105.52 120.43 C 105.48 120.46 105.39 120.52 105.35 120.55 C 103.82 121.58 102.27 122.56 100.67 123.46 C 100.63 123.49 100.53 123.54 100.49 123.56 C 99.27 124.22 98.04 124.85 96.79 125.45 C 96.70 125.49 96.53 125.57 96.44 125.61 C 93.00 127.02 89.53 128.93 85.75 129.01 C 84.71 128.86 83.78 129.11 82.94 129.76 C 79.19 131.33 74.98 130.84 71.00 131.02 C 71.00 125.39 71.01 119.76 70.99 114.13 C 75.99 114.04 80.73 112.30 85.39 110.65 C 88.67 109.37 92.35 110.64 95.64 109.34 C 98.28 108.89 101.23 108.20 102.63 105.64 C 107.18 99.37 104.61 91.33 102.73 84.60 C 100.40 79.76 100.97 73.79 97.41 69.55 C 95.94 67.51 93.58 66.45 91.56 65.07 C 91.00 65.04 89.88 64.98 89.32 64.95 C 88.89 64.46 88.03 63.48 87.60 63.00 C 81.89 63.47 76.41 61.28 70.68 61.96 C 70.85 61.32 71.19 60.04 71.37 59.40 C 78.00 59.40 84.51 60.88 91.02 61.88 C 92.85 61.46 93.12 59.42 93.89 58.03 C 96.84 53.17 99.97 48.41 103.09 43.64 C 94.88 36.20 84.63 30.00 73.37 29.07 C 72.78 28.79 71.61 28.24 71.02 27.96 C 70.98 22.30 71.00 16.64 71.01 10.98 Z" />
</g>
<g id="#403f3fff">
<path fill="#403f3f" opacity="1.00" d=" M 82.96 12.25 C 84.44 11.11 85.38 11.36 85.77 12.99 C 84.73 13.15 83.80 12.90 82.96 12.25 Z" />
<path fill="#403f3f" opacity="1.00" d=" M 98.46 17.36 C 98.51 17.38 98.61 17.43 98.66 17.45 C 98.61 17.43 98.51 17.38 98.46 17.36 Z" />
<path fill="#403f3f" opacity="1.00" d=" M 120.39 36.44 C 120.44 36.50 120.52 36.62 120.57 36.69 C 120.52 36.62 120.44 36.50 120.39 36.44 Z" />
<path fill="#403f3f" opacity="1.00" d=" M 123.50 41.40 C 123.53 41.45 123.58 41.55 123.61 41.60 C 123.58 41.55 123.53 41.45 123.50 41.40 Z" />
<path fill="#403f3f" opacity="1.00" d=" M 125.51 45.31 C 125.53 45.36 125.58 45.46 125.60 45.51 C 125.58 45.46 125.53 45.36 125.51 45.31 Z" />
<path fill="#403f3f" opacity="1.00" d=" M 129.10 56.15 L 129.98 56.36 L 130.32 57.38 L 129.75 58.13 C 129.59 57.63 129.26 56.65 129.10 56.15 Z" />
<path fill="#403f3f" opacity="1.00" d=" M 69.66 63.27 C 69.91 62.94 70.43 62.29 70.68 61.96 C 71.22 66.96 71.06 72.00 70.78 77.01 C 66.99 74.55 62.84 72.55 59.72 69.20 C 59.05 69.13 57.71 69.00 57.04 68.93 C 55.03 73.20 53.41 77.70 50.73 81.62 C 49.26 83.81 47.23 85.60 46.02 87.96 C 48.28 99.02 58.05 108.24 69.43 109.22 C 70.01 109.65 70.60 110.08 71.20 110.50 C 71.15 111.41 71.04 113.22 70.99 114.13 C 68.48 113.87 65.97 113.69 63.45 113.62 C 56.60 109.97 48.84 109.40 41.40 107.74 C 39.99 104.88 37.25 102.53 37.31 99.11 C 36.88 90.77 40.14 82.78 42.37 74.87 C 42.26 74.16 42.04 72.73 41.93 72.02 C 43.61 69.47 45.19 66.20 48.46 65.50 C 50.76 65.03 52.95 64.20 55.09 63.25 C 59.94 63.52 64.80 63.39 69.66 63.27 Z" />
<path fill="#403f3f" opacity="1.00" d=" M 129.01 85.77 C 128.86 84.73 129.11 83.79 129.75 82.94 C 130.89 84.43 130.64 85.37 129.01 85.77 Z" />
<path fill="#403f3f" opacity="1.00" d=" M 124.52 98.70 C 124.55 98.65 124.61 98.54 124.63 98.48 C 124.61 98.54 124.55 98.65 124.52 98.70 Z" />
<path fill="#403f3f" opacity="1.00" d=" M 105.35 120.55 C 105.39 120.52 105.48 120.46 105.52 120.43 C 105.48 120.46 105.39 120.52 105.35 120.55 Z" />
<path fill="#403f3f" opacity="1.00" d=" M 100.49 123.56 C 100.53 123.54 100.63 123.49 100.67 123.46 C 100.63 123.49 100.53 123.54 100.49 123.56 Z" />
<path fill="#403f3f" opacity="1.00" d=" M 96.44 125.61 C 96.53 125.57 96.70 125.49 96.79 125.45 C 96.70 125.49 96.53 125.57 96.44 125.61 Z" />
<path fill="#403f3f" opacity="1.00" d=" M 82.94 129.76 C 83.78 129.11 84.71 128.86 85.75 129.01 C 85.38 130.64 84.44 130.89 82.94 129.76 Z" />
</g>
<g id="#ffffffff">
<path fill="#ffffff" opacity="1.00" d=" M 39.50 44.04 C 48.08 34.72 60.35 27.79 73.37 29.07 C 84.63 30.00 94.88 36.20 103.09 43.64 C 99.97 48.41 96.84 53.17 93.89 58.03 C 92.98 59.13 92.01 60.17 91.06 61.23 C 77.34 57.45 62.91 58.97 49.09 61.26 C 45.16 56.02 42.51 49.86 39.50 44.04 M 42.79 44.84 C 45.38 49.24 47.54 53.87 50.06 58.31 C 56.35 57.44 62.66 56.56 69.03 56.51 C 73.47 56.37 77.90 57.09 82.34 56.85 C 85.02 57.35 87.72 57.85 90.46 57.85 C 93.08 53.03 96.59 48.75 98.99 43.81 C 94.26 40.38 89.51 36.83 83.99 34.79 C 80.50 32.44 76.21 31.87 72.10 31.70 C 60.92 30.87 50.16 36.77 42.79 44.84 Z" />
<path fill="#ffffff" opacity="1.00" d=" M 68.82 36.64 C 69.34 36.60 70.38 36.52 70.90 36.48 C 71.40 36.44 72.40 36.37 72.90 36.33 C 72.90 38.36 72.89 40.39 72.89 42.42 C 74.93 42.45 76.98 42.47 79.02 42.47 C 79.01 43.80 79.00 45.14 78.99 46.47 C 76.95 46.49 74.91 46.51 72.87 46.56 C 72.90 48.40 72.92 50.23 72.96 52.07 C 71.59 52.10 70.22 52.12 68.85 52.15 C 68.88 50.36 68.92 48.57 68.96 46.79 C 66.88 46.39 64.77 46.25 62.66 46.22 C 62.68 45.33 62.73 43.54 62.75 42.65 C 64.77 42.63 66.78 42.61 68.80 42.59 C 68.82 40.61 68.82 38.63 68.82 36.64 Z" />
<path fill="#ffffff" opacity="1.00" d=" M 57.04 68.93 C 57.71 69.00 59.05 69.13 59.72 69.20 C 62.84 72.55 66.99 74.55 70.78 77.01 L 71.19 77.24 C 70.83 85.83 71.04 94.42 71.04 103.00 C 71.12 105.12 70.51 107.16 69.91 109.17 L 69.43 109.22 C 58.05 108.24 48.28 99.02 46.02 87.96 C 47.23 85.60 49.26 83.81 50.73 81.62 C 53.41 77.70 55.03 73.20 57.04 68.93 M 60.10 82.16 C 55.14 82.87 56.84 91.28 61.78 89.86 C 66.92 89.23 65.19 80.53 60.10 82.16 Z" />
</g>
<g id="#f96f6fff">
<path fill="#f96f6f" opacity="1.00" d=" M 42.79 44.84 C 50.16 36.77 60.92 30.87 72.10 31.70 C 76.21 31.87 80.50 32.44 83.99 34.79 C 79.81 33.47 75.52 32.44 71.15 32.01 C 71.07 33.50 70.98 34.99 70.90 36.48 C 70.38 36.52 69.34 36.60 68.82 36.64 C 68.82 38.63 68.82 40.61 68.80 42.59 C 66.78 42.61 64.77 42.63 62.75 42.65 C 62.73 43.54 62.68 45.33 62.66 46.22 C 64.77 46.25 66.88 46.39 68.96 46.79 C 68.92 48.57 68.88 50.36 68.85 52.15 C 70.22 52.12 71.59 52.10 72.96 52.07 C 72.50 52.33 71.57 52.84 71.11 53.09 C 71.07 53.83 70.99 55.30 70.95 56.03 C 74.76 56.02 78.60 56.01 82.34 56.85 C 77.90 57.09 73.47 56.37 69.03 56.51 C 62.66 56.56 56.35 57.44 50.06 58.31 C 47.54 53.87 45.38 49.24 42.79 44.84 Z" />
</g>
<g id="#ff0000ff">
<path fill="#ff0000" opacity="1.00" d=" M 71.15 32.01 C 75.52 32.44 79.81 33.47 83.99 34.79 C 89.51 36.83 94.26 40.38 98.99 43.81 C 96.59 48.75 93.08 53.03 90.46 57.85 C 87.72 57.85 85.02 57.35 82.34 56.85 C 78.60 56.01 74.76 56.02 70.95 56.03 C 70.99 55.30 71.07 53.83 71.11 53.09 C 71.57 52.84 72.50 52.33 72.96 52.07 C 72.92 50.23 72.90 48.40 72.87 46.56 C 74.91 46.51 76.95 46.49 78.99 46.47 C 79.00 45.14 79.01 43.80 79.02 42.47 C 76.98 42.47 74.93 42.45 72.89 42.42 C 72.89 40.39 72.90 38.36 72.90 36.33 C 72.40 36.37 71.40 36.44 70.90 36.48 C 70.98 34.99 71.07 33.50 71.15 32.01 Z" />
</g>
<g id="#000000ff">
<path fill="#000000" opacity="1.00" d=" M 70.68 61.96 C 76.41 61.28 81.89 63.47 87.60 63.00 C 88.03 63.48 88.89 64.46 89.32 64.95 C 89.88 64.98 91.00 65.04 91.56 65.07 C 93.58 66.45 95.94 67.51 97.41 69.55 C 100.97 73.79 100.40 79.76 102.73 84.60 C 104.61 91.33 107.18 99.37 102.63 105.64 C 101.23 108.20 98.28 108.89 95.64 109.34 C 92.35 110.64 88.67 109.37 85.39 110.65 C 80.73 112.30 75.99 114.04 70.99 114.13 C 71.04 113.22 71.15 111.41 71.20 110.50 C 70.60 110.08 70.01 109.65 69.43 109.22 L 69.91 109.17 C 75.57 108.82 81.54 107.74 85.96 103.90 C 93.23 98.00 95.63 87.48 93.41 78.64 C 86.05 80.33 78.24 80.00 71.19 77.24 L 70.78 77.01 C 71.06 72.00 71.22 66.96 70.68 61.96 Z" />
<path fill="#000000" opacity="1.00" d=" M 60.10 82.16 C 65.19 80.53 66.92 89.23 61.78 89.86 C 56.84 91.28 55.14 82.87 60.10 82.16 Z" />
<path fill="#000000" opacity="1.00" d=" M 75.69 86.05 C 75.37 83.97 77.37 82.74 78.68 81.55 C 80.29 81.74 81.89 82.01 83.43 82.52 C 84.37 84.17 85.54 86.24 84.10 87.99 C 82.26 91.87 75.54 90.39 75.69 86.05 Z" />
</g>
<g id="#cdcdcdff">
<path fill="#cdcdcd" opacity="1.00" d=" M 71.19 77.24 C 78.24 80.00 86.05 80.33 93.41 78.64 C 95.63 87.48 93.23 98.00 85.96 103.90 C 81.54 107.74 75.57 108.82 69.91 109.17 C 70.51 107.16 71.12 105.12 71.04 103.00 C 71.04 94.42 70.83 85.83 71.19 77.24 M 75.69 86.05 C 75.54 90.39 82.26 91.87 84.10 87.99 C 85.54 86.24 84.37 84.17 83.43 82.52 C 81.89 82.01 80.29 81.74 78.68 81.55 C 77.37 82.74 75.37 83.97 75.69 86.05 Z" />
</g>
</svg>
