<?xml version="1.0" encoding="UTF-8"?>
<!DOCTYPE svg PUBLIC "-//W3C//DTD SVG 1.1//EN" "http://www.w3.org/Graphics/SVG/1.1/DTD/svg11.dtd">
<!-- Creator: CorelDRAW 2017 -->
<svg xmlns="http://www.w3.org/2000/svg" xml:space="preserve" width="336px" height="337px" version="1.1" style="shape-rendering:geometricPrecision; text-rendering:geometricPrecision; image-rendering:optimizeQuality; fill-rule:evenodd; clip-rule:evenodd"
viewBox="0 0 13.27 13.28"
 xmlns:xlink="http://www.w3.org/1999/xlink">
 <defs>
  <style type="text/css">
   <![CDATA[
    .str1 {stroke:#4D4D4D;stroke-width:0.18;stroke-miterlimit:2.61313}
    .str3 {stroke:#4D4D4D;stroke-width:0.18;stroke-miterlimit:2.61313}
    .str2 {stroke:#4D4D4D;stroke-width:0.18;stroke-miterlimit:2.61313}
    .str0 {stroke:#666666;stroke-width:0.36;stroke-miterlimit:2.61313}
    .fil1 {fill:none}
    .fil3 {fill:#4D4D4D;fill-rule:nonzero}
    .fil0 {fill:url(#id0)}
    .fil2 {fill:url(#id1);fill-rule:nonzero}
   ]]>
  </style>
  <linearGradient id="id0" gradientUnits="userSpaceOnUse" x1="6.63" y1="0" x2="6.63" y2="13.1">
   <stop offset="0" style="stop-opacity:1; stop-color:#CCCACB"/>
   <stop offset="1" style="stop-opacity:1; stop-color:white"/>
  </linearGradient>
  <linearGradient id="id1" gradientUnits="userSpaceOnUse" x1="6.8" y1="12.92" x2="6.46" y2="0.38">
   <stop offset="0" style="stop-opacity:1; stop-color:#A2A1A6"/>
   <stop offset="1" style="stop-opacity:1; stop-color:white"/>
  </linearGradient>
 </defs>
 <g id="Layer_x0020_1">
  <metadata id="CorelCorpID_0Corel-Layer"/>
  <g id="_888961920">
   <circle class="fil0" cx="6.63" cy="6.55" r="6.55"/>
   <circle class="fil1 str0" cx="6.63" cy="6.65" r="6.45"/>
   <path class="fil2" d="M6.63 0.38c1.73,0 3.3,0.7 4.44,1.84 1.13,1.13 1.83,2.7 1.83,4.43 0,1.73 -0.7,3.3 -1.83,4.43 -1.14,1.14 -2.71,1.84 -4.44,1.84 -1.73,0 -3.3,-0.7 -4.43,-1.84 -1.13,-1.13 -1.84,-2.7 -1.84,-4.43 0,-1.73 0.71,-3.3 1.84,-4.43 1.13,-1.14 2.7,-1.84 4.43,-1.84zm4.15 2.12c-1.06,-1.06 -2.53,-1.72 -4.15,-1.72 -1.62,0 -3.08,0.66 -4.15,1.72 -1.06,1.06 -1.71,2.53 -1.71,4.15 0,1.62 0.65,3.09 1.71,4.15 1.07,1.06 2.53,1.72 4.15,1.72 1.62,0 3.09,-0.66 4.15,-1.72 1.06,-1.06 1.72,-2.53 1.72,-4.15 0,-1.62 -0.66,-3.09 -1.72,-4.15z"/>
   <path class="fil3" d="M9.18 4.2c0.01,0.81 -1.12,0.87 -1.13,0.06 0,-0.34 0.36,-0.44 0.47,-1.17 0.05,-0.34 0.66,0.77 0.66,1.11z"/>
   <g>
    <path class="fil3" d="M6.01 5.97l-1.99 0 0 -0.46 1.99 0 0 0 0 0.46zm0.89 0.43l-0.46 0 0 0 0 -0.02 0 -0.02 -0.01 -0.02 0 -0.02 -0.01 -0.02 0 -0.02 -0.01 -0.02 -0.01 -0.02 0 -0.02 -0.01 -0.02 -0.01 -0.02 -0.02 -0.02 -0.01 -0.01 -0.01 -0.02 -0.01 -0.02 -0.02 -0.01 -0.01 -0.02 -0.02 -0.01 -0.02 -0.01 -0.01 -0.01 -0.02 -0.02 -0.02 -0.01 -0.02 -0.01 -0.02 -0.01 -0.02 0 -0.02 -0.01 -0.02 -0.01 -0.02 0 -0.02 0 -0.02 -0.01 -0.02 0 -0.02 0 0 -0.46 0.04 0.01 0.05 0 0.04 0 0.04 0.01 0.05 0.01 0.04 0.01 0.04 0.02 0.04 0.01 0.04 0.02 0.04 0.02 0.04 0.02 0.03 0.03 0.04 0.02 0.03 0.03 0.03 0.03 0.03 0.03 0.03 0.03 0.03 0.03 0.03 0.03 0.02 0.04 0.03 0.03 0.02 0.04 0.02 0.04 0.02 0.04 0.01 0.04 0.02 0.04 0.01 0.04 0.01 0.05 0.01 0.04 0 0.04 0 0.05 0.01 0.04 0 0zm-0.46 3.19l0 -3.19 0.46 0 0 3.19 0 0 -0.46 0zm-0.43 0.89l0 -0.45 0 0 0.02 -0.01 0.02 0 0.02 0 0.02 0 0.02 -0.01 0.02 0 0.02 -0.01 0.02 -0.01 0.02 -0.01 0.02 -0.01 0.02 -0.01 0.02 -0.01 0.01 -0.01 0.02 -0.01 0.02 -0.02 0.01 -0.01 0.02 -0.02 0.01 -0.01 0.01 -0.02 0.01 -0.02 0.02 -0.01 0.01 -0.02 0.01 -0.02 0 -0.02 0.01 -0.02 0.01 -0.02 0 -0.02 0.01 -0.02 0 -0.02 0.01 -0.02 0 -0.03 0 -0.02 0.46 0 -0.01 0.05 0 0.04 0 0.05 -0.01 0.04 -0.01 0.04 -0.01 0.05 -0.02 0.04 -0.01 0.04 -0.02 0.04 -0.02 0.04 -0.02 0.03 -0.03 0.04 -0.02 0.03 -0.03 0.04 -0.03 0.03 -0.03 0.03 -0.03 0.03 -0.03 0.03 -0.03 0.02 -0.04 0.03 -0.03 0.02 -0.04 0.02 -0.04 0.02 -0.04 0.02 -0.04 0.02 -0.04 0.01 -0.04 0.01 -0.05 0.01 -0.04 0.01 -0.04 0.01 -0.05 0 -0.04 0 0 0zm-2.05 -0.45l2.05 0 0 0.45 -2.05 0 0 0 0 -0.45zm-0.89 -0.44l0.46 0 0 0 0 0.02 0 0.03 0 0.02 0.01 0.02 0 0.02 0.01 0.02 0 0.02 0.01 0.02 0.01 0.02 0.01 0.02 0.01 0.02 0.01 0.01 0.01 0.02 0.02 0.02 0.01 0.01 0.02 0.02 0.01 0.01 0.02 0.02 0.01 0.01 0.02 0.01 0.02 0.01 0.02 0.01 0.02 0.01 0.01 0.01 0.02 0.01 0.02 0.01 0.02 0 0.02 0.01 0.03 0 0.02 0 0.02 0 0.02 0.01 0 0.45 -0.04 0 -0.05 0 -0.04 -0.01 -0.05 -0.01 -0.04 -0.01 -0.04 -0.01 -0.04 -0.01 -0.04 -0.02 -0.04 -0.02 -0.04 -0.02 -0.04 -0.02 -0.04 -0.02 -0.03 -0.03 -0.03 -0.02 -0.04 -0.03 -0.03 -0.03 -0.03 -0.03 -0.02 -0.03 -0.03 -0.04 -0.03 -0.03 -0.02 -0.04 -0.02 -0.03 -0.02 -0.04 -0.02 -0.04 -0.01 -0.04 -0.02 -0.04 -0.01 -0.05 -0.01 -0.04 -0.01 -0.04 0 -0.05 -0.01 -0.04 0 -0.05 0 0zm0.46 -3.13l0 3.13 -0.46 0 0 -3.13 0 0 0.46 0zm0.49 -0.95l0 0.46 0 0 -0.03 0 -0.02 0 -0.03 0.01 -0.02 0 -0.02 0.01 -0.03 0 -0.02 0.01 -0.02 0.01 -0.02 0.01 -0.02 0.01 -0.02 0.01 -0.02 0.01 -0.02 0.02 -0.02 0.01 -0.02 0.02 -0.02 0.02 -0.01 0.01 -0.02 0.02 -0.01 0.02 -0.02 0.02 -0.01 0.02 -0.01 0.02 -0.01 0.02 -0.01 0.02 -0.01 0.02 -0.01 0.03 -0.01 0.02 0 0.02 -0.01 0.03 0 0.02 0 0.03 0 0.02 -0.46 0 0 -0.05 0.01 -0.04 0 -0.05 0.01 -0.05 0.01 -0.04 0.01 -0.05 0.02 -0.04 0.02 -0.05 0.02 -0.04 0.02 -0.04 0.02 -0.04 0.02 -0.04 0.03 -0.03 0.03 -0.04 0.03 -0.03 0.03 -0.04 0.03 -0.03 0.04 -0.03 0.03 -0.03 0.04 -0.02 0.04 -0.03 0.04 -0.02 0.04 -0.02 0.04 -0.02 0.04 -0.02 0.05 -0.01 0.04 -0.02 0.05 -0.01 0.04 0 0.05 -0.01 0.05 0 0.05 -0.01 0 0z"/>
   </g>
   <g>
    <path class="fil3" d="M5.78 4.41l-1.59 0 0 -0.46 1.59 0 0 0 0 0.46zm0.5 0.04l-0.45 0 0 0 0 0 0 0 0 -0.01 0 0 0 0 0 0 0 0 -0.01 -0.01 0 0 0 0 0 0 0 0 0 0 0 -0.01 0 0 -0.01 0 0 0 0 0 0 0 0 -0.01 -0.01 0 0 0 0 0 0 0 0 0 -0.01 0 0 0 0 0 0 0 0 0 -0.01 0 0 0 0 -0.46 0.02 0 0.03 0 0.03 0 0.02 0.01 0.02 0 0.03 0.01 0.02 0.01 0.02 0.01 0.02 0.01 0.03 0.01 0.02 0.01 0.02 0.01 0.02 0.02 0.02 0.01 0.01 0.02 0.02 0.01 0.02 0.02 0.01 0.02 0.02 0.02 0.01 0.02 0.01 0.02 0.02 0.02 0.01 0.02 0.01 0.02 0.01 0.03 0.01 0.02 0 0.02 0.01 0.03 0 0.02 0.01 0.03 0 0.02 0 0.03 0 0zm-0.45 0.42l0 -0.42 0.45 0 0 0.42 0 0 -0.45 0zm-0.05 0.51l0 -0.46 0 0 0 0 0.01 0 0 0 0 0 0 0 0 0 0.01 0 0 0 0 -0.01 0 0 0 0 0.01 0 0 0 0 0 0 0 0 -0.01 0.01 0 0 0 0 0 0 0 0 0 0 -0.01 0 0 0 0 0.01 0 0 0 0 -0.01 0 0 0 0 0 0 0 0 0 -0.01 0.45 0 0 0.03 0 0.03 -0.01 0.02 0 0.03 -0.01 0.02 0 0.02 -0.01 0.03 -0.01 0.02 -0.01 0.02 -0.01 0.02 -0.02 0.03 -0.01 0.02 -0.01 0.02 -0.02 0.01 -0.01 0.02 -0.02 0.02 -0.02 0.02 -0.01 0.01 -0.02 0.02 -0.02 0.01 -0.02 0.01 -0.02 0.02 -0.03 0.01 -0.02 0.01 -0.02 0.01 -0.02 0 -0.03 0.01 -0.02 0.01 -0.02 0 -0.03 0 -0.03 0 -0.02 0.01 0 0zm-1.59 -0.46l1.59 0 0 0.46 -1.59 0 0 0 0 -0.46zm-0.5 -0.05l0.45 0 0 0 0 0.01 0 0 0 0 0 0 0 0 0 0.01 0 0 0 0 0 0 0 0 0.01 0.01 0 0 0 0 0 0 0 0 0 0 0 0.01 0.01 0 0 0 0 0 0 0 0 0 0.01 0 0 0.01 0 0 0 0 0 0 0.01 0 0 0 0 0 0 0 0.01 0 0 0.46 -0.03 -0.01 -0.02 0 -0.03 0 -0.02 0 -0.03 -0.01 -0.02 -0.01 -0.02 0 -0.03 -0.01 -0.02 -0.01 -0.02 -0.01 -0.02 -0.02 -0.02 -0.01 -0.02 -0.01 -0.02 -0.02 -0.02 -0.01 -0.01 -0.02 -0.02 -0.02 -0.02 -0.02 -0.01 -0.01 -0.01 -0.02 -0.02 -0.02 -0.01 -0.03 -0.01 -0.02 -0.01 -0.02 -0.01 -0.02 -0.01 -0.03 0 -0.02 -0.01 -0.02 0 -0.03 -0.01 -0.02 0 -0.03 0 -0.03 0 0zm0.45 -0.42l0 0.42 -0.45 0 0 -0.42 0 0 0.45 0zm0.05 -0.5l0 0.46 0 0 -0.01 0 0 0 0 0 0 0 -0.01 0 0 0 0 0 0 0 0 0 -0.01 0 0 0 0 0 0 0.01 0 0 -0.01 0 0 0 0 0 0 0 0 0.01 0 0 0 0 -0.01 0 0 0 0 0 0 0.01 0 0 0 0 0 0 0 0 0 0.01 0 0 0 0 -0.45 0 0 -0.03 0 -0.02 0.01 -0.03 0 -0.02 0.01 -0.03 0 -0.02 0.01 -0.02 0.01 -0.03 0.01 -0.02 0.01 -0.02 0.01 -0.02 0.02 -0.02 0.01 -0.02 0.01 -0.02 0.02 -0.02 0.02 -0.02 0.01 -0.01 0.02 -0.02 0.02 -0.01 0.02 -0.02 0.02 -0.01 0.02 -0.01 0.02 -0.01 0.02 -0.01 0.03 -0.01 0.02 -0.01 0.02 -0.01 0.03 0 0.02 -0.01 0.03 0 0.02 0 0.03 0 0 0z"/>
   </g>
   <g>
    <path class="fil3" d="M9.43 6.92l-1.58 0 0 -0.46 1.58 0 0 0 0 0.46zm0.76 0.3l-0.46 0 0 0 0 -0.02 0 -0.01 -0.01 -0.02 0 -0.01 0 -0.02 -0.01 -0.01 0 -0.01 -0.01 -0.02 0 -0.01 -0.01 -0.01 -0.01 -0.02 0 -0.01 -0.01 -0.01 -0.01 -0.01 -0.01 -0.01 -0.01 -0.01 -0.01 -0.01 -0.01 -0.01 -0.01 -0.01 -0.01 -0.01 -0.02 -0.01 -0.01 0 -0.01 -0.01 -0.01 -0.01 -0.02 0 -0.01 -0.01 -0.02 0 -0.01 0 -0.01 -0.01 -0.02 0 -0.01 0 -0.02 0 0 -0.46 0.04 0 0.04 0.01 0.04 0 0.03 0.01 0.04 0.01 0.04 0.01 0.03 0.01 0.03 0.01 0.04 0.02 0.03 0.02 0.03 0.01 0.03 0.02 0.03 0.02 0.03 0.03 0.03 0.02 0.02 0.03 0.03 0.02 0.02 0.03 0.02 0.03 0.03 0.03 0.02 0.03 0.01 0.03 0.02 0.03 0.02 0.03 0.01 0.04 0.01 0.03 0.01 0.04 0.01 0.04 0.01 0.03 0 0.04 0 0.04 0.01 0.04 0 0zm-0.46 2.53l0 -2.53 0.46 0 0 2.53 0 0 -0.46 0zm-0.3 0.75l0 -0.45 0 0 0.02 0 0.01 0 0.02 -0.01 0.01 0 0.01 0 0.02 -0.01 0.01 0 0.02 -0.01 0.01 0 0.01 -0.01 0.01 -0.01 0.02 0 0.01 -0.01 0.01 -0.01 0.01 -0.01 0.01 -0.01 0.01 -0.01 0.01 -0.01 0.01 -0.01 0.01 -0.01 0 -0.02 0.01 -0.01 0.01 -0.01 0 -0.02 0.01 -0.01 0 -0.01 0.01 -0.02 0 -0.01 0 -0.02 0.01 -0.01 0 -0.01 0 -0.02 0.46 0 -0.01 0.04 0 0.04 0 0.03 -0.01 0.04 -0.01 0.04 -0.01 0.03 -0.01 0.04 -0.01 0.03 -0.02 0.04 -0.02 0.03 -0.01 0.03 -0.02 0.03 -0.03 0.03 -0.02 0.03 -0.02 0.03 -0.03 0.02 -0.02 0.03 -0.03 0.02 -0.03 0.02 -0.03 0.02 -0.03 0.02 -0.03 0.02 -0.03 0.02 -0.04 0.01 -0.03 0.02 -0.03 0.01 -0.04 0.01 -0.04 0.01 -0.03 0 -0.04 0.01 -0.04 0 -0.04 0 0 0zm-1.62 -0.45l1.62 0 0 0.45 -1.62 0 0 0 0 -0.45zm-0.76 -0.3l0.46 0 0 0 0 0.02 0 0.01 0 0.01 0.01 0.02 0 0.01 0 0.02 0.01 0.01 0 0.01 0.01 0.02 0.01 0.01 0 0.01 0.01 0.02 0.01 0.01 0.01 0.01 0.01 0.01 0.01 0.01 0.01 0.01 0.01 0.01 0.01 0.01 0.01 0.01 0.01 0 0.02 0.01 0.01 0.01 0.01 0 0.02 0.01 0.01 0 0.01 0.01 0.02 0 0.01 0 0.02 0.01 0.01 0 0.02 0 0 0.45 -0.04 0 -0.04 0 -0.04 -0.01 -0.03 0 -0.04 -0.01 -0.04 -0.01 -0.03 -0.01 -0.04 -0.02 -0.03 -0.01 -0.03 -0.02 -0.03 -0.02 -0.03 -0.02 -0.03 -0.02 -0.03 -0.02 -0.03 -0.02 -0.03 -0.03 -0.02 -0.02 -0.02 -0.03 -0.03 -0.03 -0.02 -0.03 -0.02 -0.03 -0.02 -0.03 -0.01 -0.03 -0.02 -0.04 -0.01 -0.03 -0.01 -0.04 -0.01 -0.03 -0.01 -0.04 -0.01 -0.04 0 -0.03 -0.01 -0.04 0 -0.04 0 0zm0.46 -2.49l0 2.49 -0.46 0 0 -2.49 0 0 0.46 0zm0.34 -0.8l0 0.46 0 0 -0.01 0 -0.02 0 -0.02 0 -0.02 0.01 -0.01 0 -0.02 0.01 -0.01 0 -0.02 0.01 -0.01 0 -0.02 0.01 -0.01 0.01 -0.02 0.01 -0.01 0.01 -0.01 0.01 -0.02 0.01 -0.01 0.01 -0.01 0.01 -0.01 0.02 -0.01 0.01 -0.01 0.01 -0.01 0.02 -0.01 0.01 -0.01 0.02 0 0.01 -0.01 0.02 0 0.01 -0.01 0.02 0 0.01 -0.01 0.02 0 0.02 0 0.02 0 0.01 -0.46 0 0 -0.04 0.01 -0.04 0 -0.04 0.01 -0.04 0.01 -0.04 0.01 -0.03 0.01 -0.04 0.02 -0.04 0.01 -0.03 0.02 -0.04 0.02 -0.03 0.02 -0.03 0.02 -0.03 0.03 -0.03 0.02 -0.03 0.03 -0.03 0.03 -0.03 0.02 -0.02 0.03 -0.03 0.04 -0.02 0.03 -0.02 0.03 -0.02 0.04 -0.02 0.03 -0.01 0.04 -0.02 0.04 -0.01 0.03 -0.01 0.04 -0.01 0.04 -0.01 0.04 0 0.04 0 0.04 -0.01 0 0z"/>
   </g>
   <g>
    <path class="fil3" d="M9.25 5.56l-1.26 0 0 -0.46 1.26 0 0 0 0 0.46zm0.44 -0.01l-0.45 0 0 0 0 0 0 0 0 0 0 0 0 0 0 0 0 0.01 0 0 0.01 0 0 0 0 0 0 0 0 0 0 0 0 0 0 0 0 0 0 0 0 0 0 0 0 0 0 0 0 0 0 0 0 0 0 0 0 0 0 0 0 0 0 0 0 0 0 0 0 -0.46 0.02 0.01 0.03 0 0.02 0 0.02 0 0.02 0.01 0.02 0 0.02 0.01 0.02 0.01 0.02 0.01 0.02 0.01 0.02 0.01 0.02 0.01 0.01 0.01 0.02 0.02 0.02 0.01 0.01 0.01 0.02 0.02 0.01 0.02 0.01 0.01 0.02 0.02 0.01 0.02 0.01 0.02 0.01 0.02 0.01 0.02 0.01 0.02 0 0.02 0.01 0.02 0 0.02 0.01 0.02 0 0.02 0 0.03 0 0.02 0 0zm-0.45 0.34l0 -0.34 0.45 0 0 0.34 0 0 -0.45 0zm0.01 0.44l0 -0.45 0 0 0 0 0 0 0 0 0 0 0 0 0 0 0 0 0 0 0 0 0 0 0 0 0 0 0 0 0 0 0 0 0 0 0 0 0 0 0 0 0 0 0 0 0 0 0 0 -0.01 0 0 0 0 0 0 0 0 0 0 0 0 0.01 0 0 0 0 0.45 0 0 0.02 0 0.02 0 0.02 -0.01 0.03 0 0.02 -0.01 0.02 0 0.02 -0.01 0.02 -0.01 0.02 -0.01 0.02 -0.01 0.02 -0.01 0.02 -0.02 0.01 -0.01 0.02 -0.01 0.02 -0.02 0.01 -0.01 0.02 -0.02 0.01 -0.02 0.01 -0.01 0.02 -0.02 0.01 -0.02 0.01 -0.02 0.01 -0.02 0.01 -0.02 0 -0.02 0.01 -0.02 0.01 -0.02 0 -0.02 0.01 -0.02 0 -0.03 0 -0.02 0 0 0zm-1.26 -0.45l1.26 0 0 0.45 -1.26 0 0 0 0 -0.45zm-0.45 0.01l0.45 0 0 0 0 0 0 0 0 -0.01 0 0 0 0 0 0 0 0 0 0 0 0 0 0 0 0 0 0 0 0 0 0 0 0 0 0 0 0 0 0 0 0 0 0 0 0 0 0 0 0 0 0 0 0 0 0 0 0 0 0 0 0 0 0 0 0 0 0 0 0.45 -0.03 0 -0.02 0 -0.02 0 -0.02 -0.01 -0.02 0 -0.02 -0.01 -0.02 -0.01 -0.02 0 -0.02 -0.01 -0.02 -0.01 -0.02 -0.01 -0.02 -0.01 -0.02 -0.02 -0.01 -0.01 -0.02 -0.01 -0.01 -0.02 -0.02 -0.01 -0.01 -0.02 -0.02 -0.02 -0.01 -0.01 -0.01 -0.02 -0.01 -0.02 -0.01 -0.02 -0.01 -0.02 -0.01 -0.02 -0.01 -0.02 0 -0.02 -0.01 -0.02 0 -0.03 0 -0.02 0 -0.02 -0.01 -0.02 0 0zm0.45 -0.34l0 0.34 -0.45 0 0 -0.34 0 0 0.45 0zm0 -0.45l0 0.46 0 0 0 0 0 0 0 0 0 0 0 0 0 0 0 0 0 0 0 0 0 0 0 0 0 0 0 0 0 0 0 0 0 0 0 0 0 0 0 0 0 0 0 0 0 0 0 0 0 0 0 0 0 -0.01 0 0 0 0 0 0 0 0 0 0 0 0 -0.45 0 0.01 -0.02 0 -0.03 0 -0.02 0 -0.02 0.01 -0.02 0 -0.02 0.01 -0.02 0.01 -0.02 0.01 -0.02 0.01 -0.02 0.01 -0.02 0.01 -0.02 0.01 -0.02 0.02 -0.01 0.01 -0.02 0.02 -0.02 0.01 -0.01 0.02 -0.01 0.01 -0.02 0.02 -0.01 0.02 -0.01 0.02 -0.01 0.02 -0.01 0.02 -0.01 0.02 -0.01 0.02 -0.01 0.02 0 0.02 -0.01 0.02 0 0.02 0 0.02 0 0.03 -0.01 0 0z"/>
   </g>
   <line class="fil1 str1" x1="4.76" y1="7.37" x2="6.67" y2= "7.37" />
   <line class="fil1 str2" x1="4.76" y1="8" x2="6.67" y2= "8" />
   <line class="fil1 str3" x1="4.76" y1="8.63" x2="6.67" y2= "8.63" />
   <g>
    <polygon class="fil3" points="9.97,7.95 8.62,7.95 8.62,7.76 9.97,7.76 "/>
   </g>
   <g>
    <polygon class="fil3" points="9.97,8.57 8.62,8.57 8.62,8.39 9.97,8.39 "/>
   </g>
   <g>
    <polygon class="fil3" points="9.97,9.2 8.62,9.2 8.62,9.02 9.97,9.02 "/>
   </g>
  </g>
 </g>
</svg>
