<?xml version="1.0" encoding="UTF-8" ?>
<!DOCTYPE svg PUBLIC "-//W3C//DTD SVG 1.1//EN" "http://www.w3.org/Graphics/SVG/1.1/DTD/svg11.dtd">
<svg width="142pt" height="142pt" viewBox="0 0 142 142" version="1.1" xmlns="http://www.w3.org/2000/svg">
<g id="#939598ff">
<path fill="#939598" opacity="1.00" d=" M 23.29 34.43 C 34.32 19.69 52.61 10.66 71.04 11.01 C 70.98 16.35 70.99 21.70 70.94 27.04 C 66.67 27.53 61.65 25.63 57.99 28.44 C 54.09 30.98 54.28 35.93 54.41 40.03 C 54.28 43.57 56.00 46.75 57.07 50.02 C 52.16 52.14 48.66 56.61 46.26 61.25 C 44.44 63.38 43.42 66.18 43.55 68.99 C 43.55 82.33 43.51 95.67 43.58 109.01 C 43.21 111.89 46.01 113.51 47.70 115.35 C 55.36 115.53 63.03 115.51 70.68 115.36 C 70.98 120.56 71.00 125.78 71.07 130.99 C 57.67 131.21 44.23 126.58 33.76 118.24 C 21.88 108.96 13.77 95.06 11.60 80.12 C 9.21 64.17 13.24 47.15 23.29 34.43 Z" />
</g>
<g id="#7f7f7fff">
<path fill="#7f7f7f" opacity="1.00" d=" M 71.04 11.01 C 93.44 10.49 115.22 24.18 124.91 44.29 C 114.06 49.80 103.61 56.08 92.60 61.25 C 92.93 60.73 93.59 59.70 93.92 59.19 C 90.70 54.69 86.50 50.49 80.98 49.08 C 81.50 47.35 84.05 45.22 82.07 43.64 C 83.03 42.61 84.33 41.57 84.11 39.98 C 84.13 36.68 84.27 33.38 84.12 30.09 C 84.04 28.70 82.50 28.10 81.58 27.30 C 78.06 26.88 74.48 27.31 70.94 27.04 C 70.99 21.70 70.98 16.35 71.04 11.01 Z" />
<path fill="#7f7f7f" opacity="1.00" d=" M 54.41 40.03 C 54.28 35.93 54.09 30.98 57.99 28.44 C 57.94 33.09 58.14 37.75 57.89 42.39 L 57.23 43.91 C 58.03 45.57 58.96 47.16 59.92 48.73 C 58.98 49.19 58.02 49.59 57.07 50.02 C 56.00 46.75 54.28 43.57 54.41 40.03 Z" />
<path fill="#7f7f7f" opacity="1.00" d=" M 128.12 47.18 C 128.30 49.45 127.94 51.79 128.67 54.00 C 132.56 67.36 131.73 82.10 126.19 94.89 C 117.22 116.48 94.51 131.54 71.07 130.99 C 71.00 125.78 70.98 120.56 70.68 115.36 C 76.94 115.52 83.20 115.49 89.45 115.47 C 92.50 115.00 95.38 112.46 94.88 109.11 C 95.31 108.28 95.77 107.46 96.19 106.62 C 97.11 105.26 97.42 103.65 97.33 102.03 C 97.30 91.13 97.35 80.22 97.25 69.31 C 106.48 62.66 117.59 59.21 127.15 53.10 C 127.38 51.94 127.58 50.77 127.81 49.61 C 127.92 48.80 128.03 47.99 128.12 47.18 Z" />
</g>
<g id="#e6e6e6ff">
<path fill="#e6e6e6" opacity="1.00" d=" M 57.99 28.44 C 61.65 25.63 66.67 27.53 70.94 27.04 C 74.48 27.31 78.06 26.88 81.58 27.30 C 82.50 28.10 84.04 28.70 84.12 30.09 C 84.27 33.38 84.13 36.68 84.11 39.98 C 84.33 41.57 83.03 42.61 82.07 43.64 C 81.55 43.73 80.49 43.91 79.97 43.99 C 78.22 44.02 76.48 43.96 74.74 44.01 C 73.49 44.04 72.25 44.06 71.00 44.07 C 69.66 44.05 68.33 44.02 66.99 43.99 C 65.00 43.97 63.01 44.09 61.02 44.15 C 59.80 43.90 58.76 43.32 57.89 42.39 C 58.14 37.75 57.94 33.09 57.99 28.44 M 62.43 32.76 C 62.45 34.83 62.43 36.90 62.43 38.97 C 65.23 39.34 68.07 39.09 70.90 39.14 C 73.64 39.16 76.38 39.17 79.12 39.13 C 79.16 36.97 79.17 34.81 79.16 32.65 C 73.60 32.55 67.94 32.05 62.43 32.76 Z" />
<path fill="#e6e6e6" opacity="1.00" d=" M 124.91 44.29 C 125.86 43.67 126.89 43.20 127.98 42.89 C 128.05 44.32 128.09 45.75 128.12 47.18 C 128.03 47.99 127.92 48.80 127.81 49.61 C 115.50 55.32 103.08 61.04 91.89 68.80 C 88.94 70.41 86.55 73.52 87.23 77.05 C 87.99 81.58 87.46 86.66 84.42 90.30 C 81.40 94.20 76.23 96.17 71.36 95.78 C 68.80 94.55 65.72 95.12 63.13 93.80 C 60.93 92.72 57.35 92.22 56.95 89.31 C 61.55 86.05 68.06 86.17 71.96 81.85 C 75.28 80.14 78.01 77.57 80.60 74.93 C 81.27 68.29 87.21 64.18 92.59 61.26 L 92.60 61.25 C 103.61 56.08 114.06 49.80 124.91 44.29 M 68.09 88.30 C 67.56 91.27 71.41 90.30 73.12 89.96 C 77.04 89.66 79.80 86.12 81.14 82.72 C 77.72 86.25 73.28 89.26 68.09 88.30 Z" />
</g>
<g id="#403f3fff">
<path fill="#403f3f" opacity="1.00" d=" M 62.43 32.76 C 67.94 32.05 73.60 32.55 79.16 32.65 C 76.47 32.83 73.78 32.93 71.09 33.09 C 71.01 35.11 70.94 37.12 70.90 39.14 C 68.07 39.09 65.23 39.34 62.43 38.97 C 62.43 36.90 62.45 34.83 62.43 32.76 Z" />
<path fill="#403f3f" opacity="1.00" d=" M 57.89 42.39 C 58.76 43.32 59.80 43.90 61.02 44.15 C 61.01 45.37 60.98 46.59 60.93 47.80 L 59.92 48.73 C 58.96 47.16 58.03 45.57 57.23 43.91 L 57.89 42.39 Z" />
<path fill="#403f3f" opacity="1.00" d=" M 66.99 43.99 C 68.33 44.02 69.66 44.05 71.00 44.07 C 71.09 51.38 70.78 58.71 71.21 66.01 C 66.40 65.98 61.60 66.00 56.80 66.00 C 59.37 61.71 63.34 58.60 67.91 56.67 C 68.26 55.49 67.40 53.56 65.93 53.97 C 59.13 56.18 53.80 62.18 52.22 69.17 C 58.56 69.07 64.91 69.37 71.23 68.99 C 71.15 73.25 70.13 77.81 71.96 81.85 C 68.06 86.17 61.55 86.05 56.95 89.31 C 57.35 92.22 60.93 92.72 63.13 93.80 C 65.72 95.12 68.80 94.55 71.36 95.78 C 71.14 97.65 71.01 99.54 70.90 101.43 C 66.25 101.24 61.59 101.64 56.96 101.17 C 54.55 99.64 57.89 93.26 53.48 94.26 C 52.36 97.92 52.02 104.06 57.04 104.86 C 61.71 104.99 66.38 104.94 71.05 104.84 C 71.02 105.45 70.96 106.69 70.93 107.31 C 65.01 106.98 59.08 107.47 53.16 107.01 C 52.08 105.96 51.03 104.88 50.03 103.76 C 49.87 92.50 50.02 81.24 49.95 69.98 C 49.91 61.62 56.65 53.98 64.92 52.91 C 68.59 51.71 66.45 46.84 66.99 43.99 Z" />
<path fill="#403f3f" opacity="1.00" d=" M 79.97 43.99 C 80.49 43.91 81.55 43.73 82.07 43.64 C 84.05 45.22 81.50 47.35 80.98 49.08 L 80.21 48.79 C 80.07 47.20 80.02 45.60 79.97 43.99 Z" />
<path fill="#403f3f" opacity="1.00" d=" M 91.89 68.80 C 103.08 61.04 115.50 55.32 127.81 49.61 C 127.58 50.77 127.38 51.94 127.15 53.10 C 117.59 59.21 106.48 62.66 97.25 69.31 C 97.35 80.22 97.30 91.13 97.33 102.03 C 97.42 103.65 97.11 105.26 96.19 106.62 C 96.82 94.08 96.26 81.50 96.49 68.94 C 94.96 68.91 93.42 68.87 91.89 68.80 Z" />
<path fill="#403f3f" opacity="1.00" d=" M 43.55 68.99 C 43.42 66.18 44.44 63.38 46.26 61.25 C 45.95 62.88 44.92 64.31 44.78 65.97 C 44.99 79.67 44.80 93.38 44.89 107.09 C 45.69 108.28 46.88 109.21 47.34 110.61 C 48.43 111.25 49.55 112.06 50.88 111.98 C 57.59 111.96 64.30 112.12 71.00 111.88 C 77.63 111.53 84.28 111.94 90.90 111.68 C 92.41 111.14 93.71 110.17 94.88 109.11 C 95.38 112.46 92.50 115.00 89.45 115.47 C 83.20 115.49 76.94 115.52 70.68 115.36 C 63.03 115.51 55.36 115.53 47.70 115.35 C 46.01 113.51 43.21 111.89 43.58 109.01 C 43.51 95.67 43.55 82.33 43.55 68.99 Z" />
</g>
<g id="#221e1fff">
<path fill="#221e1f" opacity="1.00" d=" M 71.09 33.09 C 73.78 32.93 76.47 32.83 79.16 32.65 C 79.17 34.81 79.16 36.97 79.12 39.13 C 76.38 39.17 73.64 39.16 70.90 39.14 C 70.94 37.12 71.01 35.11 71.09 33.09 Z" />
<path fill="#221e1f" opacity="1.00" d=" M 71.00 44.07 C 72.25 44.06 73.49 44.04 74.74 44.01 C 75.08 46.72 73.89 49.92 75.61 52.27 C 77.79 53.33 80.38 53.29 82.48 54.59 C 85.80 56.08 88.20 58.90 90.11 61.91 C 90.73 61.75 91.97 61.42 92.59 61.26 C 87.21 64.18 81.27 68.29 80.60 74.93 C 78.01 77.57 75.28 80.14 71.96 81.85 C 70.13 77.81 71.15 73.25 71.23 68.99 C 71.23 68.25 71.21 66.76 71.21 66.01 C 70.78 58.71 71.09 51.38 71.00 44.07 Z" />
<path fill="#221e1f" opacity="1.00" d=" M 87.23 77.05 C 86.55 73.52 88.94 70.41 91.89 68.80 C 92.12 79.90 91.95 91.00 91.99 102.10 C 92.05 105.20 89.02 107.70 86.00 107.47 C 80.98 107.45 75.94 107.68 70.93 107.31 C 70.96 106.69 71.02 105.45 71.05 104.84 C 75.60 104.57 80.17 104.94 84.71 104.66 C 86.16 104.35 86.14 101.89 84.71 101.55 C 80.11 101.34 75.50 101.62 70.90 101.43 C 71.01 99.54 71.14 97.65 71.36 95.78 C 76.23 96.17 81.40 94.20 84.42 90.30 C 87.46 86.66 87.99 81.58 87.23 77.05 Z" />
<path fill="#221e1f" opacity="1.00" d=" M 68.09 88.30 C 73.28 89.26 77.72 86.25 81.14 82.72 C 79.80 86.12 77.04 89.66 73.12 89.96 C 71.41 90.30 67.56 91.27 68.09 88.30 Z" />
</g>
<g id="#fa66beff">
<path fill="#fa66be" opacity="1.00" d=" M 61.02 44.15 C 63.01 44.09 65.00 43.97 66.99 43.99 C 66.45 46.84 68.59 51.71 64.92 52.91 C 56.65 53.98 49.91 61.62 49.95 69.98 C 50.02 81.24 49.87 92.50 50.03 103.76 C 51.03 104.88 52.08 105.96 53.16 107.01 C 59.08 107.47 65.01 106.98 70.93 107.31 C 70.95 108.83 70.98 110.35 71.00 111.88 C 64.30 112.12 57.59 111.96 50.88 111.98 C 49.55 112.06 48.43 111.25 47.34 110.61 C 46.88 109.21 45.69 108.28 44.89 107.09 C 44.80 93.38 44.99 79.67 44.78 65.97 C 44.92 64.31 45.95 62.88 46.26 61.25 C 48.66 56.61 52.16 52.14 57.07 50.02 C 58.02 49.59 58.98 49.19 59.92 48.73 L 60.93 47.80 C 60.98 46.59 61.01 45.37 61.02 44.15 Z" />
<path fill="#fa66be" opacity="1.00" d=" M 52.22 69.17 C 53.80 62.18 59.13 56.18 65.93 53.97 C 67.40 53.56 68.26 55.49 67.91 56.67 C 63.34 58.60 59.37 61.71 56.80 66.00 C 61.60 66.00 66.40 65.98 71.21 66.01 C 71.21 66.76 71.23 68.25 71.23 68.99 C 64.91 69.37 58.56 69.07 52.22 69.17 Z" />
<path fill="#fa66be" opacity="1.00" d=" M 53.48 94.26 C 57.89 93.26 54.55 99.64 56.96 101.17 C 61.54 102.22 66.32 101.36 70.98 101.65 C 70.99 102.45 71.03 104.04 71.05 104.84 C 66.38 104.94 61.71 104.99 57.04 104.86 C 52.02 104.06 52.36 97.92 53.48 94.26 Z" />
</g>
<g id="#ed008cff">
<path fill="#ed008c" opacity="1.00" d=" M 74.74 44.01 C 76.48 43.96 78.22 44.02 79.97 43.99 C 80.02 45.60 80.07 47.20 80.21 48.79 L 80.98 49.08 C 86.50 50.49 90.70 54.69 93.92 59.19 C 93.59 59.70 92.93 60.73 92.60 61.25 L 92.59 61.26 C 91.97 61.42 90.73 61.75 90.11 61.91 C 88.20 58.90 85.80 56.08 82.48 54.59 C 80.38 53.29 77.79 53.33 75.61 52.27 C 73.89 49.92 75.08 46.72 74.74 44.01 Z" />
<path fill="#ed008c" opacity="1.00" d=" M 91.89 68.80 C 93.42 68.87 94.96 68.91 96.49 68.94 C 96.26 81.50 96.82 94.08 96.19 106.62 C 95.77 107.46 95.31 108.28 94.88 109.11 C 93.71 110.17 92.41 111.14 90.90 111.68 C 84.28 111.94 77.63 111.53 71.00 111.88 C 70.98 110.35 70.95 108.83 70.93 107.31 C 75.94 107.68 80.98 107.45 86.00 107.47 C 89.02 107.70 92.05 105.20 91.99 102.10 C 91.95 91.00 92.12 79.90 91.89 68.80 Z" />
<path fill="#ed008c" opacity="1.00" d=" M 56.96 101.17 C 61.59 101.64 66.25 101.24 70.90 101.43 C 75.50 101.62 80.11 101.34 84.71 101.55 C 86.14 101.89 86.16 104.35 84.71 104.66 C 80.17 104.94 75.60 104.57 71.05 104.84 C 71.03 104.04 70.99 102.45 70.98 101.65 C 66.32 101.36 61.54 102.22 56.96 101.17 Z" />
</g>
</svg>
