<?xml version="1.0" encoding="UTF-8"?>
<!DOCTYPE svg PUBLIC "-//W3C//DTD SVG 1.1//EN" "http://www.w3.org/Graphics/SVG/1.1/DTD/svg11.dtd">
<!-- Creator: CorelDRAW 2017 -->
<svg xmlns="http://www.w3.org/2000/svg" xml:space="preserve" width="180px" height="190px" version="1.1" style="shape-rendering:geometricPrecision; text-rendering:geometricPrecision; image-rendering:optimizeQuality; fill-rule:evenodd; clip-rule:evenodd"
viewBox="0 0 4.24 4.47"
 xmlns:xlink="http://www.w3.org/1999/xlink">
 <defs>
  <style type="text/css">
   <![CDATA[
    .str0 {stroke:black;stroke-width:0.02;stroke-miterlimit:2.61313}
    .str1 {stroke:black;stroke-width:0.11;stroke-miterlimit:2.61313}
    .str2 {stroke:black;stroke-width:0.11;stroke-miterlimit:2.61313}
    .str3 {stroke:black;stroke-width:0.11;stroke-miterlimit:2.61313}
    .fil1 {fill:none}
    .fil0 {fill:black;fill-rule:nonzero}
   ]]>
  </style>
 </defs>
 <g id="Layer_x0020_1">
  <metadata id="CorelCorpID_0Corel-Layer"/>
  <g id="_831787392">
   <path class="fil0 str0" d="M3.64 0.71c0,0.49 -0.67,0.52 -0.67,0.04 0,-0.2 0.21,-0.27 0.27,-0.7 0.04,-0.2 0.4,0.46 0.4,0.66z"/>
   <g>
    <path class="fil0" d="M1.75 1.77l-1.19 0 0 -0.28 1.19 0 0 0 0 0.28zm0.53 0.26l-0.27 0 0 0 0 -0.02 -0.01 -0.01 0 -0.01 0 -0.02 0 -0.01 -0.01 -0.01 0 -0.01 0 -0.01 -0.01 -0.02 -0.01 -0.01 0 -0.01 -0.01 -0.01 -0.01 -0.01 0 -0.01 -0.01 -0.01 -0.01 -0.01 -0.01 -0.01 -0.01 0 -0.01 -0.01 -0.01 -0.01 -0.01 -0.01 -0.01 0 -0.01 -0.01 -0.01 0 -0.01 -0.01 -0.02 0 -0.01 0 -0.01 -0.01 -0.01 0 -0.02 0 -0.01 0 -0.01 0 0 -0.28 0.03 0.01 0.02 0 0.03 0 0.02 0.01 0.03 0 0.03 0.01 0.02 0.01 0.02 0.01 0.03 0.01 0.02 0.01 0.02 0.01 0.02 0.02 0.03 0.01 0.02 0.02 0.01 0.01 0.02 0.02 0.02 0.02 0.02 0.02 0.01 0.02 0.02 0.02 0.01 0.02 0.01 0.02 0.02 0.03 0.01 0.02 0.01 0.02 0 0.03 0.01 0.02 0.01 0.03 0 0.02 0.01 0.03 0 0.03 0 0.03 0 0zm-0.27 1.89l0 -1.89 0.27 0 0 1.89 0 0 -0.27 0zm-0.26 0.53l0 -0.27 0 0 0.01 0 0.01 0 0.02 0 0.01 0 0.01 -0.01 0.01 0 0.02 0 0.01 -0.01 0.01 0 0.01 -0.01 0.01 0 0.01 -0.01 0.01 -0.01 0.01 -0.01 0.01 0 0.01 -0.01 0.01 -0.01 0.01 -0.01 0 -0.01 0.01 -0.01 0.01 -0.01 0 -0.01 0.01 -0.01 0.01 -0.02 0 -0.01 0 -0.01 0.01 -0.01 0 -0.01 0 -0.02 0 -0.01 0.01 -0.01 0 -0.02 0.27 0 0 0.03 0 0.03 -0.01 0.02 0 0.03 -0.01 0.03 -0.01 0.02 0 0.03 -0.01 0.02 -0.01 0.02 -0.02 0.03 -0.01 0.02 -0.01 0.02 -0.02 0.02 -0.01 0.02 -0.02 0.02 -0.02 0.02 -0.02 0.02 -0.01 0.01 -0.02 0.02 -0.03 0.01 -0.02 0.02 -0.02 0.01 -0.02 0.01 -0.03 0.01 -0.02 0.01 -0.02 0.01 -0.03 0.01 -0.03 0 -0.02 0.01 -0.03 0 -0.02 0 -0.03 0 0 0zm-1.22 -0.27l1.22 0 0 0.27 -1.22 0 0 0 0 -0.27zm-0.53 -0.26l0.27 0 0 0 0 0.02 0 0.01 0.01 0.01 0 0.02 0 0.01 0 0.01 0.01 0.01 0 0.01 0.01 0.02 0 0.01 0.01 0.01 0.01 0.01 0 0.01 0.01 0.01 0.01 0.01 0.01 0.01 0.01 0.01 0.01 0 0.01 0.01 0.01 0.01 0.01 0.01 0.01 0 0.01 0.01 0.01 0 0.01 0.01 0.01 0 0.02 0 0.01 0.01 0.01 0 0.01 0 0.02 0 0.01 0 0 0.27 -0.03 0 -0.02 0 -0.03 0 -0.03 -0.01 -0.02 0 -0.03 -0.01 -0.02 -0.01 -0.03 -0.01 -0.02 -0.01 -0.02 -0.01 -0.02 -0.01 -0.03 -0.02 -0.02 -0.01 -0.02 -0.02 -0.02 -0.01 -0.01 -0.02 -0.02 -0.02 -0.02 -0.02 -0.01 -0.02 -0.02 -0.02 -0.01 -0.02 -0.02 -0.02 -0.01 -0.03 -0.01 -0.02 -0.01 -0.02 -0.01 -0.03 0 -0.02 -0.01 -0.03 0 -0.03 -0.01 -0.02 0 -0.03 0 -0.03 0 0zm0.27 -1.86l0 1.86 -0.27 0 0 -1.86 0 0 0.27 0zm0.29 -0.57l0 0.28 0 0 -0.01 0 -0.02 0 -0.01 0 -0.01 0 -0.02 0.01 -0.01 0 -0.02 0 -0.01 0.01 -0.01 0.01 -0.01 0 -0.02 0.01 -0.01 0.01 -0.01 0.01 -0.01 0 -0.01 0.01 -0.01 0.01 -0.01 0.01 -0.01 0.01 -0.01 0.01 -0.01 0.02 -0.01 0.01 0 0.01 -0.01 0.01 0 0.02 -0.01 0.01 0 0.01 -0.01 0.02 0 0.01 0 0.01 -0.01 0.02 0 0.01 0 0.02 -0.27 0 0 -0.03 0 -0.03 0.01 -0.03 0 -0.02 0.01 -0.03 0.01 -0.03 0 -0.02 0.01 -0.03 0.02 -0.03 0.01 -0.02 0.01 -0.02 0.02 -0.03 0.01 -0.02 0.02 -0.02 0.02 -0.02 0.02 -0.02 0.02 -0.02 0.02 -0.02 0.02 -0.01 0.02 -0.02 0.02 -0.01 0.03 -0.02 0.02 -0.01 0.02 -0.01 0.03 -0.01 0.03 -0.01 0.02 -0.01 0.03 0 0.03 -0.01 0.03 0 0.03 0 0.02 -0.01 0 0z"/>
   </g>
   <g>
    <path class="fil0" d="M1.61 0.83l-0.95 0 0 -0.27 0.95 0 0 0 0 0.27zm0.3 0.03l-0.27 0 0 0 0 0 0 0 0 0 0 0 0 -0.01 0 0 0 0 0 0 0 0 0 0 0 0 0 0 0 0 0 -0.01 0 0 -0.01 0 0 0 0 0 0 0 0 0 0 0 0 0 0 0 -0.01 0 0 0 0 0 0 0 0 -0.01 0 0 0 0 0 0 -0.01 0 0 -0.27 0.02 0 0.01 0 0.02 0.01 0.01 0 0.02 0 0.01 0.01 0.02 0 0.01 0.01 0.01 0 0.01 0.01 0.02 0.01 0.01 0 0.01 0.01 0.01 0.01 0.01 0.01 0.01 0.01 0.01 0.01 0.01 0.01 0.01 0.01 0.01 0.01 0.01 0.02 0 0.01 0.01 0.01 0.01 0.01 0 0.02 0.01 0.01 0 0.02 0 0.01 0.01 0.02 0 0.01 0 0.02 0 0.01 0 0zm-0.27 0.25l0 -0.25 0.27 0 0 0.25 0 0 -0.27 0zm-0.03 0.3l0 -0.27 0 0 0.01 0 0 0 0 0 0 0 0 0 0 0 0 0 0 0 0.01 0 0 0 0 0 0 0 0 -0.01 0 0 0 0 0 0 0.01 0 0 0 0 0 0 0 0 0 0 0 0 -0.01 0 0 0 0 0 0 0 0 0 0 0 0 0 0 0 -0.01 0 0 0.27 0 0 0.02 0 0.01 0 0.02 -0.01 0.01 0 0.02 0 0.01 -0.01 0.02 0 0.01 -0.01 0.01 -0.01 0.02 0 0.01 -0.01 0.01 -0.01 0.01 -0.01 0.01 -0.01 0.01 -0.01 0.02 -0.01 0.01 -0.01 0 -0.01 0.01 -0.01 0.01 -0.01 0.01 -0.02 0.01 -0.01 0 -0.01 0.01 -0.01 0 -0.02 0.01 -0.01 0 -0.02 0.01 -0.01 0 -0.02 0 -0.01 0 -0.02 0 0 0zm-0.95 -0.27l0.95 0 0 0.27 -0.95 0 0 0 0 -0.27zm-0.29 -0.03l0.27 0 0 0 0 0 0 0.01 0 0 0 0 0 0 0 0 0 0 0 0 0 0 0 0.01 0 0 0 0 0 0 0 0 0 0 0 0 0.01 0 0 0 0 0 0 0.01 0 0 0 0 0 0 0 0 0 0 0.01 0 0 0 0 0 0 0 0 0 0 0 0 0 0 0.27 -0.01 0 -0.02 0 -0.01 0 -0.01 0 -0.02 -0.01 -0.01 0 -0.02 -0.01 -0.01 0 -0.01 -0.01 -0.02 0 -0.01 -0.01 -0.01 -0.01 -0.01 -0.01 -0.01 -0.01 -0.01 0 -0.01 -0.01 -0.01 -0.02 -0.01 -0.01 -0.01 -0.01 -0.01 -0.01 -0.01 -0.01 -0.01 -0.01 0 -0.02 -0.01 -0.01 0 -0.01 -0.01 -0.02 0 -0.01 -0.01 -0.02 0 -0.01 0 -0.02 0 -0.01 0 -0.02 0 0zm0.27 -0.25l0 0.25 -0.27 0 0 -0.25 0 0 0.27 0zm0.02 -0.3l0 0.27 0 0 0 0 0 0 0 0 0 0 0 0.01 0 0 -0.01 0 0 0 0 0 0 0 0 0 0 0 0 0 0 0 0 0 -0.01 0 0 0 0 0 0 0.01 0 0 0 0 0 0 0 0 0 0 0 0 0 0 0 0 0 0.01 0 0 0 0 0 0 0 0 -0.27 0 0 -0.01 0 -0.02 0 -0.01 0 -0.02 0.01 -0.01 0 -0.02 0.01 -0.01 0 -0.02 0.01 -0.01 0 -0.01 0.01 -0.01 0.01 -0.02 0.01 -0.01 0.01 -0.01 0.01 -0.01 0.01 -0.01 0.01 -0.01 0.01 -0.01 0.01 -0.01 0.01 -0.01 0.01 0 0.01 -0.01 0.02 -0.01 0.01 0 0.01 -0.01 0.02 0 0.01 -0.01 0.02 0 0.01 0 0.01 -0.01 0.02 0 0.01 0 0 0z"/>
   </g>
   <g>
    <path class="fil0" d="M3.79 2.33l-0.94 0 0 -0.27 0.94 0 0 0 0 0.27zm0.45 0.18l-0.27 0 0 0 0 -0.01 -0.01 -0.01 0 -0.01 0 -0.01 0 0 0 -0.01 -0.01 -0.01 0 -0.01 0 -0.01 -0.01 0 0 -0.01 0 -0.01 -0.01 -0.01 0 0 -0.01 -0.01 -0.01 -0.01 0 0 -0.01 -0.01 -0.01 0 0 -0.01 -0.01 0 -0.01 -0.01 -0.01 0 0 0 -0.01 -0.01 -0.01 0 -0.01 0 -0.01 0 0 -0.01 -0.01 0 -0.01 0 -0.01 0 0 -0.27 0.02 0 0.02 0 0.03 0.01 0.02 0 0.02 0 0.02 0.01 0.02 0.01 0.02 0.01 0.02 0.01 0.02 0.01 0.02 0.01 0.02 0.01 0.02 0.01 0.01 0.01 0.02 0.02 0.02 0.01 0.01 0.02 0.02 0.01 0.01 0.02 0.01 0.02 0.01 0.02 0.01 0.02 0.01 0.02 0.01 0.02 0.01 0.02 0.01 0.02 0 0.02 0.01 0.02 0 0.02 0.01 0.02 0 0.03 0 0.02 0 0zm-0.27 1.51l0 -1.51 0.27 0 0 1.51 0 0 -0.27 0zm-0.18 0.45l0 -0.27 0 0 0.01 0 0.01 -0.01 0.01 0 0 0 0.01 0 0.01 0 0.01 -0.01 0.01 0 0 0 0.01 -0.01 0.01 0 0.01 0 0 -0.01 0.01 -0.01 0.01 0 0 -0.01 0.01 0 0.01 -0.01 0 -0.01 0.01 0 0 -0.01 0 -0.01 0.01 -0.01 0 0 0 -0.01 0.01 -0.01 0 -0.01 0 -0.01 0 0 0 -0.01 0.01 -0.01 0 -0.01 0.27 0 0 0.02 0 0.02 -0.01 0.03 0 0.02 -0.01 0.02 0 0.02 -0.01 0.02 -0.01 0.02 -0.01 0.02 -0.01 0.02 -0.01 0.02 -0.01 0.02 -0.01 0.02 -0.01 0.01 -0.02 0.02 -0.01 0.02 -0.02 0.01 -0.02 0.01 -0.01 0.02 -0.02 0.01 -0.02 0.01 -0.02 0.01 -0.02 0.01 -0.02 0.01 -0.02 0.01 -0.02 0.01 -0.02 0 -0.02 0.01 -0.02 0 -0.03 0.01 -0.02 0 -0.02 0 0 0zm-0.97 -0.27l0.97 0 0 0.27 -0.97 0 0 0 0 -0.27zm-0.45 -0.18l0.27 0 0 0 0 0.01 0.01 0.01 0 0.01 0 0 0 0.01 0 0.01 0.01 0.01 0 0.01 0 0 0.01 0.01 0 0.01 0.01 0.01 0 0 0.01 0.01 0 0.01 0.01 0 0 0.01 0.01 0 0.01 0.01 0 0.01 0.01 0 0.01 0 0.01 0.01 0 0 0.01 0 0.01 0.01 0.01 0 0.01 0 0 0 0.01 0 0.01 0.01 0.01 0 0 0.27 -0.02 0 -0.02 0 -0.03 -0.01 -0.02 0 -0.02 -0.01 -0.02 0 -0.02 -0.01 -0.02 -0.01 -0.02 -0.01 -0.02 -0.01 -0.02 -0.01 -0.02 -0.01 -0.02 -0.01 -0.01 -0.02 -0.02 -0.01 -0.02 -0.01 -0.01 -0.02 -0.01 -0.02 -0.02 -0.01 -0.01 -0.02 -0.01 -0.02 -0.01 -0.02 -0.01 -0.02 -0.01 -0.02 -0.01 -0.02 -0.01 -0.02 0 -0.02 -0.01 -0.02 0 -0.02 -0.01 -0.03 0 -0.02 0 -0.02 0 0zm0.27 -1.48l0 1.48 -0.27 0 0 -1.48 0 0 0.27 0zm0.21 -0.48l0 0.27 0 0 -0.01 0 -0.01 0 -0.01 0.01 -0.01 0 -0.01 0 -0.01 0 -0.01 0.01 -0.01 0 -0.01 0 -0.01 0.01 -0.01 0 0 0.01 -0.01 0 -0.01 0.01 -0.01 0.01 -0.01 0 0 0.01 -0.01 0.01 0 0.01 -0.01 0 -0.01 0.01 0 0.01 -0.01 0.01 0 0.01 0 0.01 -0.01 0.01 0 0.01 0 0.01 0 0.01 0 0.01 -0.01 0.01 0 0.01 -0.27 0 0 -0.03 0 -0.02 0.01 -0.03 0 -0.02 0.01 -0.02 0 -0.02 0.01 -0.03 0.01 -0.02 0.01 -0.02 0.01 -0.02 0.01 -0.02 0.01 -0.02 0.02 -0.02 0.01 -0.02 0.02 -0.01 0.01 -0.02 0.02 -0.02 0.02 -0.01 0.01 -0.01 0.02 -0.02 0.02 -0.01 0.02 -0.01 0.02 -0.01 0.02 -0.01 0.02 -0.01 0.03 -0.01 0.02 0 0.02 -0.01 0.03 0 0.02 -0.01 0.02 0 0.03 0 0 0z"/>
   </g>
   <g>
    <path class="fil0" d="M3.68 1.52l-0.75 0 0 -0.27 0.75 0 0 0 0 0.27zm0.27 0l-0.27 0 0 0 0 0 0 0 0 0 0 0 0 0 0 0 0 0 0 0 0 0 0 0 0 0 0 0 0 0 0 0 0 0 0 0 0 0 0 0 0 0 0 0 0 0 0 0 0 0 0 0 0 0 0 0 0 0 0 0 0 0 0 0 0 0 0 0 0 -0.27 0.02 0 0.01 0 0.01 0 0.01 0.01 0.02 0 0.01 0 0.01 0.01 0.01 0 0.02 0.01 0.01 0 0.01 0.01 0.01 0.01 0.01 0 0.01 0.01 0.01 0.01 0.01 0.01 0.01 0.01 0 0.01 0.01 0.01 0.01 0.01 0.01 0.01 0 0.01 0.01 0.01 0 0.01 0.01 0.01 0 0.02 0.01 0.01 0 0.01 0 0.02 0 0.01 0 0.01 0.01 0.02 0 0zm-0.27 0.2l0 -0.2 0.27 0 0 0.2 0 0 -0.27 0zm0 0.26l0 -0.27 0 0 0 0 0 0 0 0 0 0 0 0 0 0 0 0 0 0 0 0 0 0 0 0 0 0 0 0 0 0 0 0 0 0 0 0 0 0 0 0 0 0 0 0 0 0 0 0 0 0 0 0 0 0 0 0 0 0 0 0.01 0 0 0 0 0 0 0.27 0 -0.01 0.01 0 0.01 0 0.02 0 0.01 0 0.01 -0.01 0.02 0 0.01 -0.01 0.01 0 0.01 -0.01 0.01 0 0.01 -0.01 0.02 -0.01 0.01 -0.01 0.01 0 0.01 -0.01 0 -0.01 0.01 -0.01 0.01 -0.01 0.01 -0.01 0.01 -0.01 0 -0.01 0.01 -0.01 0.01 -0.02 0 -0.01 0.01 -0.01 0 -0.01 0 -0.02 0.01 -0.01 0 -0.01 0 -0.01 0 -0.02 0 0 0zm-0.75 -0.27l0.75 0 0 0.27 -0.75 0 0 0 0 -0.27zm-0.26 0.01l0.26 0 0 0 0 0 0 0 0 0 0 -0.01 0 0 0 0 0 0 0 0 0 0 0 0 0 0 0 0 0 0 0 0 0 0 0 0 0 0 0 0 0 0 0 0 0 0 0 0 0 0 0 0 0 0 0 0 0 0 0 0 0 0 0 0 0 0 0 0 0 0.27 -0.01 0 -0.02 0 -0.01 0 -0.01 0 -0.02 -0.01 -0.01 0 -0.01 0 -0.01 -0.01 -0.02 0 -0.01 -0.01 -0.01 -0.01 -0.01 0 -0.01 -0.01 -0.01 -0.01 -0.01 -0.01 -0.01 -0.01 -0.01 0 0 -0.01 -0.01 -0.01 -0.01 -0.01 -0.01 -0.02 0 -0.01 -0.01 -0.01 0 -0.01 -0.01 -0.01 0 -0.01 -0.01 -0.02 0 -0.01 0 -0.01 0 -0.02 0 -0.01 0 -0.01 0 0zm0.26 -0.2l0 0.2 -0.26 0 0 -0.2 0 0 0.26 0zm0 -0.27l0 0.27 0 0 0 0 0 0 0 0 0 0 0 0 0 0 0 0 0 0 0 0 0 0 0 0 0 0 0 0 0 0 0 0 0 0 0 0 0 0 0 0 0 0 0 0 0 0 0 0 0 0 0 0 0 0 0 0 0 0 0 0 0 0 0 0 0 0 -0.26 0 0 -0.02 0 -0.01 0 -0.01 0 -0.02 0 -0.01 0.01 -0.01 0 -0.02 0.01 -0.01 0 -0.01 0.01 -0.01 0 -0.01 0.01 -0.01 0.01 -0.01 0.01 -0.01 0 -0.01 0.01 -0.01 0.01 -0.01 0.01 -0.01 0.01 -0.01 0.01 0 0.01 -0.01 0.01 -0.01 0.01 0 0.02 -0.01 0.01 0 0.01 -0.01 0.01 0 0.02 0 0.01 -0.01 0.01 0 0.02 0 0.01 0 0 0z"/>
   </g>
   <line class="fil1 str1" x1="1" y1="2.6" x2="2.14" y2= "2.6" />
   <line class="fil1 str2" x1="1" y1="2.97" x2="2.14" y2= "2.97" />
   <line class="fil1 str3" x1="1" y1="3.35" x2="2.14" y2= "3.35" />
   <g>
    <polygon class="fil0" points="4.11,2.94 3.31,2.94 3.31,2.84 4.11,2.84 "/>
   </g>
   <g>
    <polygon class="fil0" points="4.11,3.32 3.31,3.32 3.31,3.21 4.11,3.21 "/>
   </g>
   <g>
    <polygon class="fil0" points="4.11,3.69 3.31,3.69 3.31,3.58 4.11,3.58 "/>
   </g>
  </g>
 </g>
</svg>
