<?xml version="1.0" encoding="UTF-8"?>
<!DOCTYPE svg PUBLIC "-//W3C//DTD SVG 1.1//EN" "http://www.w3.org/Graphics/SVG/1.1/DTD/svg11.dtd">
<!-- Creator: CorelDRAW 2017 -->
<svg xmlns="http://www.w3.org/2000/svg" xml:space="preserve" width="151px" height="218px" version="1.1" style="shape-rendering:geometricPrecision; text-rendering:geometricPrecision; image-rendering:optimizeQuality; fill-rule:evenodd; clip-rule:evenodd"
viewBox="0 0 4.73 6.83"
 xmlns:xlink="http://www.w3.org/1999/xlink">
 <defs>
  <style type="text/css">
   <![CDATA[
    .fil0 {fill:black;fill-rule:nonzero}
   ]]>
  </style>
 </defs>
 <g id="Layer_x0020_1">
  <metadata id="CorelCorpID_0Corel-Layer"/>
  <g id="_831759392">
   <path class="fil0" d="M2.36 0.14c0.15,0 0.27,0.12 0.27,0.27 0,0.05 -0.01,0.09 -0.04,0.13 -0.04,0.08 -0.13,0.13 -0.23,0.13 -0.09,0 -0.18,-0.05 -0.23,-0.13 -0.02,-0.04 -0.03,-0.08 -0.03,-0.13 0,-0.15 0.12,-0.27 0.26,-0.27zm-1.69 0.44l0.29 0.46c0.06,0.1 0.21,0.17 0.33,0.17l2.14 0c0.13,0 0.28,-0.07 0.34,-0.17l0.29 -0.46c0.02,-0.04 0.04,-0.08 0.04,-0.11 0.02,-0.11 -0.05,-0.19 -0.19,-0.19l-0.75 0c0.01,-0.02 0.01,-0.05 0.01,-0.07 0,-0.12 -0.08,-0.21 -0.18,-0.21l-1.25 0c-0.1,0 -0.19,0.09 -0.19,0.21 0,0.02 0.01,0.05 0.02,0.07l-0.75 0c-0.14,0 -0.21,0.08 -0.19,0.19 0,0.03 0.01,0.07 0.04,0.11z"/>
   <path class="fil0" d="M4.61 0.57l-0.1 0c-0.01,0.06 -0.04,0.13 -0.08,0.19l-0.32 0.51c-0.1,0.17 -0.34,0.3 -0.56,0.3l-2.37 0c-0.22,0 -0.46,-0.13 -0.56,-0.3l-0.32 -0.51c-0.04,-0.06 -0.07,-0.13 -0.08,-0.19l-0.1 0c-0.07,0 -0.12,0.05 -0.12,0.11l0 6.03c0,0.07 0.05,0.12 0.12,0.12l4.49 0c0.06,0 0.12,-0.05 0.12,-0.12l0 -6.03c0,-0.06 -0.06,-0.11 -0.12,-0.11zm-0.35 5.62c0,0.07 -0.06,0.13 -0.14,0.13l-3.52 0c-0.07,0 -0.13,-0.06 -0.13,-0.13l0 -3.97c0,-0.07 0.06,-0.13 0.13,-0.13l3.52 0c0.08,0 0.14,0.06 0.14,0.13l0 3.97z"/>
   <polygon class="fil0" points="4.26,5.5 3.28,5.5 3,4.91 2.7,5.58 2.52,5.11 2.2,5.96 1.73,4.62 1.42,5.5 0.47,5.5 0.47,5.61 1.57,5.61 1.73,5.17 2.19,6.5 2.52,5.62 2.69,6.05 3.01,5.34 3.13,5.61 4.26,5.61 "/>
   <path class="fil0" d="M3.14 3.47c-0.27,0 -0.48,0.22 -0.48,0.49 0,0.26 0.21,0.48 0.48,0.48 0.27,0 0.48,-0.22 0.48,-0.48 0,-0.27 -0.21,-0.49 -0.48,-0.49zm0.09 0.58l0 0.25 -0.18 0 0 -0.25 -0.25 0 0 -0.18 0.25 0 0 -0.26 0.18 0 0 0.26 0.25 0 0 0.18 -0.25 0z"/>
   <path class="fil0" d="M3.62 2.96c-0.02,-0.03 -0.03,-0.07 -0.05,-0.1 -0.1,-0.17 -0.23,-0.27 -0.37,-0.31 -0.08,-0.03 -0.17,-0.05 -0.26,-0.05 -0.24,0 -0.44,0.11 -0.58,0.28 0,0 0,0.01 0,0.01 0,0 0,-0.01 -0.01,-0.02 -0.13,-0.16 -0.34,-0.27 -0.57,-0.27 -0.39,0 -0.72,0.32 -0.72,0.72 0,0.06 0.01,0.12 0.02,0.17 0,0 0,0.01 0.01,0.01 0,0 0,0 0,0.01 0.13,0.53 0.8,0.97 0.91,1.05 0.14,0.1 0.36,0.23 0.36,0.23 0,0 0.15,-0.08 0.36,-0.24 0.01,-0.01 0.04,-0.03 0.07,-0.05 -0.13,-0.11 -0.21,-0.27 -0.21,-0.44 0,-0.31 0.25,-0.56 0.56,-0.56 0.17,0 0.32,0.07 0.42,0.19 0.01,-0.02 0.02,-0.03 0.02,-0.05 0.02,-0.04 0.04,-0.09 0.05,-0.13 0.04,-0.15 0.05,-0.3 -0.01,-0.45zm-1.85 -0.24c-0.26,0.01 -0.48,0.24 -0.49,0.49 0,0.02 -0.03,0.04 -0.06,0.04 -0.03,0 -0.05,-0.02 -0.05,-0.05 0.02,-0.3 0.28,-0.57 0.59,-0.58 0.03,-0.01 0.05,0.02 0.05,0.05 0,0.03 -0.02,0.05 -0.04,0.05z"/>
  </g>
 </g>
</svg>
