<?xml version="1.0" encoding="UTF-8"?>
<!DOCTYPE svg PUBLIC "-//W3C//DTD SVG 1.1//EN" "http://www.w3.org/Graphics/SVG/1.1/DTD/svg11.dtd">
<!-- Creator: CorelDRAW 2017 -->
<svg xmlns="http://www.w3.org/2000/svg" xml:space="preserve" width="336px" height="336px" version="1.1" style="shape-rendering:geometricPrecision; text-rendering:geometricPrecision; image-rendering:optimizeQuality; fill-rule:evenodd; clip-rule:evenodd"
viewBox="0 0 25.45 25.45"
 xmlns:xlink="http://www.w3.org/1999/xlink">
 <defs>
  <style type="text/css">
   <![CDATA[
    .str0 {stroke:#666666;stroke-width:0.69;stroke-miterlimit:2.61313}
    .fil1 {fill:none}
    .fil3 {fill:#4D4D4D;fill-rule:nonzero}
    .fil0 {fill:url(#id0)}
    .fil2 {fill:url(#id1);fill-rule:nonzero}
   ]]>
  </style>
  <linearGradient id="id0" gradientUnits="userSpaceOnUse" x1="12.72" y1="0.51" x2="12.72" y2="24.56">
   <stop offset="0" style="stop-opacity:1; stop-color:#CCCACB"/>
   <stop offset="1" style="stop-opacity:1; stop-color:white"/>
  </linearGradient>
  <linearGradient id="id1" gradientUnits="userSpaceOnUse" x1="13.05" y1="24.74" x2="12.4" y2="0.7">
   <stop offset="0" style="stop-opacity:1; stop-color:#A2A1A6"/>
   <stop offset="1" style="stop-opacity:1; stop-color:white"/>
  </linearGradient>
 </defs>
 <g id="Layer_x0020_1">
  <metadata id="CorelCorpID_0Corel-Layer"/>
  <g id="_964813328">
   <circle class="fil0" cx="12.72" cy="12.54" r="12.02"/>
   <circle class="fil1 str0" cx="12.72" cy="12.72" r="12.38"/>
   <path class="fil2" d="M12.72 0.7c3.32,0 6.33,1.35 8.51,3.52 2.17,2.18 3.52,5.18 3.52,8.5 0,3.32 -1.35,6.33 -3.52,8.51 -2.18,2.17 -5.19,3.52 -8.51,3.52 -3.32,0 -6.32,-1.35 -8.5,-3.52 -2.17,-2.18 -3.52,-5.19 -3.52,-8.51 0,-3.32 1.35,-6.32 3.52,-8.5 2.18,-2.17 5.18,-3.52 8.5,-3.52zm7.96 4.07c-2.04,-2.04 -4.85,-3.3 -7.96,-3.3 -3.1,0 -5.92,1.26 -7.95,3.3 -2.04,2.03 -3.3,4.85 -3.3,7.95 0,3.11 1.26,5.92 3.3,7.96 2.03,2.04 4.85,3.3 7.95,3.3 3.11,0 5.92,-1.26 7.96,-3.3 2.04,-2.04 3.3,-4.85 3.3,-7.96 0,-3.1 -1.26,-5.92 -3.3,-7.95z"/>
   <path class="fil3" d="M12.72 4.3c0.36,0 0.64,0.29 0.64,0.64 0,0.12 -0.03,0.23 -0.09,0.33 -0.11,0.19 -0.31,0.31 -0.55,0.31 -0.23,0 -0.44,-0.12 -0.55,-0.31 -0.06,-0.1 -0.09,-0.21 -0.09,-0.33 0,-0.35 0.29,-0.64 0.64,-0.64zm-4.08 1.06l0.69 1.11c0.15,0.24 0.51,0.41 0.82,0.41l5.15 0c0.31,0 0.67,-0.17 0.82,-0.41l0.69 -1.11c0.06,-0.1 0.09,-0.19 0.11,-0.28 0.03,-0.25 -0.14,-0.45 -0.47,-0.45l-1.8 0c0.01,-0.05 0.03,-0.11 0.03,-0.17 0,-0.28 -0.21,-0.5 -0.46,-0.5l-3 0c-0.25,0 -0.45,0.22 -0.45,0.5 0,0.06 0.01,0.12 0.03,0.17l-1.8 0c-0.34,0 -0.51,0.2 -0.47,0.45 0.01,0.09 0.05,0.18 0.11,0.28z"/>
   <path class="fil3" d="M18.14 5.32l-0.25 0c-0.03,0.16 -0.09,0.31 -0.18,0.47l-0.77 1.23c-0.26,0.41 -0.83,0.71 -1.35,0.71l-5.73 0c-0.53,0 -1.1,-0.3 -1.35,-0.71l-0.77 -1.23c-0.09,-0.16 -0.16,-0.31 -0.18,-0.47l-0.25 0c-0.16,0 -0.29,0.13 -0.29,0.29l0 14.54c0,0.15 0.13,0.28 0.29,0.28l10.83 0c0.15,0 0.28,-0.13 0.28,-0.28l0 -14.54c0,-0.16 -0.13,-0.29 -0.28,-0.29zm-0.85 13.56c0,0.18 -0.14,0.33 -0.33,0.33l-8.48 0c-0.18,0 -0.33,-0.15 -0.33,-0.33l0 -9.56c0,-0.18 0.15,-0.33 0.33,-0.33l8.48 0c0.19,0 0.33,0.15 0.33,0.33l0 9.56z"/>
   <polygon class="fil3" points="17.29,17.22 14.93,17.22 14.26,15.8 13.54,17.41 13.1,16.28 12.33,18.33 11.19,15.1 10.44,17.22 8.15,17.22 8.15,17.49 10.82,17.49 11.19,16.43 12.31,19.62 13.11,17.51 13.51,18.54 14.27,16.84 14.58,17.49 17.29,17.49 "/>
   <path class="fil3" d="M14.59 12.33c-0.64,0 -1.16,0.52 -1.16,1.17 0,0.64 0.52,1.16 1.16,1.16 0.65,0 1.17,-0.52 1.17,-1.16 0,-0.65 -0.52,-1.17 -1.17,-1.17zm0.22 1.38l0 0.61 -0.43 0 0 -0.61 -0.61 0 0 -0.43 0.61 0 0 -0.61 0.43 0 0 0.61 0.61 0 0 0.43 -0.61 0z"/>
   <path class="fil3" d="M15.74 11.08c-0.03,-0.07 -0.07,-0.15 -0.11,-0.22 -0.24,-0.42 -0.55,-0.65 -0.89,-0.75 -0.2,-0.08 -0.41,-0.12 -0.64,-0.12 -0.56,0 -1.06,0.27 -1.38,0.68 0,0 0,0 0,0 0,0 -0.01,-0.01 -0.03,-0.02 -0.32,-0.4 -0.81,-0.66 -1.36,-0.66 -0.96,0 -1.74,0.78 -1.74,1.74 0,0.14 0.02,0.27 0.05,0.4 0,0.01 0,0.01 0,0.02 0,0.01 0,0.01 0.01,0.02 0.31,1.28 1.93,2.34 2.19,2.53 0.35,0.25 0.89,0.56 0.89,0.56 0,0 0.35,-0.2 0.85,-0.58 0.03,-0.02 0.1,-0.07 0.18,-0.13 -0.31,-0.24 -0.52,-0.62 -0.52,-1.05 0,-0.75 0.61,-1.35 1.35,-1.35 0.41,0 0.77,0.18 1.02,0.46 0.02,-0.04 0.04,-0.08 0.06,-0.12 0.04,-0.1 0.08,-0.2 0.11,-0.31 0.1,-0.36 0.11,-0.73 -0.04,-1.1zm-4.45 -0.56c-0.62,0.03 -1.15,0.57 -1.18,1.18 0,0.05 -0.06,0.09 -0.14,0.09 -0.07,0 -0.12,-0.05 -0.12,-0.11 0.04,-0.74 0.68,-1.38 1.42,-1.42 0.06,0 0.11,0.06 0.11,0.13 0,0.07 -0.04,0.13 -0.09,0.13z"/>
  </g>
 </g>
</svg>
