<?xml version="1.0" encoding="UTF-8" ?>
<!DOCTYPE svg PUBLIC "-//W3C//DTD SVG 1.1//EN" "http://www.w3.org/Graphics/SVG/1.1/DTD/svg11.dtd">
<svg width="142pt" height="142pt" viewBox="0 0 142 142" version="1.1" xmlns="http://www.w3.org/2000/svg">
<g id="#939598ff">
<path fill="#939598" opacity="1.00" d=" M 23.27 34.40 C 34.36 19.68 52.59 10.72 71.03 10.96 C 70.97 18.96 71.02 26.97 71.00 34.98 C 63.22 34.95 55.21 33.76 47.61 35.81 C 41.64 35.61 39.66 42.14 39.61 47.00 C 39.49 63.33 39.67 79.66 39.54 95.99 C 39.26 101.01 42.52 106.08 47.01 108.15 C 54.90 108.88 62.86 108.19 70.78 108.39 C 71.28 115.93 70.84 123.49 71.06 131.04 C 55.31 131.18 39.55 124.83 28.53 113.55 C 20.60 105.80 15.02 95.72 12.54 84.92 C 8.42 67.62 12.27 48.46 23.27 34.40 Z" />
</g>
<g id="#7f7f7fff">
<path fill="#7f7f7f" opacity="1.00" d=" M 71.03 10.96 C 86.78 10.81 102.52 17.21 113.54 28.49 C 124.80 39.51 131.21 55.25 131.03 70.99 C 131.22 86.74 124.79 102.50 113.51 113.53 C 102.51 124.79 86.78 131.18 71.06 131.04 C 70.84 123.49 71.28 115.93 70.78 108.39 C 62.86 108.19 54.90 108.88 47.01 108.15 C 42.52 106.08 39.26 101.01 39.54 95.99 C 39.67 79.66 39.49 63.33 39.61 47.00 C 39.66 42.14 41.64 35.61 47.61 35.81 C 46.89 36.91 46.17 38.00 45.40 39.06 C 43.72 40.61 42.14 42.46 42.47 44.93 C 42.43 62.95 42.45 80.97 42.46 99.00 C 42.20 101.76 44.33 104.12 46.62 105.34 C 53.72 106.05 60.90 105.12 68.02 105.73 C 76.75 107.19 85.64 106.20 94.45 106.46 C 95.51 105.36 96.56 104.27 97.58 103.14 C 99.29 101.13 101.33 98.93 101.01 96.07 C 100.99 84.05 101.01 72.04 100.99 60.02 C 94.87 59.70 88.64 60.71 82.62 59.44 C 85.43 59.62 88.30 59.82 91.09 59.30 C 91.88 58.29 92.57 57.21 93.14 56.05 C 95.03 56.02 96.92 56.00 98.81 55.98 C 91.74 49.68 85.58 42.38 78.15 36.50 C 78.07 38.15 77.99 39.80 77.95 41.45 C 77.23 41.45 75.78 41.45 75.06 41.46 C 75.03 39.31 74.99 37.16 74.96 35.01 C 73.64 35.00 72.32 34.99 71.00 34.98 C 71.02 26.97 70.97 18.96 71.03 10.96 Z" />
</g>
<g id="#f6e09dff">
<path fill="#f6e09d" opacity="1.00" d=" M 47.61 35.81 C 55.21 33.76 63.22 34.95 71.00 34.98 C 71.00 43.86 71.00 52.74 70.98 61.63 C 69.49 59.70 68.02 57.75 66.55 55.80 C 63.14 58.32 59.65 60.76 56.40 63.50 C 63.01 72.22 68.66 81.65 75.40 90.27 C 78.86 87.99 82.26 85.62 85.62 83.18 C 80.80 76.09 75.76 69.15 71.18 61.89 C 74.73 64.04 76.19 68.12 78.58 71.31 C 81.16 75.49 84.86 79.03 86.33 83.83 C 82.88 86.19 79.76 89.19 75.83 90.75 C 73.69 90.86 72.92 88.26 71.50 87.13 C 70.48 92.36 71.18 97.71 71.01 103.00 C 64.30 102.96 57.59 103.09 50.88 102.98 C 46.88 103.12 44.79 98.52 45.01 95.06 C 45.02 80.37 45.02 65.68 45.02 51.00 C 45.02 47.02 44.71 43.00 45.40 39.06 C 46.17 38.00 46.89 36.91 47.61 35.81 M 50.82 55.19 C 52.12 57.30 53.53 59.34 54.99 61.35 C 58.57 59.06 62.13 56.72 65.46 54.08 C 64.06 51.97 62.61 49.89 61.15 47.83 C 57.79 50.41 54.23 52.69 50.82 55.19 Z" />
<path fill="#f6e09d" opacity="1.00" d=" M 78.32 91.59 C 81.68 90.06 84.06 86.83 87.71 85.95 C 87.92 89.62 87.92 93.30 87.75 96.97 C 84.52 96.61 81.46 95.47 78.46 94.26 C 78.41 93.37 78.37 92.48 78.32 91.59 M 78.63 92.44 C 80.73 94.89 84.22 95.16 87.09 96.25 C 87.14 93.05 87.11 89.85 87.09 86.65 C 84.37 88.72 81.75 90.98 78.63 92.44 Z" />
</g>
<g id="#ebc44eff">
<path fill="#ebc44e" opacity="1.00" d=" M 71.00 34.98 C 72.32 34.99 73.64 35.00 74.96 35.01 C 74.99 37.16 75.03 39.31 75.06 41.46 C 75.26 45.76 74.41 50.41 76.61 54.36 C 77.71 56.88 80.15 58.46 82.62 59.44 C 88.64 60.71 94.87 59.70 100.99 60.02 C 101.01 72.04 100.99 84.05 101.01 96.07 C 101.33 98.93 99.29 101.13 97.58 103.14 C 88.73 102.86 79.86 103.05 71.01 103.00 C 71.18 97.71 70.48 92.36 71.50 87.13 C 72.92 88.26 73.69 90.86 75.83 90.75 C 79.76 89.19 82.88 86.19 86.33 83.83 C 84.86 79.03 81.16 75.49 78.58 71.31 C 76.19 68.12 74.73 64.04 71.18 61.89 C 71.13 61.83 71.03 61.69 70.98 61.63 C 71.00 52.74 71.00 43.86 71.00 34.98 M 78.32 91.59 C 78.37 92.48 78.41 93.37 78.46 94.26 C 81.46 95.47 84.52 96.61 87.75 96.97 C 87.92 93.30 87.92 89.62 87.71 85.95 C 84.06 86.83 81.68 90.06 78.32 91.59 Z" />
<path fill="#ebc44e" opacity="1.00" d=" M 78.15 36.50 C 85.58 42.38 91.74 49.68 98.81 55.98 C 96.92 56.00 95.03 56.02 93.14 56.05 C 88.90 55.53 83.42 57.54 80.24 53.76 C 76.94 50.55 78.18 45.55 77.95 41.45 C 77.99 39.80 78.07 38.15 78.15 36.50 Z" />
</g>
<g id="#333131ff">
<path fill="#333131" opacity="1.00" d=" M 42.47 44.93 C 42.14 42.46 43.72 40.61 45.40 39.06 C 44.71 43.00 45.02 47.02 45.02 51.00 C 45.02 65.68 45.02 80.37 45.01 95.06 C 44.79 98.52 46.88 103.12 50.88 102.98 C 57.59 103.09 64.30 102.96 71.01 103.00 C 79.86 103.05 88.73 102.86 97.58 103.14 C 96.56 104.27 95.51 105.36 94.45 106.46 C 85.64 106.20 76.75 107.19 68.02 105.73 C 60.90 105.12 53.72 106.05 46.62 105.34 C 44.33 104.12 42.20 101.76 42.46 99.00 C 42.45 80.97 42.43 62.95 42.47 44.93 Z" />
<path fill="#333131" opacity="1.00" d=" M 75.06 41.46 C 75.78 41.45 77.23 41.45 77.95 41.45 C 78.18 45.55 76.94 50.55 80.24 53.76 C 83.42 57.54 88.90 55.53 93.14 56.05 C 92.57 57.21 91.88 58.29 91.09 59.30 C 88.30 59.82 85.43 59.62 82.62 59.44 C 80.15 58.46 77.71 56.88 76.61 54.36 C 74.41 50.41 75.26 45.76 75.06 41.46 Z" />
<path fill="#333131" opacity="1.00" d=" M 50.82 55.19 C 54.23 52.69 57.79 50.41 61.15 47.83 C 62.61 49.89 64.06 51.97 65.46 54.08 C 62.13 56.72 58.57 59.06 54.99 61.35 C 53.53 59.34 52.12 57.30 50.82 55.19 Z" />
<path fill="#333131" opacity="1.00" d=" M 56.40 63.50 C 59.65 60.76 63.14 58.32 66.55 55.80 C 68.02 57.75 69.49 59.70 70.98 61.63 C 71.03 61.69 71.13 61.83 71.18 61.89 C 75.76 69.15 80.80 76.09 85.62 83.18 C 82.26 85.62 78.86 87.99 75.40 90.27 C 68.66 81.65 63.01 72.22 56.40 63.50 Z" />
<path fill="#333131" opacity="1.00" d=" M 78.63 92.44 C 81.75 90.98 84.37 88.72 87.09 86.65 C 87.11 89.85 87.14 93.05 87.09 96.25 C 84.22 95.16 80.73 94.89 78.63 92.44 Z" />
</g>
</svg>
