<?xml version="1.0" encoding="UTF-8"?>
<!DOCTYPE svg PUBLIC "-//W3C//DTD SVG 1.1//EN" "http://www.w3.org/Graphics/SVG/1.1/DTD/svg11.dtd">
<!-- Creator: CorelDRAW 2017 -->
<svg xmlns="http://www.w3.org/2000/svg" xml:space="preserve" width="336px" height="336px" version="1.1" style="shape-rendering:geometricPrecision; text-rendering:geometricPrecision; image-rendering:optimizeQuality; fill-rule:evenodd; clip-rule:evenodd"
viewBox="0 0 8.82 8.82"
 xmlns:xlink="http://www.w3.org/1999/xlink">
 <defs>
  <style type="text/css">
   <![CDATA[
    .str1 {stroke:#4D4D4D;stroke-width:0.39;stroke-miterlimit:2.61313}
    .str0 {stroke:#666666;stroke-width:0.24;stroke-miterlimit:2.61313}
    .fil1 {fill:none}
    .fil3 {fill:#4D4D4D;fill-rule:nonzero}
    .fil0 {fill:url(#id0)}
    .fil2 {fill:url(#id1);fill-rule:nonzero}
   ]]>
  </style>
  <linearGradient id="id0" gradientUnits="userSpaceOnUse" x1="4.41" y1="0.05" x2="4.41" y2="8.63">
   <stop offset="0" style="stop-opacity:1; stop-color:#CCCACB"/>
   <stop offset="1" style="stop-opacity:1; stop-color:white"/>
  </linearGradient>
  <linearGradient id="id1" gradientUnits="userSpaceOnUse" x1="4.52" y1="8.57" x2="4.3" y2="0.24">
   <stop offset="0" style="stop-opacity:1; stop-color:#A2A1A6"/>
   <stop offset="1" style="stop-opacity:1; stop-color:white"/>
  </linearGradient>
 </defs>
 <g id="Layer_x0020_1">
  <metadata id="CorelCorpID_0Corel-Layer"/>
  <g id="_952705664">
   <circle class="fil0" cx="4.41" cy="4.34" r="4.29"/>
   <circle class="fil1 str0" cx="4.41" cy="4.41" r="4.29"/>
   <path class="fil2" d="M4.41 0.24c1.15,0 2.19,0.47 2.95,1.22 0.75,0.76 1.22,1.8 1.22,2.95 0,1.15 -0.47,2.19 -1.22,2.95 -0.76,0.75 -1.8,1.22 -2.95,1.22 -1.15,0 -2.19,-0.47 -2.95,-1.22 -0.75,-0.76 -1.22,-1.8 -1.22,-2.95 0,-1.15 0.47,-2.19 1.22,-2.95 0.76,-0.75 1.8,-1.22 2.95,-1.22zm2.76 1.41c-0.71,-0.7 -1.68,-1.14 -2.76,-1.14 -1.08,0 -2.05,0.44 -2.76,1.14 -0.7,0.71 -1.14,1.68 -1.14,2.76 0,1.08 0.44,2.05 1.14,2.76 0.71,0.7 1.68,1.14 2.76,1.14 1.08,0 2.05,-0.44 2.76,-1.14 0.7,-0.71 1.14,-1.68 1.14,-2.76 0,-1.08 -0.44,-2.05 -1.14,-2.76z"/>
   <path class="fil1 str1" d="M4.41 6.36c-0.28,0.26 -0.66,0.42 -1.07,0.42 -0.87,0 -1.58,-0.71 -1.58,-1.58 0,-0.69 0.44,-1.27 1.05,-1.49 0,-0.03 0,-0.06 0,-0.09 0,-0.87 0.7,-1.58 1.57,-1.58 0.88,0 1.58,0.71 1.58,1.58 0,0.03 0,0.05 0,0.07 0.64,0.21 1.1,0.8 1.1,1.51 0,0.87 -0.71,1.58 -1.58,1.58 -0.41,0 -0.79,-0.16 -1.07,-0.42z"/>
   <path class="fil3" d="M3.3 4.84l0 -1.63 0.69 0c0.18,0 0.3,0.01 0.38,0.04 0.08,0.03 0.15,0.08 0.19,0.16 0.05,0.07 0.07,0.16 0.07,0.26 0,0.12 -0.03,0.22 -0.1,0.3 -0.08,0.08 -0.18,0.13 -0.33,0.15 0.08,0.04 0.13,0.09 0.18,0.14 0.05,0.05 0.11,0.14 0.19,0.26l0.15 0.24 0.31 -0.47 0.39 0 -0.51 0.78 0.56 0.85 -0.4 0 -0.36 -0.55 -0.36 0.55 -0.4 0 0.57 -0.85 -0.35 -0.53 -0.03 -0.06c-0.09,-0.12 -0.15,-0.2 -0.18,-0.23 -0.03,-0.04 -0.06,-0.06 -0.1,-0.07 -0.03,-0.01 -0.09,-0.02 -0.16,-0.02l-0.07 0 0 0.68 -0.33 0zm0.33 -0.94l0.24 0c0.16,0 0.26,-0.01 0.3,-0.02 0.04,-0.01 0.07,-0.04 0.09,-0.07 0.02,-0.03 0.03,-0.07 0.03,-0.12 0,-0.06 -0.01,-0.1 -0.04,-0.14 -0.03,-0.03 -0.07,-0.05 -0.12,-0.06 -0.03,0 -0.11,-0.01 -0.24,-0.01l-0.26 0 0 0.42z"/>
  </g>
 </g>
</svg>
