<?xml version="1.0" encoding="UTF-8" ?>
<!DOCTYPE svg PUBLIC "-//W3C//DTD SVG 1.1//EN" "http://www.w3.org/Graphics/SVG/1.1/DTD/svg11.dtd">
<svg width="142pt" height="142pt" viewBox="0 0 142 142" version="1.1" xmlns="http://www.w3.org/2000/svg">
<g id="#939598ff">
<path fill="#939598" opacity="1.00" d=" M 23.83 33.75 C 34.95 19.44 52.91 10.80 71.03 10.95 C 71.00 17.31 70.97 23.67 71.03 30.03 C 64.67 30.24 58.53 32.88 54.26 37.65 C 45.70 44.78 48.19 58.75 56.18 65.31 C 49.42 63.99 42.01 65.32 36.56 69.66 C 33.36 72.23 30.08 75.77 30.69 80.22 C 30.22 81.41 29.74 82.59 29.25 83.77 C 29.18 81.22 29.21 78.67 29.34 76.12 C 26.40 81.98 25.04 89.00 27.55 95.25 C 29.55 99.41 33.01 102.74 36.82 105.27 C 47.64 111.82 64.54 105.08 66.08 91.98 C 64.75 93.65 63.73 95.52 62.51 97.26 C 63.71 95.07 64.04 92.59 64.37 90.16 L 65.65 91.56 C 65.80 90.58 66.11 88.62 66.27 87.64 C 66.33 88.07 66.46 88.94 66.52 89.37 C 67.17 95.81 71.39 101.38 71.09 107.97 C 71.02 115.66 70.95 123.36 71.02 131.05 C 55.48 131.16 40.07 124.86 28.97 114.00 C 17.56 102.84 10.76 86.99 11.00 70.98 C 10.81 57.58 15.56 44.26 23.83 33.75 Z" />
</g>
<g id="#7f7f7fff">
<path fill="#7f7f7f" opacity="1.00" d=" M 71.03 10.95 C 87.03 10.82 102.89 17.53 114.04 28.99 C 124.84 40.07 131.25 55.46 131.00 70.98 C 131.27 87.22 124.26 103.30 112.55 114.49 C 101.50 125.05 86.33 131.17 71.02 131.05 C 70.95 123.36 71.02 115.66 71.09 107.97 C 71.39 101.38 67.17 95.81 66.52 89.37 C 66.46 88.94 66.33 88.07 66.27 87.64 C 65.96 83.46 65.24 78.93 62.07 75.89 C 55.97 69.45 44.32 69.86 38.80 76.86 C 34.90 81.28 34.08 88.51 37.68 93.35 C 41.16 97.63 47.73 99.62 52.72 96.76 C 59.09 94.18 62.14 84.37 56.37 79.68 C 51.35 75.25 41.87 79.01 42.26 86.03 C 41.63 90.00 46.48 92.84 49.83 90.96 C 52.26 89.83 52.27 86.81 53.00 84.59 C 51.91 84.54 50.82 84.48 49.74 84.43 C 49.22 85.63 48.70 86.84 48.18 88.04 C 47.42 87.80 45.90 87.31 45.14 87.07 C 46.43 84.67 47.46 80.67 51.01 81.29 C 56.55 81.50 56.86 89.34 53.25 92.25 C 48.87 96.88 40.27 93.93 39.31 87.75 C 37.56 79.58 47.08 72.08 54.65 75.30 C 61.05 77.53 64.32 85.47 61.49 91.62 C 58.46 100.26 46.85 103.91 39.37 98.63 C 31.51 94.06 30.29 82.59 35.72 75.69 C 40.35 69.06 49.39 66.75 56.95 68.98 C 62.25 71.03 65.94 75.61 69.47 79.85 C 68.31 85.70 68.57 92.05 71.76 97.26 C 76.66 104.89 86.88 108.28 95.47 105.61 C 100.56 103.99 105.63 101.17 108.47 96.48 C 110.95 92.42 112.24 87.46 111.31 82.73 C 110.12 76.91 105.79 71.79 100.13 69.89 C 90.89 66.70 78.87 71.28 75.91 81.07 C 73.10 87.79 77.30 95.57 83.52 98.62 C 90.92 101.59 101.07 98.89 104.07 90.94 C 107.62 84.09 101.42 75.12 93.89 75.34 C 88.46 74.90 82.72 78.45 81.79 84.04 C 80.85 89.19 85.87 94.23 91.03 93.48 C 95.07 93.53 99.30 89.34 97.81 85.23 C 96.87 82.31 93.44 82.06 91.00 81.16 C 90.48 81.70 89.45 82.77 88.93 83.31 C 88.85 84.06 88.70 85.58 88.62 86.34 C 90.70 86.49 92.77 86.66 94.84 86.88 C 92.56 88.24 89.98 88.87 87.34 88.32 C 86.82 87.08 86.29 85.83 85.75 84.59 C 87.32 82.98 88.61 80.52 91.11 80.37 C 93.92 80.03 97.49 80.03 99.12 82.80 C 102.23 86.61 99.49 92.70 95.12 94.12 C 89.77 95.96 82.12 94.96 80.15 88.82 C 77.62 81.50 84.12 74.34 91.21 73.51 C 98.66 71.94 107.71 77.79 106.86 85.98 C 107.66 94.19 100.17 100.54 92.59 101.57 C 84.91 103.15 76.43 98.77 73.71 91.34 C 72.75 88.14 72.82 84.64 73.51 81.39 C 75.09 75.69 79.74 71.70 83.88 67.78 C 89.81 62.21 92.71 53.11 89.74 45.32 C 87.37 37.04 79.78 30.38 71.03 30.03 C 70.97 23.67 71.00 17.31 71.03 10.95 Z" />
<path fill="#7f7f7f" opacity="1.00" d=" M 63.35 35.22 C 72.59 31.50 83.96 38.28 85.55 48.01 C 86.08 52.56 86.28 57.65 83.51 61.58 C 80.55 66.12 75.17 68.38 69.99 69.11 C 65.06 69.67 60.58 67.13 56.18 65.31 C 48.19 58.75 45.70 44.78 54.26 37.65 C 51.64 43.02 50.26 49.46 52.82 55.12 C 55.79 62.94 64.70 67.78 72.88 66.11 C 77.47 64.89 81.31 61.33 82.99 56.89 C 86.40 49.31 81.62 39.60 73.93 36.95 C 70.52 36.47 66.89 37.14 63.84 38.77 C 58.14 41.86 56.71 50.24 60.49 55.35 C 62.38 58.06 65.61 59.75 68.94 59.52 C 75.46 59.93 79.54 51.28 75.76 46.20 C 74.08 42.51 69.01 43.03 66.52 45.48 C 64.61 47.59 65.84 50.53 66.20 52.96 C 66.95 52.73 68.43 52.26 69.18 52.03 C 69.47 50.26 69.40 48.30 70.59 46.83 C 72.89 49.64 72.25 53.08 70.65 56.04 C 67.75 55.55 64.05 55.26 62.95 51.97 C 60.20 47.00 64.35 40.35 69.99 40.65 C 74.06 41.54 78.30 44.59 78.69 49.04 C 78.93 51.87 79.18 55.02 77.66 57.57 C 75.73 60.36 72.43 62.05 69.11 62.49 C 62.91 62.78 57.41 57.89 55.81 52.10 C 53.70 45.60 57.04 37.92 63.35 35.22 Z" />
<path fill="#7f7f7f" opacity="1.00" d=" M 27.55 95.25 C 25.04 89.00 26.40 81.98 29.34 76.12 C 29.21 78.67 29.18 81.22 29.25 83.77 C 27.50 90.27 30.84 97.14 36.18 100.88 C 44.12 106.82 56.53 105.22 62.51 97.26 C 63.73 95.52 64.75 93.65 66.08 91.98 C 64.54 105.08 47.64 111.82 36.82 105.27 C 33.01 102.74 29.55 99.41 27.55 95.25 Z" />
</g>
<g id="#b50b6fff">
<path fill="#b50b6f" opacity="1.00" d=" M 54.26 37.65 C 58.53 32.88 64.67 30.24 71.03 30.03 C 79.78 30.38 87.37 37.04 89.74 45.32 C 92.71 53.11 89.81 62.21 83.88 67.78 C 79.74 71.70 75.09 75.69 73.51 81.39 C 72.82 84.64 72.75 88.14 73.71 91.34 C 76.43 98.77 84.91 103.15 92.59 101.57 C 100.17 100.54 107.66 94.19 106.86 85.98 C 107.71 77.79 98.66 71.94 91.21 73.51 C 84.12 74.34 77.62 81.50 80.15 88.82 C 82.12 94.96 89.77 95.96 95.12 94.12 C 99.49 92.70 102.23 86.61 99.12 82.80 C 97.49 80.03 93.92 80.03 91.11 80.37 C 88.61 80.52 87.32 82.98 85.75 84.59 C 86.29 85.83 86.82 87.08 87.34 88.32 C 89.98 88.87 92.56 88.24 94.84 86.88 C 92.77 86.66 90.70 86.49 88.62 86.34 C 88.70 85.58 88.85 84.06 88.93 83.31 C 89.45 82.77 90.48 81.70 91.00 81.16 C 93.44 82.06 96.87 82.31 97.81 85.23 C 99.30 89.34 95.07 93.53 91.03 93.48 C 85.87 94.23 80.85 89.19 81.79 84.04 C 82.72 78.45 88.46 74.90 93.89 75.34 C 101.42 75.12 107.62 84.09 104.07 90.94 C 101.07 98.89 90.92 101.59 83.52 98.62 C 77.30 95.57 73.10 87.79 75.91 81.07 C 78.87 71.28 90.89 66.70 100.13 69.89 C 105.79 71.79 110.12 76.91 111.31 82.73 C 112.24 87.46 110.95 92.42 108.47 96.48 C 105.63 101.17 100.56 103.99 95.47 105.61 C 86.88 108.28 76.66 104.89 71.76 97.26 C 68.57 92.05 68.31 85.70 69.47 79.85 C 65.94 75.61 62.25 71.03 56.95 68.98 C 49.39 66.75 40.35 69.06 35.72 75.69 C 30.29 82.59 31.51 94.06 39.37 98.63 C 46.85 103.91 58.46 100.26 61.49 91.62 C 64.32 85.47 61.05 77.53 54.65 75.30 C 47.08 72.08 37.56 79.58 39.31 87.75 C 40.27 93.93 48.87 96.88 53.25 92.25 C 56.86 89.34 56.55 81.50 51.01 81.29 C 47.46 80.67 46.43 84.67 45.14 87.07 C 45.90 87.31 47.42 87.80 48.18 88.04 C 48.70 86.84 49.22 85.63 49.74 84.43 C 50.82 84.48 51.91 84.54 53.00 84.59 C 52.27 86.81 52.26 89.83 49.83 90.96 C 46.48 92.84 41.63 90.00 42.26 86.03 C 41.87 79.01 51.35 75.25 56.37 79.68 C 62.14 84.37 59.09 94.18 52.72 96.76 C 47.73 99.62 41.16 97.63 37.68 93.35 C 34.08 88.51 34.90 81.28 38.80 76.86 C 44.32 69.86 55.97 69.45 62.07 75.89 C 65.24 78.93 65.96 83.46 66.27 87.64 C 66.11 88.62 65.80 90.58 65.65 91.56 L 64.37 90.16 C 64.04 92.59 63.71 95.07 62.51 97.26 C 56.53 105.22 44.12 106.82 36.18 100.88 C 30.84 97.14 27.50 90.27 29.25 83.77 C 29.74 82.59 30.22 81.41 30.69 80.22 C 30.08 75.77 33.36 72.23 36.56 69.66 C 42.01 65.32 49.42 63.99 56.18 65.31 C 60.58 67.13 65.06 69.67 69.99 69.11 C 75.17 68.38 80.55 66.12 83.51 61.58 C 86.28 57.65 86.08 52.56 85.55 48.01 C 83.96 38.28 72.59 31.50 63.35 35.22 C 57.04 37.92 53.70 45.60 55.81 52.10 C 57.41 57.89 62.91 62.78 69.11 62.49 C 72.43 62.05 75.73 60.36 77.66 57.57 C 79.18 55.02 78.93 51.87 78.69 49.04 C 78.30 44.59 74.06 41.54 69.99 40.65 C 64.35 40.35 60.20 47.00 62.95 51.97 C 64.05 55.26 67.75 55.55 70.65 56.04 C 72.25 53.08 72.89 49.64 70.59 46.83 C 69.40 48.30 69.47 50.26 69.18 52.03 C 68.43 52.26 66.95 52.73 66.20 52.96 C 65.84 50.53 64.61 47.59 66.52 45.48 C 69.01 43.03 74.08 42.51 75.76 46.20 C 79.54 51.28 75.46 59.93 68.94 59.52 C 65.61 59.75 62.38 58.06 60.49 55.35 C 56.71 50.24 58.14 41.86 63.84 38.77 C 66.89 37.14 70.52 36.47 73.93 36.95 C 81.62 39.60 86.40 49.31 82.99 56.89 C 81.31 61.33 77.47 64.89 72.88 66.11 C 64.70 67.78 55.79 62.94 52.82 55.12 C 50.26 49.46 51.64 43.02 54.26 37.65 Z" />
</g>
</svg>
