<?xml version="1.0" encoding="UTF-8"?>
<!DOCTYPE svg PUBLIC "-//W3C//DTD SVG 1.1//EN" "http://www.w3.org/Graphics/SVG/1.1/DTD/svg11.dtd">
<!-- Creator: CorelDRAW 2017 -->
<svg xmlns="http://www.w3.org/2000/svg" xml:space="preserve" width="148px" height="201px" version="1.1" style="shape-rendering:geometricPrecision; text-rendering:geometricPrecision; image-rendering:optimizeQuality; fill-rule:evenodd; clip-rule:evenodd"
viewBox="0 0 1.47 2"
 xmlns:xlink="http://www.w3.org/1999/xlink">
 <defs>
  <style type="text/css">
   <![CDATA[
    .str1 {stroke:black;stroke-width:0.12;stroke-miterlimit:2.61313}
    .str0 {stroke:black;stroke-width:0.12;stroke-miterlimit:2.61313}
    .fil0 {fill:none}
    .fil1 {fill:black;fill-rule:nonzero}
   ]]>
  </style>
 </defs>
 <g id="Layer_x0020_1">
  <metadata id="CorelCorpID_0Corel-Layer"/>
  <g id="_831750080">
   <path class="fil0 str0" d="M0.09 1.04c-0.01,0.14 0,0.31 0,0.45 0,0.15 0,0.3 0,0.45l0.97 0c0.07,-0.01 0.13,-0.07 0.14,-0.15 0.01,-0.09 -0.05,-0.16 -0.12,-0.18 -0.06,-0.02 -0.46,0 -0.57,-0.01 -0.01,-0.26 0.1,-0.78 -0.26,-0.73 -0.07,0.01 -0.17,0.09 -0.16,0.17z"/>
   <path class="fil0 str1" d="M0.36 0.06c-0.46,0.05 -0.37,0.75 0.09,0.68 0.44,-0.06 0.36,-0.73 -0.09,-0.68z"/>
   <g>
    <path class="fil1" d="M1.23 0.97l0.02 0.11 0 0 -0.03 0 -0.03 0 -0.03 0 -0.03 0 -0.02 -0.01 -0.03 -0.01 -0.02 -0.01 -0.03 -0.02 -0.02 -0.02 -0.01 -0.01 -0.02 -0.02 -0.01 -0.03 -0.01 -0.02 -0.01 -0.02 -0.01 -0.03 -0.01 -0.02 0 -0.03 0 -0.02 0 -0.03 0 -0.02 0.01 -0.03 0 -0.02 0.01 -0.03 0.02 -0.02 0.01 -0.02 0.02 -0.02 0.02 -0.02 0.03 -0.02 0.02 -0.01 0.03 -0.01 0.03 -0.01 0.03 -0.01 0.02 0.12 -0.02 0 -0.02 0.01 -0.02 0 -0.01 0.01 -0.02 0.01 -0.01 0.01 -0.01 0.01 -0.01 0.01 0 0.02 -0.01 0.01 0 0.01 -0.01 0.02 0 0.01 0 0.02 0 0.01 0.01 0.02 0 0.01 0 0.02 0.01 0.01 0.01 0.02 0 0.01 0.01 0.01 0.01 0.01 0.02 0.01 0.01 0.01 0.01 0.01 0.01 0 0.02 0.01 0.01 0 0.02 0 0.02 0 0.02 0 0 0zm0.12 -0.19l0.12 -0.02 0 0 0 0.02 0 0.01 0 0.02 0 0.01 0 0.01 0 0.02 0 0.01 -0.01 0.02 0 0.01 0 0.01 -0.01 0.01 0 0.02 -0.01 0.01 -0.01 0.01 0 0.01 -0.01 0.01 -0.01 0.01 -0.01 0.01 0 0.01 -0.01 0.01 -0.01 0.01 -0.01 0.01 -0.01 0 -0.01 0.01 -0.01 0.01 -0.01 0 -0.02 0.01 -0.01 0 -0.01 0.01 -0.01 0 -0.01 0.01 -0.02 0 -0.02 -0.11 0.01 -0.01 0.01 0 0 0 0.01 0 0.01 -0.01 0 0 0.01 0 0 -0.01 0.01 0 0.01 0 0 -0.01 0.01 0 0 -0.01 0.01 0 0 -0.01 0.01 -0.01 0 0 0 -0.01 0.01 -0.01 0 0 0 -0.01 0.01 -0.01 0 0 0 -0.01 0 -0.01 0 -0.01 0.01 0 0 -0.01 0 -0.01 0 -0.01 -0.01 -0.01 0 -0.01 0 0zm-0.17 -0.12l-0.02 -0.12 0 0 0.01 0 0.02 0 0.01 0 0.02 0 0.01 0 0.01 0 0.02 0.01 0.01 0 0.01 0 0.02 0.01 0.01 0 0.01 0.01 0.01 0 0.01 0.01 0.01 0.01 0.01 0 0.01 0.01 0.01 0.01 0.01 0.01 0.01 0.01 0.01 0.01 0.01 0.01 0 0.01 0.01 0.01 0.01 0.01 0 0.01 0.01 0.01 0 0.01 0.01 0.02 0 0.01 0 0.01 0.01 0.01 -0.12 0.02 0 -0.01 0 0 0 -0.01 0 -0.01 -0.01 0 0 -0.01 0 0 -0.01 -0.01 0 -0.01 0 0 -0.01 -0.01 0 0 -0.01 -0.01 0 0 -0.01 -0.01 -0.01 0 0 -0.01 -0.01 0 -0.01 -0.01 0 0 -0.01 0 -0.01 -0.01 0 0 -0.01 0 -0.01 0 0 0 -0.01 -0.01 -0.01 0 -0.01 0 -0.01 0 0 0 -0.01 0.01 0 0z"/>
   </g>
   <g>
    <path class="fil1" d="M1.28 1.5l-0.57 0 0 -0.11 0.57 0 0.05 0.06 -0.05 0.05zm0.05 -0.05l0 0.05 -0.05 0 0.05 -0.05zm-0.33 -0.23l0 -0.12 0 0 0.02 0 0.01 0.01 0.02 0 0.02 0 0.01 0 0.02 0.01 0.01 0 0.02 0.01 0.01 0.01 0.02 0.01 0.01 0 0.02 0.01 0.01 0.01 0.01 0.01 0.02 0.01 0.01 0.01 0.01 0.02 0.01 0.01 0.01 0.01 0.01 0.02 0.01 0.01 0.01 0.01 0.01 0.02 0 0.01 0.01 0.02 0.01 0.02 0 0.01 0 0.02 0 0.02 0 0.02 0 0.01 0 0.02 -0.11 -0.01 0 -0.01 0 -0.01 0 -0.01 0 -0.01 0 -0.01 -0.01 -0.01 0 -0.01 0 -0.01 -0.01 -0.01 0 -0.01 -0.01 -0.01 0 -0.01 -0.01 -0.01 -0.01 -0.01 0 -0.01 -0.01 0 -0.01 -0.01 -0.01 -0.01 -0.01 -0.01 -0.01 0 -0.01 -0.01 -0.01 0 -0.01 -0.01 -0.01 0 -0.01 -0.01 -0.01 0 -0.01 0 -0.01 -0.01 -0.01 0 -0.01 0 -0.01 0 -0.01 0 0 0zm-0.29 0.17l0 0.11 -0.06 -0.06 0 -0.01 0 -0.02 0.01 -0.02 0 -0.01 0 -0.02 0.01 -0.02 0 -0.01 0.01 -0.02 0.01 -0.01 0 -0.02 0.01 -0.01 0.01 -0.02 0.01 -0.01 0.01 -0.01 0.01 -0.02 0.01 -0.01 0.02 -0.01 0.01 -0.01 0.01 -0.01 0.02 -0.01 0.01 -0.01 0.01 -0.01 0.02 0 0.01 -0.01 0.02 -0.01 0.02 0 0.01 -0.01 0.02 0 0.02 0 0.01 0 0.02 -0.01 0.02 0 0 0.12 -0.01 0 -0.02 0 -0.01 0 -0.01 0 -0.01 0.01 -0.01 0 -0.01 0 -0.01 0.01 -0.01 0 -0.01 0.01 -0.01 0 -0.01 0.01 -0.01 0 -0.01 0.01 -0.01 0.01 -0.01 0 0 0.01 -0.01 0.01 -0.01 0.01 0 0.01 -0.01 0.01 -0.01 0.01 0 0.01 -0.01 0.01 0 0.01 0 0.01 -0.01 0.01 0 0.01 0 0.01 0 0.01 0 0.01 0 0.01 -0.06 -0.05zm0 0.11l-0.05 0 -0.01 -0.06 0.06 0.06z"/>
   </g>
  </g>
 </g>
</svg>
