<?xml version="1.0" encoding="UTF-8"?>
<!DOCTYPE svg PUBLIC "-//W3C//DTD SVG 1.1//EN" "http://www.w3.org/Graphics/SVG/1.1/DTD/svg11.dtd">
<!-- Creator: CorelDRAW 2017 -->
<svg xmlns="http://www.w3.org/2000/svg" xml:space="preserve" width="336px" height="336px" version="1.1" style="shape-rendering:geometricPrecision; text-rendering:geometricPrecision; image-rendering:optimizeQuality; fill-rule:evenodd; clip-rule:evenodd"
viewBox="0 0 9.33 9.33"
 xmlns:xlink="http://www.w3.org/1999/xlink">
 <defs>
  <style type="text/css">
   <![CDATA[
    .str3 {stroke:#4D4D4D;stroke-width:0.32;stroke-miterlimit:2.61313}
    .str2 {stroke:#4D4D4D;stroke-width:0.32;stroke-miterlimit:2.61313}
    .str4 {stroke:#4D4D4D;stroke-width:0.32;stroke-miterlimit:2.61313}
    .str0 {stroke:#666666;stroke-width:0.25;stroke-miterlimit:2.61313}
    .str1 {stroke:#E6E6E6;stroke-width:0.31;stroke-linecap:round;stroke-miterlimit:2.61313}
    .fil1 {fill:none}
    .fil3 {fill:#4D4D4D;fill-rule:nonzero}
    .fil0 {fill:url(#id0)}
    .fil2 {fill:url(#id1);fill-rule:nonzero}
   ]]>
  </style>
  <linearGradient id="id0" gradientUnits="userSpaceOnUse" x1="4.67" y1="0.13" x2="4.67" y2="9.07">
   <stop offset="0" style="stop-opacity:1; stop-color:#CCCACB"/>
   <stop offset="1" style="stop-opacity:1; stop-color:white"/>
  </linearGradient>
  <linearGradient id="id1" gradientUnits="userSpaceOnUse" x1="4.79" y1="9.08" x2="4.55" y2="0.26">
   <stop offset="0" style="stop-opacity:1; stop-color:#A2A1A6"/>
   <stop offset="1" style="stop-opacity:1; stop-color:white"/>
  </linearGradient>
 </defs>
 <g id="Layer_x0020_1">
  <metadata id="CorelCorpID_0Corel-Layer"/>
  <g id="_964803056">
   <circle class="fil0" cx="4.67" cy="4.6" r="4.47"/>
   <circle class="fil1 str0" cx="4.67" cy="4.67" r="4.54"/>
   <path class="fil2" d="M4.67 0.26c1.22,0 2.32,0.49 3.12,1.29 0.79,0.8 1.29,1.9 1.29,3.12 0,1.21 -0.5,2.32 -1.29,3.12 -0.8,0.79 -1.9,1.29 -3.12,1.29 -1.22,0 -2.32,-0.5 -3.12,-1.29 -0.8,-0.8 -1.29,-1.91 -1.29,-3.12 0,-1.22 0.49,-2.32 1.29,-3.12 0.8,-0.8 1.9,-1.29 3.12,-1.29zm2.92 1.49c-0.75,-0.75 -1.78,-1.21 -2.92,-1.21 -1.14,0 -2.17,0.46 -2.92,1.21 -0.75,0.75 -1.21,1.78 -1.21,2.92 0,1.14 0.46,2.17 1.21,2.92 0.75,0.74 1.78,1.2 2.92,1.2 1.14,0 2.17,-0.46 2.92,-1.2 0.74,-0.75 1.2,-1.78 1.2,-2.92 0,-1.14 -0.46,-2.17 -1.2,-2.92z"/>
   <polyline class="fil1 str1" points="3.96,3.73 4.28,4.99 5.26,5.49 "/>
   <path class="fil1 str2" d="M2.94 4.49c-0.03,0.38 -0.01,0.85 -0.01,1.25 0,0.42 0,0.84 0,1.26l2.71 0c0.2,-0.02 0.37,-0.2 0.4,-0.4 0.03,-0.28 -0.14,-0.45 -0.32,-0.52 -0.19,-0.06 -1.3,-0.01 -1.61,-0.03 -0.04,-0.72 0.28,-2.19 -0.71,-2.03 -0.21,0.03 -0.47,0.25 -0.46,0.47z"/>
   <path class="fil1 str3" d="M3.71 1.75c-1.3,0.14 -1.04,2.09 0.23,1.91 1.23,-0.17 1.01,-2.04 -0.23,-1.91z"/>
   <g>
    <path class="fil3" d="M6.13 4.28l0.06 0.32 0 0 -0.09 0.01 -0.08 0 -0.09 0 -0.08 -0.01 -0.07 -0.03 -0.07 -0.03 -0.07 -0.03 -0.06 -0.04 -0.06 -0.05 -0.05 -0.05 -0.04 -0.06 -0.04 -0.06 -0.03 -0.06 -0.03 -0.07 -0.02 -0.07 -0.02 -0.06 -0.01 -0.07 0 -0.08 0 -0.07 0.01 -0.07 0.02 -0.07 0.02 -0.06 0.03 -0.07 0.03 -0.07 0.05 -0.06 0.05 -0.05 0.05 -0.06 0.07 -0.04 0.07 -0.04 0.08 -0.04 0.08 -0.02 0.09 -0.02 0.05 0.32 -0.06 0.01 -0.05 0.02 -0.05 0.02 -0.04 0.02 -0.03 0.02 -0.04 0.03 -0.02 0.03 -0.03 0.04 -0.02 0.03 -0.01 0.04 -0.01 0.04 -0.01 0.04 -0.01 0.04 0 0.04 0 0.04 0.01 0.05 0.01 0.04 0.01 0.04 0.02 0.04 0.02 0.04 0.02 0.03 0.03 0.04 0.03 0.02 0.03 0.03 0.03 0.02 0.04 0.02 0.03 0.02 0.05 0.01 0.04 0.01 0.05 0 0.05 0 0.06 -0.01 0 0zm0.34 -0.51l0.32 -0.05 0 0 0 0.04 0.01 0.04 0 0.04 0 0.04 -0.01 0.04 0 0.04 -0.01 0.03 0 0.04 -0.01 0.04 -0.01 0.03 -0.02 0.04 -0.01 0.03 -0.02 0.03 -0.01 0.04 -0.02 0.03 -0.02 0.03 -0.02 0.03 -0.03 0.02 -0.02 0.03 -0.03 0.02 -0.02 0.03 -0.03 0.02 -0.03 0.02 -0.03 0.02 -0.03 0.02 -0.03 0.02 -0.03 0.01 -0.03 0.02 -0.04 0.01 -0.03 0.01 -0.04 0.01 -0.03 0.01 -0.06 -0.32 0.02 0 0.02 -0.01 0.02 0 0.02 -0.01 0.01 -0.01 0.02 -0.01 0.02 -0.01 0.02 -0.01 0.01 -0.01 0.02 -0.01 0.02 -0.02 0.01 -0.01 0.02 -0.01 0.01 -0.02 0.01 -0.01 0.02 -0.02 0.01 -0.02 0.01 -0.01 0.01 -0.02 0.01 -0.02 0 -0.02 0.01 -0.02 0.01 -0.02 0 -0.02 0.01 -0.02 0 -0.03 0 -0.02 0.01 -0.02 0 -0.03 0 -0.02 -0.01 -0.03 0 -0.02 0 0zm-0.49 -0.35l-0.05 -0.32 0 0 0.04 0 0.04 -0.01 0.04 0 0.04 0 0.04 0.01 0.03 0 0.04 0.01 0.04 0.01 0.03 0.01 0.04 0.01 0.03 0.01 0.04 0.02 0.03 0.02 0.03 0.01 0.03 0.02 0.03 0.03 0.03 0.02 0.02 0.02 0.03 0.03 0.02 0.02 0.03 0.03 0.02 0.03 0.02 0.02 0.02 0.03 0.02 0.03 0.01 0.03 0.02 0.04 0.01 0.03 0.01 0.03 0.01 0.04 0.01 0.03 0.01 0.04 -0.32 0.05 0 -0.02 -0.01 -0.02 0 -0.02 -0.01 -0.02 -0.01 -0.01 -0.01 -0.02 0 -0.02 -0.02 -0.02 -0.01 -0.01 -0.01 -0.02 -0.01 -0.02 -0.01 -0.01 -0.02 -0.02 -0.01 -0.01 -0.02 -0.02 -0.02 -0.01 -0.01 -0.01 -0.02 -0.01 -0.02 -0.01 -0.02 -0.01 -0.02 -0.01 -0.02 -0.01 -0.02 -0.01 -0.02 0 -0.02 -0.01 -0.02 0 -0.02 0 -0.02 -0.01 -0.02 0 -0.02 0 -0.03 0 -0.02 0.01 0 0z"/>
   </g>
   <path class="fil1 str4" d="M4.68 5.62l1.57 0c0.05,-0.43 -0.36,-0.79 -0.77,-0.79 -0.44,0 -0.82,0.35 -0.8,0.79z"/>
  </g>
 </g>
</svg>
