<?xml version="1.0" encoding="UTF-8" ?>
<!DOCTYPE svg PUBLIC "-//W3C//DTD SVG 1.1//EN" "http://www.w3.org/Graphics/SVG/1.1/DTD/svg11.dtd">
<svg width="84pt" height="192pt" viewBox="0 0 84 192" version="1.1" xmlns="http://www.w3.org/2000/svg">
<g id="#000000ff">
<path fill="#000000" opacity="1.00" d=" M 14.65 7.61 C 20.24 -0.77 33.47 -1.08 40.64 5.36 C 50.54 13.72 48.60 32.10 36.91 37.90 C 31.00 41.35 23.71 42.72 17.10 40.60 C 13.74 39.75 11.03 37.45 7.80 36.30 C 6.02 36.29 4.39 37.10 2.74 37.66 C 0.24 35.17 1.66 31.55 2.65 28.71 C 5.65 21.16 9.95 14.20 14.65 7.61 Z" />
<path fill="#000000" opacity="1.00" d=" M 16.60 46.68 C 25.77 40.82 39.23 46.72 42.38 56.84 C 44.64 64.30 46.53 71.88 48.12 79.52 C 67.97 80.29 84.37 99.35 83.28 118.97 C 82.57 131.27 76.68 144.01 65.67 150.30 C 67.01 158.45 69.85 166.26 71.35 174.38 C 63.65 174.39 55.94 174.42 48.24 174.37 C 45.95 179.57 44.99 185.21 43.39 190.63 C 35.18 190.64 26.96 190.65 18.75 190.63 C 18.76 185.21 18.75 179.80 18.75 174.39 C 13.15 174.39 7.55 174.40 1.95 174.38 C 5.38 152.96 8.54 131.50 11.95 110.08 C 12.33 106.79 14.20 102.96 12.00 99.96 C 10.01 98.16 7.51 97.07 5.17 95.78 C 6.66 83.86 8.96 72.06 10.68 60.17 C 11.53 55.35 12.00 49.54 16.60 46.68 M 19.43 64.01 C 23.41 79.79 27.47 95.55 31.49 111.32 C 43.91 117.60 56.28 123.99 68.73 130.22 C 71.47 131.86 75.34 130.64 76.56 127.68 C 77.90 124.92 76.42 121.46 73.64 120.30 C 62.81 114.73 51.93 109.24 41.07 103.74 C 37.36 89.49 33.84 75.19 30.10 60.96 C 29.56 57.83 26.10 55.69 23.07 56.71 C 20.01 57.52 18.36 61.09 19.43 64.01 Z" />
</g>
</svg>
