<?xml version="1.0" encoding="iso-8859-1"?>
<!-- Generator: Adobe Illustrator 19.0.0, SVG Export Plug-In . SVG Version: 6.00 Build 0)  -->
<svg version="1.1" id="Layer_1" xmlns="http://www.w3.org/2000/svg" xmlns:xlink="http://www.w3.org/1999/xlink" x="0px" y="0px"
	 viewBox="0 0 496 496" style="enable-background:new 0 0 496 496;" xml:space="preserve">
<path style="fill:#B761C6;" d="M496,320.8c0,96.8-78.4,175.2-175.2,175.2H175.2C78.4,496,0,417.6,0,320.8V175.2
	C0,78.4,78.4,0,175.2,0h145.6C417.6,0,496,78.4,496,175.2V320.8z"/>
<path style="fill:#AA53BC;" d="M0,175.2C0,78.4,78.4,0,175.2,0h145.6C417.6,0,496,78.4,496,175.2v145.6
	c0,96.8-78.4,175.2-175.2,175.2"/>
<g>
	<path style="fill:#9C44B2;" d="M320.8,0C417.6,0,496,78.4,496,175.2v145.6c0,96.8-78.4,175.2-175.2,175.2"/>
	<path style="fill:#9C44B2;" d="M188.8,189.6L188.8,189.6h17.6c6.4,0,12-5.6,12-12s-4.8-12-12-12H160c-3.2,0-6.4,1.6-8,3.2
		c-2.4,2.4-3.2,4.8-3.2,8v46.4c0,6.4,5.6,12,12,12s12-5.6,12-12v-18.4c0,0,0,0,0,0.8l40,40c2.4,2.4,5.6,3.2,8,3.2s5.6-0.8,8-3.2
		c4.8-4.8,4.8-12,0-16.8L188.8,189.6z M172,190.4v-0.8h0.8C172.8,189.6,172.8,189.6,172,190.4L172,190.4z"/>
	<path style="fill:#9C44B2;" d="M335.2,295.2c-6.4,0-12,5.6-12,12v18.4c0,0,0,0,0-0.8l-40-40c-4.8-4.8-12-4.8-16.8,0s-4.8,12,0,16.8
		l40,40c0,0,0,0,0.8,0h-18.4c-6.4,0-12,5.6-12,12s4.8,12,12,12h46.4c3.2,0,6.4-1.6,8-3.2c2.4-2.4,3.2-4.8,3.2-8V308
		C347.2,300,342.4,295.2,335.2,295.2z M323.2,341.6C323.2,341.6,323.2,340.8,323.2,341.6c0.8-0.8,0.8-0.8,0.8-0.8v0.8H323.2z"/>
	<path style="fill:#9C44B2;" d="M212.8,284.8l-40,40c0,0,0,0,0,0.8v-18.4c0-6.4-4.8-12-12-12c-6.4,0-12,5.6-12,12v46.4
		c0,3.2,1.6,6.4,3.2,8c2.4,2.4,4.8,3.2,8,3.2h46.4c6.4,0,12-5.6,12-12s-5.6-12-12-12H188c0,0,0,0,0.8,0l40-40c4.8-4.8,4.8-12,0-16.8
		C224.8,280,216.8,280,212.8,284.8z M172,341.6v-0.8C172,340.8,172,340.8,172,341.6c0.8,0,0.8,0,0.8,0H172z"/>
	<path style="fill:#9C44B2;" d="M275.2,249.6c3.2,0,5.6-0.8,8-3.2l40-40c0,0,0,0,0-0.8V224c0,6.4,4.8,12,12,12c6.4,0,12-5.6,12-12
		v-46.4c0-3.2-1.6-6.4-3.2-8c-2.4-2.4-4.8-3.2-8-3.2h-46.4c-6.4,0-12,5.6-12,12s5.6,12,12,12H308c0,0,0,0-0.8,0l-40,40
		c-4.8,4.8-4.8,12,0,16.8C269.6,248.8,272,249.6,275.2,249.6z M324,189.6v0.8C324,190.4,324,190.4,324,189.6c-0.8,0-0.8,0-0.8,0H324
		z"/>
</g>
<g>
	<path style="fill:#FFFFFF;" d="M188.8,172.8C188.8,172,188.8,172,188.8,172.8h17.6c6.4,0,12-5.6,12-12s-4.8-12-12-12H160
		c-3.2,0-6.4,1.6-8,3.2c-2.4,2.4-3.2,4.8-3.2,8v46.4c0,6.4,5.6,12,12,12s12-5.6,12-12V188c0,0,0,0,0,0.8l40,40
		c2.4,2.4,5.6,3.2,8,3.2s5.6-0.8,8-3.2c4.8-4.8,4.8-12,0-16.8L188.8,172.8z M172,172.8V172h0.8C172.8,172,172.8,172,172,172.8
		L172,172.8z"/>
	<path style="fill:#FFFFFF;" d="M335.2,277.6c-6.4,0-12,5.6-12,12V308c0,0,0,0,0-0.8l-40-40c-4.8-4.8-12-4.8-16.8,0s-4.8,12,0,16.8
		l40,40c0,0,0,0,0.8,0h-18.4c-6.4,0-12,5.6-12,12s4.8,12,12,12h46.4c3.2,0,6.4-1.6,8-3.2c2.4-2.4,3.2-4.8,3.2-8v-46.4
		C347.2,282.4,342.4,277.6,335.2,277.6z M323.2,324L323.2,324c0.8-0.8,0.8-0.8,0.8-0.8v0.8H323.2z"/>
	<path style="fill:#FFFFFF;" d="M212.8,267.2l-40,40c0,0,0,0,0,0.8v-18.4c0-6.4-4.8-12-12-12c-6.4,0-12,5.6-12,12V336
		c0,3.2,1.6,6.4,3.2,8c2.4,2.4,4.8,3.2,8,3.2h46.4c6.4,0,12-5.6,12-12s-5.6-12-12-12H188c0,0,0,0,0.8,0l40-40c4.8-4.8,4.8-12,0-16.8
		C224.8,262.4,216.8,262.4,212.8,267.2z M172,324v-0.8C172,323.2,172,323.2,172,324c0.8,0,0.8,0,0.8,0H172z"/>
	<path style="fill:#FFFFFF;" d="M275.2,232.8c3.2,0,5.6-0.8,8-3.2l40-40c0,0,0,0,0-0.8v18.4c0,6.4,4.8,12,12,12c6.4,0,12-5.6,12-12
		v-46.4c0-3.2-1.6-6.4-3.2-8c-2.4-2.4-4.8-3.2-8-3.2h-46.4c-6.4,0-12,5.6-12,12s5.6,12,12,12H308c0,0,0,0-0.8,0l-40,40
		c-4.8,4.8-4.8,12,0,16.8C269.6,231.2,272,232.8,275.2,232.8z M324,172v0.8C324,172.8,324,172.8,324,172c-0.8,0-0.8,0-0.8,0H324z"/>
</g>
<g>
</g>
<g>
</g>
<g>
</g>
<g>
</g>
<g>
</g>
<g>
</g>
<g>
</g>
<g>
</g>
<g>
</g>
<g>
</g>
<g>
</g>
<g>
</g>
<g>
</g>
<g>
</g>
<g>
</g>
</svg>
