<?xml version="1.0" encoding="UTF-8" ?>
<!DOCTYPE svg PUBLIC "-//W3C//DTD SVG 1.1//EN" "http://www.w3.org/Graphics/SVG/1.1/DTD/svg11.dtd">
<svg width="142pt" height="142pt" viewBox="0 0 142 142" version="1.1" xmlns="http://www.w3.org/2000/svg">
<g id="#939598ff">
<path fill="#939598" opacity="1.00" d=" M 27.51 29.47 C 38.70 17.74 54.78 10.81 71.02 10.96 C 71.05 20.15 70.83 29.34 71.18 38.52 C 61.80 39.04 52.39 38.37 43.01 38.84 C 38.92 38.93 36.28 43.10 36.70 46.92 C 36.73 63.28 36.62 79.64 36.75 96.00 C 36.54 99.54 39.33 103.05 42.97 103.16 C 52.36 103.64 61.78 102.96 71.17 103.48 C 70.84 112.66 71.04 121.85 71.02 131.04 C 54.77 131.20 38.69 124.25 27.49 112.51 C 16.98 101.43 10.76 86.26 11.00 70.94 C 10.79 55.65 17.02 40.52 27.51 29.47 Z" />
</g>
<g id="#7f7f7fff">
<path fill="#7f7f7f" opacity="1.00" d=" M 71.02 10.96 C 87.25 10.79 103.35 17.74 114.52 29.49 C 125.03 40.55 131.26 55.72 131.00 71.03 C 131.24 86.32 125.01 101.49 114.50 112.54 C 103.32 124.27 87.25 131.21 71.02 131.04 C 71.04 121.85 70.84 112.66 71.17 103.48 C 78.78 103.84 86.39 103.52 94.00 103.68 C 96.94 103.58 100.42 104.10 102.74 101.82 C 104.84 100.22 105.79 97.61 105.65 95.02 C 105.64 79.00 105.64 62.98 105.65 46.96 C 105.79 44.39 104.85 41.79 102.76 40.19 C 100.45 37.91 96.96 38.42 94.01 38.32 C 86.40 38.48 78.79 38.16 71.18 38.52 C 70.83 29.34 71.05 20.15 71.02 10.96 Z" />
</g>
<g id="#eeeeeeff">
<path fill="#eeeeee" opacity="1.00" d=" M 71.18 38.52 C 78.79 38.16 86.40 38.48 94.01 38.32 C 96.96 38.42 100.45 37.91 102.76 40.19 C 104.85 41.79 105.79 44.39 105.65 46.96 C 105.64 62.98 105.64 79.00 105.65 95.02 C 105.79 97.61 104.84 100.22 102.74 101.82 C 100.42 104.10 96.94 103.58 94.00 103.68 C 86.39 103.52 78.78 103.84 71.17 103.48 C 61.78 102.96 52.36 103.64 42.97 103.16 C 39.33 103.05 36.54 99.54 36.75 96.00 C 36.62 79.64 36.73 63.28 36.70 46.92 C 36.28 43.10 38.92 38.93 43.01 38.84 C 52.39 38.37 61.80 39.04 71.18 38.52 M 41.77 45.62 C 41.90 62.54 41.90 79.45 41.76 96.37 C 42.94 97.52 44.18 98.90 46.00 98.80 C 54.33 98.95 62.66 98.79 70.99 98.85 L 70.99 98.45 C 78.99 98.45 86.98 98.48 94.98 98.45 C 96.91 98.75 98.30 97.31 99.80 96.38 C 100.43 79.82 99.84 63.22 100.11 46.65 C 98.83 45.52 97.87 43.54 95.94 43.59 C 87.63 43.47 79.31 43.58 70.99 43.55 L 70.99 43.15 C 62.66 43.21 54.32 43.05 45.99 43.21 C 44.19 43.12 42.93 44.46 41.77 45.62 Z" />
</g>
<g id="#403f3fff">
<path fill="#403f3f" opacity="1.00" d=" M 41.77 45.62 C 42.93 44.46 44.19 43.12 45.99 43.21 C 54.32 43.05 62.66 43.21 70.99 43.15 L 70.99 43.55 C 71.00 61.85 71.01 80.15 70.99 98.45 L 70.99 98.85 C 62.66 98.79 54.33 98.95 46.00 98.80 C 44.18 98.90 42.94 97.52 41.76 96.37 C 41.90 79.45 41.90 62.54 41.77 45.62 M 47.01 47.89 C 47.00 52.80 46.98 57.72 47.05 62.63 C 48.48 61.45 49.90 60.26 51.32 59.07 C 53.92 61.57 56.28 64.31 59.03 66.66 C 62.15 65.93 63.97 62.44 66.24 60.27 C 63.54 57.59 60.85 54.90 58.17 52.20 C 59.14 50.83 60.10 49.45 61.03 48.06 C 56.36 47.97 51.69 48.04 47.01 47.89 M 51.32 82.93 C 49.90 81.74 48.48 80.55 47.05 79.37 C 46.97 84.28 47.00 89.19 47.01 94.11 C 51.69 93.96 56.36 94.03 61.04 93.94 C 60.10 92.54 59.14 91.16 58.17 89.80 C 60.85 87.10 63.55 84.41 66.25 81.72 C 63.96 79.57 62.13 76.02 59.02 75.36 C 56.27 77.70 53.92 80.44 51.32 82.93 Z" />
</g>
<g id="#221e1fff">
<path fill="#221e1f" opacity="1.00" d=" M 70.99 43.55 C 79.31 43.58 87.63 43.47 95.94 43.59 C 97.87 43.54 98.83 45.52 100.11 46.65 C 99.84 63.22 100.43 79.82 99.80 96.38 C 98.30 97.31 96.91 98.75 94.98 98.45 C 86.98 98.48 78.99 98.45 70.99 98.45 C 71.01 80.15 71.00 61.85 70.99 43.55 M 81.18 48.14 C 82.11 49.52 83.10 50.85 84.15 52.15 C 81.44 54.92 78.67 57.63 75.96 60.40 C 78.01 62.57 80.12 64.69 82.29 66.75 C 85.21 64.20 87.85 61.35 90.65 58.66 C 92.05 59.90 93.47 61.12 94.91 62.31 C 95.01 57.54 94.97 52.77 94.95 48.00 C 90.36 48.01 85.77 47.96 81.18 48.14 M 75.80 81.40 C 78.23 84.46 81.20 87.02 83.89 89.84 C 82.90 91.17 81.92 92.51 80.95 93.87 C 85.62 94.06 90.30 93.94 94.97 94.13 C 95.00 89.22 95.01 84.30 94.93 79.39 C 93.49 80.61 92.03 81.82 90.56 82.99 C 88.07 80.44 85.71 77.74 83.00 75.41 C 79.94 75.93 78.25 79.55 75.80 81.40 Z" />
</g>
<g id="#f96f70ff">
<path fill="#f96f70" opacity="1.00" d=" M 47.01 47.89 C 51.69 48.04 56.36 47.97 61.03 48.06 C 60.10 49.45 59.14 50.83 58.17 52.20 C 60.85 54.90 63.54 57.59 66.24 60.27 C 63.97 62.44 62.15 65.93 59.03 66.66 C 56.28 64.31 53.92 61.57 51.32 59.07 C 49.90 60.26 48.48 61.45 47.05 62.63 C 46.98 57.72 47.00 52.80 47.01 47.89 Z" />
<path fill="#f96f70" opacity="1.00" d=" M 51.32 82.93 C 53.92 80.44 56.27 77.70 59.02 75.36 C 62.13 76.02 63.96 79.57 66.25 81.72 C 63.55 84.41 60.85 87.10 58.17 89.80 C 59.14 91.16 60.10 92.54 61.04 93.94 C 56.36 94.03 51.69 93.96 47.01 94.11 C 47.00 89.19 46.97 84.28 47.05 79.37 C 48.48 80.55 49.90 81.74 51.32 82.93 Z" />
</g>
<g id="#ff0000ff">
<path fill="#ff0000" opacity="1.00" d=" M 81.18 48.14 C 85.77 47.96 90.36 48.01 94.95 48.00 C 94.97 52.77 95.01 57.54 94.91 62.31 C 93.47 61.12 92.05 59.90 90.65 58.66 C 87.85 61.35 85.21 64.20 82.29 66.75 C 80.12 64.69 78.01 62.57 75.96 60.40 C 78.67 57.63 81.44 54.92 84.15 52.15 C 83.10 50.85 82.11 49.52 81.18 48.14 Z" />
<path fill="#ff0000" opacity="1.00" d=" M 75.80 81.40 C 78.25 79.55 79.94 75.93 83.00 75.41 C 85.71 77.74 88.07 80.44 90.56 82.99 C 92.03 81.82 93.49 80.61 94.93 79.39 C 95.01 84.30 95.00 89.22 94.97 94.13 C 90.30 93.94 85.62 94.06 80.95 93.87 C 81.92 92.51 82.90 91.17 83.89 89.84 C 81.20 87.02 78.23 84.46 75.80 81.40 Z" />
</g>
</svg>
