<?xml version="1.0" encoding="UTF-8"?>
<!DOCTYPE svg PUBLIC "-//W3C//DTD SVG 1.1//EN" "http://www.w3.org/Graphics/SVG/1.1/DTD/svg11.dtd">
<!-- Creator: CorelDRAW 2017 -->
<svg xmlns="http://www.w3.org/2000/svg" xml:space="preserve" width="336px" height="336px" version="1.1" style="shape-rendering:geometricPrecision; text-rendering:geometricPrecision; image-rendering:optimizeQuality; fill-rule:evenodd; clip-rule:evenodd"
viewBox="0 0 9.62 9.62"
 xmlns:xlink="http://www.w3.org/1999/xlink">
 <defs>
  <style type="text/css">
   <![CDATA[
    .str3 {stroke:#4D4D4D;stroke-width:0.05;stroke-miterlimit:2.61313}
    .str5 {stroke:#4D4D4D;stroke-width:0.05;stroke-miterlimit:2.61313}
    .str2 {stroke:#4D4D4D;stroke-width:0.05;stroke-miterlimit:2.61313}
    .str4 {stroke:#4D4D4D;stroke-width:0.05;stroke-miterlimit:2.61313}
    .str1 {stroke:#4D4D4D;stroke-width:0.4;stroke-miterlimit:2.61313}
    .str0 {stroke:#666666;stroke-width:0.26;stroke-miterlimit:2.61313}
    .fil1 {fill:none}
    .fil3 {fill:#4D4D4D;fill-rule:nonzero}
    .fil0 {fill:url(#id0)}
    .fil2 {fill:url(#id1);fill-rule:nonzero}
   ]]>
  </style>
  <linearGradient id="id0" gradientUnits="userSpaceOnUse" x1="4.81" y1="0.06" x2="4.81" y2="9.42">
   <stop offset="0" style="stop-opacity:1; stop-color:#CCCACB"/>
   <stop offset="1" style="stop-opacity:1; stop-color:white"/>
  </linearGradient>
  <linearGradient id="id1" gradientUnits="userSpaceOnUse" x1="4.94" y1="9.36" x2="4.69" y2="0.27">
   <stop offset="0" style="stop-opacity:1; stop-color:#A2A1A6"/>
   <stop offset="1" style="stop-opacity:1; stop-color:white"/>
  </linearGradient>
 </defs>
 <g id="Layer_x0020_1">
  <metadata id="CorelCorpID_0Corel-Layer"/>
  <g id="_965069712">
   <circle class="fil0" cx="4.81" cy="4.74" r="4.68"/>
   <circle class="fil1 str0" cx="4.81" cy="4.81" r="4.68"/>
   <path class="fil2" d="M4.81 0.26c1.26,0 2.4,0.51 3.22,1.34 0.82,0.82 1.33,1.96 1.33,3.21 0,1.26 -0.51,2.4 -1.33,3.22 -0.82,0.82 -1.96,1.33 -3.22,1.33 -1.25,0 -2.39,-0.51 -3.21,-1.33 -0.83,-0.82 -1.34,-1.96 -1.34,-3.22 0,-1.25 0.51,-2.39 1.34,-3.21 0.82,-0.83 1.96,-1.34 3.21,-1.34zm3.01 1.54c-0.77,-0.77 -1.83,-1.24 -3.01,-1.24 -1.17,0 -2.24,0.47 -3.01,1.24 -0.77,0.77 -1.24,1.84 -1.24,3.01 0,1.18 0.47,2.24 1.24,3.01 0.77,0.77 1.84,1.25 3.01,1.25 1.18,0 2.24,-0.48 3.01,-1.25 0.77,-0.77 1.25,-1.83 1.25,-3.01 0,-1.17 -0.48,-2.24 -1.25,-3.01z"/>
   <rect class="fil1 str1" x="2.27" y="2.53" width="5.08" height="4.57" rx="0.55" ry="0.55"/>
   <path class="fil3 str2" d="M4.18 3.85l-0.58 -0.59 0.28 -0.28 -1.16 -0.02 0.02 1.16 0.28 -0.29 0.59 0.59 0.57 -0.57zm-0.29 -0.29m-0.15 -0.44m-0.44 -0.15m-0.57 0.57m0.15 0.44m0.44 0.15m0.58 0.01"/>
   <path class="fil3 str3" d="M5.46 3.85l0.59 -0.59 -0.29 -0.28 1.16 -0.02 -0.01 1.16 -0.29 -0.29 -0.59 0.59 -0.57 -0.57zm0.3 -0.29m0.15 -0.44m0.43 -0.15m0.57 0.57m-0.15 0.44m-0.43 0.15m-0.58 0.01"/>
   <path class="fil3 str4" d="M4.18 5.85l-0.58 0.59 0.28 0.28 -1.16 0.02 0.02 -1.16 0.28 0.29 0.59 -0.59 0.57 0.57zm-0.29 0.29m-0.15 0.44m-0.44 0.15m-0.57 -0.57m0.15 -0.44m0.44 -0.15m0.58 -0.01"/>
   <path class="fil3 str5" d="M5.46 5.85l0.59 0.59 -0.29 0.28 1.16 0.02 -0.01 -1.16 -0.29 0.29 -0.59 -0.59 -0.57 0.57zm0.3 0.29m0.15 0.44m0.43 0.15m0.57 -0.57m-0.15 -0.44m-0.43 -0.15m-0.58 0"/>
   <path class="fil3" d="M4.81 4c-0.45,0 -0.81,0.36 -0.81,0.81 0,0.45 0.36,0.82 0.81,0.82 0.45,0 0.82,-0.37 0.82,-0.82 0,-0.45 -0.37,-0.81 -0.82,-0.81zm0.15 0.96l0 0.43 -0.3 0 0 -0.43 -0.43 0 0 -0.3 0.43 0 0 -0.43 0.3 0 0 0.43 0.43 0 0 0.3 -0.43 0z"/>
  </g>
 </g>
</svg>
