<?xml version="1.0" encoding="UTF-8" ?>
<!DOCTYPE svg PUBLIC "-//W3C//DTD SVG 1.1//EN" "http://www.w3.org/Graphics/SVG/1.1/DTD/svg11.dtd">
<svg width="142pt" height="142pt" viewBox="0 0 142 142" version="1.1" xmlns="http://www.w3.org/2000/svg">
<g id="#939598ff">
<path fill="#939598" opacity="1.00" d=" M 27.45 29.54 C 38.65 17.77 54.78 10.77 71.07 10.98 C 70.99 18.88 70.96 26.77 71.06 34.67 C 72.74 34.97 74.48 35.17 76.04 35.94 C 72.25 36.35 66.76 34.41 64.89 38.97 C 62.44 43.24 64.93 48.23 69.03 50.30 C 69.03 51.12 69.01 52.76 69.00 53.59 C 66.31 51.06 63.53 48.50 61.74 45.23 C 60.26 42.82 59.30 39.69 56.41 38.60 C 51.10 36.67 45.31 38.82 40.80 41.76 C 35.35 45.62 29.34 48.83 22.80 50.38 C 23.19 52.91 25.67 54.08 27.44 55.58 C 26.12 55.24 24.80 54.94 23.46 54.68 C 25.81 59.40 31.11 61.57 35.71 63.52 C 40.74 65.10 47.49 65.57 51.22 61.11 C 50.96 64.49 50.78 67.93 51.81 71.20 C 51.07 72.36 51.01 73.90 52.20 74.79 C 54.41 77.11 57.30 78.59 60.30 79.62 C 58.70 81.82 59.09 84.58 59.19 87.13 C 58.91 86.80 58.36 86.16 58.09 85.83 C 57.90 85.15 57.52 83.77 57.33 83.09 C 56.57 88.22 58.79 94.17 63.88 96.18 C 61.92 99.11 61.25 103.04 64.27 105.54 C 65.15 105.71 66.91 106.06 67.79 106.24 C 65.84 108.69 61.68 109.44 61.11 112.82 C 61.22 115.41 64.14 114.86 65.92 114.98 C 64.69 115.72 62.87 115.84 62.35 117.42 C 64.42 117.55 66.50 117.57 68.58 117.53 C 68.89 115.71 68.37 114.29 67.01 113.28 C 67.68 112.15 68.38 111.03 69.33 110.10 C 71.34 113.03 75.25 111.20 77.18 109.14 C 76.39 110.45 75.64 111.77 74.89 113.10 C 75.14 113.58 75.66 114.54 75.92 115.02 C 75.47 115.03 74.57 115.05 74.12 115.06 C 74.09 114.27 74.02 112.69 73.98 111.90 C 72.45 112.03 70.93 112.17 69.40 112.34 C 69.26 113.51 69.11 114.69 68.97 115.87 C 70.58 115.94 72.20 116.01 73.81 116.10 C 72.54 116.48 71.24 116.77 69.96 117.10 C 71.24 121.63 71.01 126.36 71.09 131.02 C 54.81 131.24 38.66 124.25 27.46 112.47 C 16.97 101.41 10.76 86.26 11.01 70.97 C 10.78 55.71 16.98 40.59 27.45 29.54 Z" />
<path fill="#939598" opacity="1.00" d=" M 74.10 53.23 L 74.65 53.09 C 74.52 53.24 74.25 53.53 74.11 53.67 L 74.10 53.23 Z" />
<path fill="#939598" opacity="1.00" d=" M 79.45 55.60 C 79.50 55.57 79.61 55.52 79.66 55.50 C 79.61 55.52 79.50 55.57 79.45 55.60 Z" />
<path fill="#939598" opacity="1.00" d=" M 89.42 55.51 C 89.46 55.53 89.55 55.57 89.59 55.59 C 89.55 55.57 89.46 55.53 89.42 55.51 Z" />
<path fill="#939598" opacity="1.00" d=" M 115.38 55.59 C 115.44 55.54 115.56 55.46 115.63 55.41 C 115.56 55.46 115.44 55.54 115.38 55.59 Z" />
<path fill="#939598" opacity="1.00" d=" M 81.05 57.57 C 82.63 55.90 85.29 56.06 87.03 57.39 C 85.08 57.96 83.02 58.02 81.05 57.57 Z" />
<path fill="#939598" opacity="1.00" d=" M 112.16 57.68 C 112.33 57.58 112.67 57.37 112.84 57.27 C 112.67 57.37 112.33 57.58 112.16 57.68 Z" />
<path fill="#939598" opacity="1.00" d=" M 68.26 58.83 C 70.06 62.42 68.56 66.71 69.22 70.57 C 69.49 70.81 70.02 71.28 70.28 71.51 L 71.20 72.29 C 73.55 71.90 75.87 71.37 78.19 70.85 C 73.63 72.85 68.63 73.74 64.22 76.08 L 63.86 74.63 C 64.85 73.62 67.36 73.08 66.87 71.31 C 64.42 70.45 61.81 69.95 59.54 68.63 C 62.22 67.57 65.00 66.63 67.91 66.48 C 68.39 63.96 68.44 61.39 68.26 58.83 Z" />
<path fill="#939598" opacity="1.00" d=" M 95.46 59.42 C 95.50 59.44 95.56 59.47 95.59 59.49 C 95.56 59.47 95.50 59.44 95.46 59.42 Z" />
<path fill="#939598" opacity="1.00" d=" M 108.41 59.53 C 108.47 59.51 108.58 59.47 108.63 59.44 C 108.58 59.47 108.47 59.51 108.41 59.53 Z" />
<path fill="#939598" opacity="1.00" d=" M 84.41 75.53 C 84.46 75.51 84.58 75.47 84.64 75.45 C 84.58 75.47 84.46 75.51 84.41 75.53 Z" />
<path fill="#939598" opacity="1.00" d=" M 73.39 89.59 C 73.45 89.55 73.56 89.46 73.62 89.42 C 73.56 89.46 73.45 89.55 73.39 89.59 Z" />
<path fill="#939598" opacity="1.00" d=" M 78.32 92.01 C 78.59 91.87 79.14 91.59 79.42 91.46 C 79.14 91.59 78.59 91.87 78.32 92.01 Z" />
<path fill="#939598" opacity="1.00" d=" M 77.24 92.65 C 77.37 92.57 77.62 92.42 77.75 92.35 C 77.62 92.42 77.37 92.57 77.24 92.65 Z" />
<path fill="#939598" opacity="1.00" d=" M 75.46 93.50 C 75.76 93.37 76.36 93.12 76.65 92.99 C 76.36 93.12 75.76 93.37 75.46 93.50 Z" />
<path fill="#939598" opacity="1.00" d=" M 73.50 94.58 C 73.54 94.56 73.61 94.51 73.65 94.49 C 73.61 94.51 73.54 94.56 73.50 94.58 Z" />
<path fill="#939598" opacity="1.00" d=" M 68.61 99.42 C 69.38 98.25 70.18 97.10 71.15 96.08 C 71.99 97.21 73.15 97.54 74.63 97.05 C 75.03 99.05 77.57 102.58 74.03 102.80 C 74.00 101.13 73.99 99.46 73.97 97.79 C 72.19 98.35 70.41 98.90 68.61 99.42 Z" />
<path fill="#939598" opacity="1.00" d=" M 81.20 109.10 C 83.18 109.17 82.78 112.13 81.45 112.93 C 81.10 111.67 81.02 110.39 81.20 109.10 Z" />
</g>
<g id="#7f7f7fff">
<path fill="#7f7f7f" opacity="1.00" d=" M 71.07 10.98 C 87.53 10.77 103.81 17.98 115.00 29.99 C 125.22 41.02 131.27 55.96 131.00 71.04 C 131.26 87.51 124.01 103.81 112.00 115.01 C 101.01 125.20 86.13 131.20 71.09 131.02 C 71.01 126.36 71.24 121.63 69.96 117.10 C 71.24 116.77 72.54 116.48 73.81 116.10 L 74.12 115.06 C 74.57 115.05 75.47 115.03 75.92 115.02 C 77.16 114.99 78.39 114.96 79.63 114.93 C 80.09 114.43 81.00 113.43 81.45 112.93 C 82.78 112.13 83.18 109.17 81.20 109.10 C 79.86 109.02 78.52 109.04 77.18 109.14 C 75.25 111.20 71.34 113.03 69.33 110.10 C 72.77 107.71 77.45 107.38 80.31 104.17 C 82.41 102.03 82.49 97.82 79.79 96.15 C 78.00 95.57 76.18 96.12 74.63 97.05 C 73.15 97.54 71.99 97.21 71.15 96.08 C 71.73 95.70 72.91 94.95 73.50 94.58 C 73.54 94.56 73.61 94.51 73.65 94.49 L 75.46 93.50 C 75.76 93.37 76.36 93.12 76.65 92.99 L 77.24 92.65 C 77.37 92.57 77.62 92.42 77.75 92.35 L 78.32 92.01 C 78.59 91.87 79.14 91.59 79.42 91.46 C 82.52 89.32 85.80 86.07 84.97 81.92 C 85.09 79.77 82.89 78.30 81.00 77.97 C 78.65 77.76 77.17 80.01 76.02 81.72 C 77.10 82.48 78.17 83.24 79.25 84.01 C 77.60 86.03 75.71 87.85 73.62 89.42 C 73.56 89.46 73.45 89.55 73.39 89.59 C 70.37 92.00 66.86 93.72 63.88 96.18 C 58.79 94.17 56.57 88.22 57.33 83.09 C 57.52 83.77 57.90 85.15 58.09 85.83 C 58.36 86.16 58.91 86.80 59.19 87.13 C 61.13 89.10 62.58 91.83 65.32 92.81 C 67.16 92.90 68.30 91.30 69.27 89.99 C 67.98 87.32 63.14 84.14 66.28 81.24 C 71.64 77.54 78.34 77.33 84.41 75.53 C 84.46 75.51 84.58 75.47 84.64 75.45 C 88.08 74.41 91.31 72.13 92.82 68.79 C 93.02 66.24 93.65 63.18 91.86 61.04 C 90.65 59.36 88.75 58.43 87.03 57.39 C 85.29 56.06 82.63 55.90 81.05 57.57 C 79.69 58.86 77.07 60.38 78.41 62.58 C 81.11 63.80 85.80 61.53 87.08 65.07 C 86.19 69.04 81.39 69.61 78.19 70.85 C 75.87 71.37 73.55 71.90 71.20 72.29 L 70.28 71.51 C 71.82 70.35 74.60 69.51 73.99 67.04 C 74.46 64.03 72.65 59.84 75.77 57.88 C 76.91 56.98 78.18 56.27 79.45 55.60 C 79.50 55.57 79.61 55.52 79.66 55.50 C 82.72 53.53 86.32 53.83 89.42 55.51 C 89.46 55.53 89.55 55.57 89.59 55.59 C 91.71 56.60 93.52 58.12 95.46 59.42 C 95.50 59.44 95.56 59.47 95.59 59.49 C 99.55 61.71 104.37 61.30 108.41 59.53 C 108.47 59.51 108.58 59.47 108.63 59.44 C 109.83 58.91 111.01 58.32 112.16 57.68 C 112.33 57.58 112.67 57.37 112.84 57.27 C 113.47 56.85 114.74 56.01 115.38 55.59 C 115.44 55.54 115.56 55.46 115.63 55.41 C 117.26 53.89 120.23 52.90 120.15 50.23 C 113.40 48.67 107.25 45.25 101.64 41.27 C 97.23 38.56 91.60 36.51 86.51 38.45 C 83.56 39.51 82.63 42.68 81.19 45.13 C 79.55 48.19 76.98 50.57 74.65 53.09 L 74.10 53.23 C 74.09 52.49 74.06 51.01 74.04 50.27 C 76.60 48.74 79.33 46.26 79.07 43.00 C 79.38 40.25 77.61 37.98 76.04 35.94 C 74.48 35.17 72.74 34.97 71.06 34.67 C 70.96 26.77 70.99 18.88 71.07 10.98 M 69.06 82.04 C 68.90 84.01 68.84 85.99 68.88 87.97 C 70.57 87.98 72.27 87.98 73.96 87.97 C 74.02 85.99 74.04 84.00 74.02 82.02 C 72.36 82.01 70.71 82.02 69.06 82.04 Z" />
<path fill="#7f7f7f" opacity="1.00" d=" M 46.89 59.75 C 50.67 57.45 54.31 54.45 58.90 54.03 C 62.36 54.83 65.50 56.63 68.26 58.83 C 68.44 61.39 68.39 63.96 67.91 66.48 C 65.00 66.63 62.22 67.57 59.54 68.63 C 57.69 67.76 56.95 66.04 56.93 64.07 C 59.37 62.70 62.19 63.09 64.86 62.81 C 67.42 61.47 64.84 58.72 63.19 57.86 C 59.01 55.61 54.07 57.72 51.22 61.11 C 47.49 65.57 40.74 65.10 35.71 63.52 C 31.11 61.57 25.81 59.40 23.46 54.68 C 24.80 54.94 26.12 55.24 27.44 55.58 C 32.84 59.59 40.33 63.05 46.89 59.75 Z" />
<path fill="#7f7f7f" opacity="1.00" d=" M 52.20 74.79 C 51.01 73.90 51.07 72.36 51.81 71.20 C 55.36 73.44 59.56 77.83 63.86 74.63 L 64.22 76.08 C 62.92 77.27 61.59 78.42 60.30 79.62 C 57.30 78.59 54.41 77.11 52.20 74.79 Z" />
<path fill="#7f7f7f" opacity="1.00" d=" M 67.90 106.24 C 67.87 104.46 68.10 102.69 68.36 100.94 C 68.73 103.89 71.97 102.90 74.09 103.38 C 72.08 104.46 70.08 105.56 67.90 106.24 Z" />
<path fill="#7f7f7f" opacity="1.00" d=" M 67.01 113.28 C 68.37 114.29 68.89 115.71 68.58 117.53 C 66.50 117.57 64.42 117.55 62.35 117.42 C 62.87 115.84 64.69 115.72 65.92 114.98 C 66.19 114.55 66.74 113.71 67.01 113.28 Z" />
</g>
<g id="#5db0f6ff">
<path fill="#5db0f6" opacity="1.00" d=" M 64.89 38.97 C 66.76 34.41 72.25 36.35 76.04 35.94 C 77.61 37.98 79.38 40.25 79.07 43.00 C 79.33 46.26 76.60 48.74 74.04 50.27 C 74.06 51.01 74.09 52.49 74.10 53.23 L 74.11 53.67 C 74.25 53.53 74.52 53.24 74.65 53.09 C 76.98 50.57 79.55 48.19 81.19 45.13 C 82.63 42.68 83.56 39.51 86.51 38.45 C 91.60 36.51 97.23 38.56 101.64 41.27 C 107.25 45.25 113.40 48.67 120.15 50.23 C 120.23 52.90 117.26 53.89 115.63 55.41 C 115.56 55.46 115.44 55.54 115.38 55.59 C 114.74 56.01 113.47 56.85 112.84 57.27 C 112.67 57.37 112.33 57.58 112.16 57.68 C 111.01 58.32 109.83 58.91 108.63 59.44 C 108.58 59.47 108.47 59.51 108.41 59.53 C 104.37 61.30 99.55 61.71 95.59 59.49 C 95.56 59.47 95.50 59.44 95.46 59.42 C 93.52 58.12 91.71 56.60 89.59 55.59 C 89.55 55.57 89.46 55.53 89.42 55.51 C 86.32 53.83 82.72 53.53 79.66 55.50 C 79.61 55.52 79.50 55.57 79.45 55.60 C 78.18 56.27 76.91 56.98 75.77 57.88 C 72.65 59.84 74.46 64.03 73.99 67.04 C 74.60 69.51 71.82 70.35 70.28 71.51 C 70.02 71.28 69.49 70.81 69.22 70.57 C 68.56 66.71 70.06 62.42 68.26 58.83 C 65.50 56.63 62.36 54.83 58.90 54.03 C 54.31 54.45 50.67 57.45 46.89 59.75 C 40.33 63.05 32.84 59.59 27.44 55.58 C 25.67 54.08 23.19 52.91 22.80 50.38 C 29.34 48.83 35.35 45.62 40.80 41.76 C 45.31 38.82 51.10 36.67 56.41 38.60 C 59.30 39.69 60.26 42.82 61.74 45.23 C 63.53 48.50 66.31 51.06 69.00 53.59 C 69.01 52.76 69.03 51.12 69.03 50.30 C 64.93 48.23 62.44 43.24 64.89 38.97 Z" />
<path fill="#5db0f6" opacity="1.00" d=" M 51.22 61.11 C 54.07 57.72 59.01 55.61 63.19 57.86 C 64.84 58.72 67.42 61.47 64.86 62.81 C 62.19 63.09 59.37 62.70 56.93 64.07 C 56.95 66.04 57.69 67.76 59.54 68.63 C 61.81 69.95 64.42 70.45 66.87 71.31 C 67.36 73.08 64.85 73.62 63.86 74.63 C 59.56 77.83 55.36 73.44 51.81 71.20 C 50.78 67.93 50.96 64.49 51.22 61.11 Z" />
<path fill="#5db0f6" opacity="1.00" d=" M 78.41 62.58 C 77.07 60.38 79.69 58.86 81.05 57.57 C 83.02 58.02 85.08 57.96 87.03 57.39 C 88.75 58.43 90.65 59.36 91.86 61.04 C 93.65 63.18 93.02 66.24 92.82 68.79 C 91.31 72.13 88.08 74.41 84.64 75.45 C 84.58 75.47 84.46 75.51 84.41 75.53 C 78.34 77.33 71.64 77.54 66.28 81.24 C 63.14 84.14 67.98 87.32 69.27 89.99 C 68.30 91.30 67.16 92.90 65.32 92.81 C 62.58 91.83 61.13 89.10 59.19 87.13 C 59.09 84.58 58.70 81.82 60.30 79.62 C 61.59 78.42 62.92 77.27 64.22 76.08 C 68.63 73.74 73.63 72.85 78.19 70.85 C 81.39 69.61 86.19 69.04 87.08 65.07 C 85.80 61.53 81.11 63.80 78.41 62.58 Z" />
<path fill="#5db0f6" opacity="1.00" d=" M 76.02 81.72 C 77.17 80.01 78.65 77.76 81.00 77.97 C 82.89 78.30 85.09 79.77 84.97 81.92 C 85.80 86.07 82.52 89.32 79.42 91.46 C 79.14 91.59 78.59 91.87 78.32 92.01 L 77.75 92.35 C 77.62 92.42 77.37 92.57 77.24 92.65 L 76.65 92.99 C 76.36 93.12 75.76 93.37 75.46 93.50 L 73.65 94.49 C 73.61 94.51 73.54 94.56 73.50 94.58 C 72.91 94.95 71.73 95.70 71.15 96.08 C 70.18 97.10 69.38 98.25 68.61 99.42 C 70.41 98.90 72.19 98.35 73.97 97.79 C 73.99 99.46 74.00 101.13 74.03 102.80 C 77.57 102.58 75.03 99.05 74.63 97.05 C 76.18 96.12 78.00 95.57 79.79 96.15 C 82.49 97.82 82.41 102.03 80.31 104.17 C 77.45 107.38 72.77 107.71 69.33 110.10 C 68.38 111.03 67.68 112.15 67.01 113.28 C 66.74 113.71 66.19 114.55 65.92 114.98 C 64.14 114.86 61.22 115.41 61.11 112.82 C 61.68 109.44 65.84 108.69 67.79 106.24 C 66.91 106.06 65.15 105.71 64.27 105.54 C 61.25 103.04 61.92 99.11 63.88 96.18 C 66.86 93.72 70.37 92.00 73.39 89.59 C 73.45 89.55 73.56 89.46 73.62 89.42 C 75.71 87.85 77.60 86.03 79.25 84.01 C 78.17 83.24 77.10 82.48 76.02 81.72 M 67.90 106.24 C 70.08 105.56 72.08 104.46 74.09 103.38 C 71.97 102.90 68.73 103.89 68.36 100.94 C 68.10 102.69 67.87 104.46 67.90 106.24 Z" />
<path fill="#5db0f6" opacity="1.00" d=" M 69.06 82.04 C 70.71 82.02 72.36 82.01 74.02 82.02 C 74.04 84.00 74.02 85.99 73.96 87.97 C 72.27 87.98 70.57 87.98 68.88 87.97 C 68.84 85.99 68.90 84.01 69.06 82.04 Z" />
<path fill="#5db0f6" opacity="1.00" d=" M 77.18 109.14 C 78.52 109.04 79.86 109.02 81.20 109.10 C 81.02 110.39 81.10 111.67 81.45 112.93 C 81.00 113.43 80.09 114.43 79.63 114.93 C 78.39 114.96 77.16 114.99 75.92 115.02 C 75.66 114.54 75.14 113.58 74.89 113.10 C 75.64 111.77 76.39 110.45 77.18 109.14 Z" />
<path fill="#5db0f6" opacity="1.00" d=" M 69.40 112.34 C 70.93 112.17 72.45 112.03 73.98 111.90 C 74.02 112.69 74.09 114.27 74.12 115.06 L 73.81 116.10 C 72.20 116.01 70.58 115.94 68.97 115.87 C 69.11 114.69 69.26 113.51 69.40 112.34 Z" />
</g>
</svg>
