<?xml version="1.0" encoding="UTF-8"?>
<!DOCTYPE svg PUBLIC "-//W3C//DTD SVG 1.1//EN" "http://www.w3.org/Graphics/SVG/1.1/DTD/svg11.dtd">
<!-- Creator: CorelDRAW 2017 -->
<svg xmlns="http://www.w3.org/2000/svg" xml:space="preserve" width="336px" height="336px" version="1.1" style="shape-rendering:geometricPrecision; text-rendering:geometricPrecision; image-rendering:optimizeQuality; fill-rule:evenodd; clip-rule:evenodd"
viewBox="0 0 7.08 7.08"
 xmlns:xlink="http://www.w3.org/1999/xlink">
 <defs>
  <style type="text/css">
   <![CDATA[
    .str0 {stroke:#666666;stroke-width:0.19;stroke-miterlimit:2.61313}
    .fil1 {fill:none}
    .fil3 {fill:#4D4D4D}
    .fil0 {fill:url(#id0)}
    .fil2 {fill:url(#id1);fill-rule:nonzero}
   ]]>
  </style>
  <linearGradient id="id0" gradientUnits="userSpaceOnUse" x1="3.54" y1="0.04" x2="3.54" y2="6.93">
   <stop offset="0" style="stop-opacity:1; stop-color:#CCCACB"/>
   <stop offset="1" style="stop-opacity:1; stop-color:white"/>
  </linearGradient>
  <linearGradient id="id1" gradientUnits="userSpaceOnUse" x1="3.63" y1="6.88" x2="3.45" y2="0.2">
   <stop offset="0" style="stop-opacity:1; stop-color:#A2A1A6"/>
   <stop offset="1" style="stop-opacity:1; stop-color:white"/>
  </linearGradient>
 </defs>
 <g id="Layer_x0020_1">
  <metadata id="CorelCorpID_0Corel-Layer"/>
  <g id="_964808848">
   <circle class="fil0" cx="3.54" cy="3.49" r="3.44"/>
   <circle class="fil1 str0" cx="3.54" cy="3.54" r="3.44"/>
   <path class="fil2" d="M3.54 0.19c0.92,0 1.76,0.38 2.36,0.98 0.61,0.61 0.98,1.45 0.98,2.37 0,0.92 -0.37,1.76 -0.98,2.36 -0.6,0.61 -1.44,0.98 -2.36,0.98 -0.92,0 -1.76,-0.37 -2.37,-0.98 -0.6,-0.6 -0.98,-1.44 -0.98,-2.36 0,-0.92 0.38,-1.76 0.98,-2.37 0.61,-0.6 1.45,-0.98 2.37,-0.98zm2.21 1.14c-0.57,-0.57 -1.35,-0.92 -2.21,-0.92 -0.87,0 -1.65,0.35 -2.21,0.92 -0.57,0.56 -0.92,1.34 -0.92,2.21 0,0.86 0.35,1.64 0.92,2.21 0.56,0.57 1.34,0.92 2.21,0.92 0.86,0 1.64,-0.35 2.21,-0.92 0.57,-0.57 0.92,-1.35 0.92,-2.21 0,-0.87 -0.35,-1.65 -0.92,-2.21z"/>
   <path class="fil3" d="M3.69 2.27c-0.09,0.15 -0.21,0.15 -0.3,0 -0.56,-0.88 -1.11,-0.2 -1.61,-0.23 -0.44,-0.02 0.42,0.55 1.45,0.59 0.17,0 0.45,0 0.62,0 1.03,-0.04 1.88,-0.61 1.45,-0.59 -0.5,0.03 -1.05,-0.65 -1.61,0.23z"/>
   <path class="fil3" d="M3.8 1.82c0,0.14 -0.12,0.26 -0.26,0.26 -0.15,0 -0.27,-0.12 -0.27,-0.26 0,-0.15 0.12,-0.27 0.27,-0.27 0.14,0 0.26,0.12 0.26,0.27z"/>
   <path class="fil3" d="M3.56 5.31c-0.02,0 -0.03,0.01 -0.05,0.02l0 0.19 0.06 0 0 -0.22 -0.01 0.01z"/>
   <path class="fil3" d="M3.78 5.24c-0.03,0.01 -0.06,0.01 -0.08,0.02 0.02,0.02 0.03,0.04 0.05,0.06 0.02,0.02 0.02,0.06 0.03,0.09l0 0c0.01,0 0.01,0 0.02,0 0.01,0 0.01,0 0.02,0 0.01,0 0.01,0 0.01,0 0,-0.01 0,-0.01 0,-0.01 0,-0.01 0,-0.02 0,-0.03 0,-0.05 -0.02,-0.1 -0.05,-0.13z"/>
   <path class="fil3" d="M2.89 3.46c-0.06,-0.02 -0.13,-0.06 -0.17,-0.12 -0.04,-0.05 -0.04,-0.12 -0.02,-0.18 0.02,-0.04 0.06,-0.08 0.1,-0.1 0.04,-0.03 0.09,-0.04 0.14,-0.06 0.05,-0.01 0.11,-0.02 0.17,-0.03l0 -0.13c-0.08,0.01 -0.16,0.02 -0.23,0.04 -0.07,0.02 -0.14,0.05 -0.2,0.09 -0.05,0.04 -0.09,0.1 -0.11,0.16 -0.03,0.07 -0.03,0.15 0,0.21 0.04,0.12 0.14,0.2 0.25,0.25 0.06,0.02 0.12,0.05 0.18,0.06 0.03,-0.01 0.05,-0.02 0.08,-0.03 0.05,-0.02 0.1,-0.04 0.16,-0.05 -0.04,-0.01 -0.09,-0.02 -0.13,-0.03 -0.07,-0.02 -0.15,-0.04 -0.22,-0.08z"/>
   <path class="fil3" d="M3.47 2.02l0.01 1.49c0.03,-0.01 0.06,-0.01 0.09,-0.02 0.01,0 0.01,0 0.02,0l0.02 -1.47 -0.14 0z"/>
   <path class="fil3" d="M4.23 3.99c-0.02,-0.05 -0.05,-0.1 -0.09,-0.14 -0.03,-0.02 -0.05,-0.04 -0.08,-0.06 -0.08,0.02 -0.16,0.03 -0.23,0.05 0.03,0.01 0.07,0.03 0.1,0.04 0.03,0.01 0.06,0.03 0.09,0.05 0.03,0.02 0.05,0.05 0.07,0.08 0.01,0.02 0.01,0.05 0.01,0.07 0,0.02 -0.01,0.03 -0.01,0.04 -0.01,0.03 -0.03,0.06 -0.05,0.09 -0.05,0.05 -0.13,0.08 -0.19,0.11 -0.15,0.06 -0.3,0.09 -0.45,0.14 -0.07,0.03 -0.14,0.05 -0.21,0.09 -0.06,0.03 -0.11,0.08 -0.14,0.14 -0.02,0.04 -0.03,0.09 -0.03,0.13 0,0.02 0.01,0.04 0.01,0.06 0.03,0.07 0.07,0.12 0.13,0.16 0.03,0.02 0.07,0.04 0.11,0.05 0.03,-0.03 0.07,-0.05 0.11,-0.07 -0.02,-0.01 -0.03,-0.02 -0.04,-0.02 -0.04,-0.02 -0.07,-0.03 -0.1,-0.05 -0.03,-0.02 -0.06,-0.05 -0.08,-0.08 -0.01,-0.01 -0.01,-0.03 -0.01,-0.05 -0.01,-0.02 -0.01,-0.03 0,-0.05 0.01,-0.03 0.03,-0.06 0.06,-0.08 0.06,-0.05 0.13,-0.07 0.2,-0.09 0.15,-0.06 0.31,-0.09 0.46,-0.14 0.13,-0.05 0.27,-0.12 0.34,-0.25 0.01,-0.04 0.02,-0.08 0.03,-0.13 0,-0.03 -0.01,-0.06 -0.01,-0.09z"/>
   <path class="fil3" d="M3.49 3.91l0 0.39c0.02,0 0.04,-0.01 0.05,-0.01 0.02,-0.01 0.03,-0.01 0.04,-0.01l0.01 -0.39c-0.03,0 -0.07,0.01 -0.1,0.02z"/>
   <path class="fil3" d="M3.5 4.7l0 0.26c0.03,-0.01 0.05,-0.02 0.07,-0.03l0.01 -0.26c-0.03,0.01 -0.05,0.02 -0.08,0.03z"/>
   <path class="fil3" d="M3.92 4.57l0 0c-0.06,0.02 -0.11,0.04 -0.17,0.06 0.01,0 0.03,0.01 0.04,0.01 0.03,0.02 0.06,0.04 0.09,0.06 0.03,0.02 0.05,0.05 0.05,0.09 0.01,0.03 0,0.07 -0.03,0.1 -0.02,0.03 -0.05,0.05 -0.08,0.07 -0.03,0.02 -0.06,0.03 -0.1,0.05 -0.07,0.03 -0.15,0.05 -0.22,0.08 -0.06,0.03 -0.13,0.07 -0.18,0.12 -0.04,0.05 -0.07,0.11 -0.07,0.17 0,0.01 0,0.02 0,0.03l0 0 0.01 0c0.01,0 0.02,0 0.03,0l0.01 0 0 -0.01c0,-0.03 0.02,-0.07 0.04,-0.1 0.04,-0.05 0.11,-0.09 0.18,-0.11 0.07,-0.03 0.15,-0.05 0.22,-0.07 0.13,-0.05 0.28,-0.11 0.31,-0.26 0.01,-0.06 0,-0.13 -0.03,-0.19 -0.03,-0.04 -0.06,-0.07 -0.1,-0.1z"/>
   <path class="fil3" d="M4.47 3.04c-0.08,-0.09 -0.2,-0.14 -0.32,-0.17 -0.05,-0.01 -0.11,-0.02 -0.16,-0.03l0 0.13c0.04,0.01 0.09,0.02 0.14,0.03 0.07,0.02 0.14,0.04 0.19,0.09 0.02,0.02 0.04,0.04 0.05,0.07 0.02,0.03 0.02,0.07 0.02,0.1 -0.01,0.07 -0.06,0.12 -0.12,0.16 -0.06,0.04 -0.13,0.07 -0.2,0.09 -0.16,0.05 -0.32,0.07 -0.48,0.1 -0.08,0.02 -0.16,0.04 -0.24,0.05 -0.07,0.02 -0.15,0.05 -0.22,0.07 -0.13,0.06 -0.26,0.14 -0.29,0.29 -0.01,0.07 0.01,0.14 0.04,0.2 0.03,0.06 0.09,0.11 0.14,0.15 0.04,0.02 0.08,0.04 0.12,0.06 0.06,-0.03 0.13,-0.06 0.18,-0.08 -0.04,-0.01 -0.08,-0.03 -0.12,-0.04 -0.07,-0.03 -0.13,-0.07 -0.18,-0.12 -0.04,-0.05 -0.06,-0.13 -0.02,-0.19 0.03,-0.06 0.09,-0.09 0.14,-0.12 0.07,-0.03 0.15,-0.05 0.23,-0.07 0.07,-0.02 0.15,-0.04 0.23,-0.05 0.16,-0.03 0.32,-0.06 0.48,-0.11 0.07,-0.02 0.15,-0.05 0.22,-0.08 0.06,-0.04 0.12,-0.08 0.16,-0.13 0.04,-0.06 0.07,-0.13 0.07,-0.2 0,-0.07 -0.02,-0.14 -0.06,-0.2z"/>
   <path class="fil3" d="M3.35 2.92c0,0.08 -0.08,0.13 -0.18,0.13 -0.1,0 -0.17,-0.05 -0.17,-0.13 0,-0.07 0.07,-0.13 0.17,-0.13 0.1,0 0.18,0.06 0.18,0.13z"/>
   <path class="fil3" d="M4.08 2.92c0,0.08 -0.08,0.13 -0.18,0.13 -0.09,0 -0.17,-0.05 -0.17,-0.13 0,-0.07 0.08,-0.13 0.17,-0.13 0.1,0 0.18,0.06 0.18,0.13z"/>
  </g>
 </g>
</svg>
