<?xml version="1.0" encoding="UTF-8"?>
<!DOCTYPE svg PUBLIC "-//W3C//DTD SVG 1.1//EN" "http://www.w3.org/Graphics/SVG/1.1/DTD/svg11.dtd">
<!-- Creator: CorelDRAW 2017 -->
<svg xmlns="http://www.w3.org/2000/svg" xml:space="preserve" width="336px" height="336px" version="1.1" style="shape-rendering:geometricPrecision; text-rendering:geometricPrecision; image-rendering:optimizeQuality; fill-rule:evenodd; clip-rule:evenodd"
viewBox="0 0 9.33 9.33"
 xmlns:xlink="http://www.w3.org/1999/xlink">
 <defs>
  <style type="text/css">
   <![CDATA[
    .str0 {stroke:#666666;stroke-width:0.25;stroke-miterlimit:2.61313}
    .fil1 {fill:none}
    .fil3 {fill:#4D4D4D}
    .fil4 {fill:#4D4D4D;fill-rule:nonzero}
    .fil0 {fill:url(#id0)}
    .fil2 {fill:url(#id1);fill-rule:nonzero}
   ]]>
  </style>
  <linearGradient id="id0" gradientUnits="userSpaceOnUse" x1="4.67" y1="0.13" x2="4.67" y2="9.07">
   <stop offset="0" style="stop-opacity:1; stop-color:#CCCACB"/>
   <stop offset="1" style="stop-opacity:1; stop-color:white"/>
  </linearGradient>
  <linearGradient id="id1" gradientUnits="userSpaceOnUse" x1="4.79" y1="9.08" x2="4.55" y2="0.26">
   <stop offset="0" style="stop-opacity:1; stop-color:#A2A1A6"/>
   <stop offset="1" style="stop-opacity:1; stop-color:white"/>
  </linearGradient>
 </defs>
 <g id="Layer_x0020_1">
  <metadata id="CorelCorpID_0Corel-Layer"/>
  <g id="_964763472">
   <circle class="fil0" cx="4.67" cy="4.6" r="4.47"/>
   <circle class="fil1 str0" cx="4.67" cy="4.67" r="4.54"/>
   <path class="fil2" d="M4.67 0.26c1.22,0 2.32,0.49 3.12,1.29 0.79,0.8 1.29,1.9 1.29,3.12 0,1.21 -0.5,2.32 -1.29,3.12 -0.8,0.79 -1.9,1.29 -3.12,1.29 -1.22,0 -2.32,-0.5 -3.12,-1.29 -0.8,-0.8 -1.29,-1.91 -1.29,-3.12 0,-1.22 0.49,-2.32 1.29,-3.12 0.8,-0.8 1.9,-1.29 3.12,-1.29zm2.92 1.49c-0.75,-0.75 -1.78,-1.21 -2.92,-1.21 -1.14,0 -2.17,0.46 -2.92,1.21 -0.75,0.75 -1.21,1.78 -1.21,2.92 0,1.14 0.46,2.17 1.21,2.92 0.75,0.74 1.78,1.2 2.92,1.2 1.14,0 2.17,-0.46 2.92,-1.2 0.74,-0.75 1.2,-1.78 1.2,-2.92 0,-1.14 -0.46,-2.17 -1.2,-2.92z"/>
   <path class="fil3" d="M5.06 3.91l0 0.73 0.76 0 0 -0.73c-0.06,-0.02 -0.12,-0.05 -0.16,-0.1l0 0c-0.07,-0.06 -0.11,-0.16 -0.11,-0.26l0 0c0,-0.1 0.04,-0.2 0.11,-0.27 0.07,-0.06 0.16,-0.11 0.26,-0.11l1.09 0c0.1,0 0.2,0.04 0.26,0.11l0 0c0.07,0.07 0.11,0.16 0.11,0.27l0 0c0,0.1 -0.04,0.19 -0.11,0.26 -0.04,0.04 -0.09,0.08 -0.15,0.1l0 2.42c0,0.18 -0.07,0.34 -0.19,0.46 -0.12,0.12 -0.28,0.19 -0.46,0.19l0 0c-0.18,0 -0.34,-0.07 -0.46,-0.19 -0.11,-0.11 -0.19,-0.28 -0.19,-0.46l0 -1.31 -0.2 0 0.01 2.18 1.11 0c0.14,-0.01 0.25,0.11 0.25,0.24l0 0c0,0.14 -0.11,0.25 -0.25,0.25l-2.52 0.01c-0.14,0 -0.25,-0.12 -0.25,-0.25l0 0c0,-0.14 0.11,-0.25 0.25,-0.25l1.02 0 0 -2.18 -0.18 0.01 0.01 1.31c0,0.17 -0.08,0.34 -0.19,0.45 -0.12,0.12 -0.28,0.2 -0.46,0.2l0 0c-0.18,0 -0.34,-0.08 -0.46,-0.19 -0.12,-0.12 -0.19,-0.28 -0.19,-0.46l-0.01 -2.43c-0.06,-0.02 -0.11,-0.05 -0.15,-0.09l0 0c-0.07,-0.07 -0.11,-0.16 -0.11,-0.27l0 0c0,-0.1 0.04,-0.19 0.11,-0.26 0.06,-0.07 0.16,-0.11 0.26,-0.11l1.09 0c0.1,0 0.19,0.04 0.26,0.1l0 0c0.07,0.07 0.11,0.17 0.11,0.27l0 0c0,0.1 -0.04,0.2 -0.11,0.26 -0.04,0.05 -0.1,0.08 -0.16,0.1zm1.56 1.23l0 1.14c0,0.08 -0.07,0.15 -0.15,0.15l0 0c-0.07,0 -0.14,-0.07 -0.14,-0.15l0 -1.14 0.29 0 0 0zm0.39 -1.69l-1.08 0c-0.03,0 -0.05,0.01 -0.07,0.03 -0.02,0.02 -0.03,0.04 -0.03,0.07l0 0c0,0.02 0.01,0.05 0.03,0.06l0 0.01c0.02,0.01 0.04,0.02 0.07,0.02l1.08 0c0.03,0 0.05,-0.01 0.07,-0.03 0.01,-0.01 0.02,-0.04 0.02,-0.06l0 0c0,-0.03 -0.01,-0.05 -0.02,-0.07l0 0c-0.02,-0.02 -0.04,-0.03 -0.07,-0.03l0 0zm-0.26 2.88l-0.01 -2.3 -0.55 0 0.01 2.3c0,0.08 0.03,0.15 0.08,0.2 0.05,0.05 0.12,0.08 0.19,0.08l0 0c0.08,0 0.15,-0.03 0.2,-0.08 0.05,-0.05 0.08,-0.12 0.08,-0.2l0 0zm-2.19 -1.19l0.01 1.15c0,0.08 -0.07,0.14 -0.15,0.14l0 0c-0.08,0 -0.14,-0.06 -0.14,-0.14l-0.01 -1.15 0.29 0 0 0zm0.4 -1.68l-1.09 0c-0.02,0 -0.05,0.01 -0.06,0.03 -0.02,0.01 -0.03,0.04 -0.03,0.06l0 0c0,0.03 0.01,0.05 0.03,0.07l0 0c0.01,0.02 0.04,0.03 0.06,0.03l1.09 -0.01c0.02,0 0.05,-0.01 0.06,-0.02 0.02,-0.02 0.03,-0.04 0.03,-0.07l0 0c0,-0.03 -0.01,-0.05 -0.03,-0.07l0 0c-0.01,-0.01 -0.04,-0.02 -0.06,-0.02l0 0zm-0.27 2.88l0 -2.31 -0.55 0 0 2.31c0,0.07 0.03,0.14 0.08,0.19 0.05,0.05 0.12,0.08 0.2,0.08l0 0c0.07,0 0.14,-0.03 0.19,-0.08 0.05,-0.05 0.08,-0.12 0.08,-0.19l0 0z"/>
   <path class="fil4" d="M2.95 5.2l-0.65 -0.66c0.14,0 0.29,0.01 0.44,0.03l0.19 0.19c0.02,0.15 0.03,0.29 0.02,0.44zm-0.1 0.46l-1.02 -1.01c0.11,-0.05 0.22,-0.08 0.33,-0.09l0.78 0.78c-0.02,0.11 -0.04,0.22 -0.09,0.32zm1.77 -2.78c0,0 0,0.01 0,0.02l-0.02 -0.03c0.01,0 0.01,0.01 0.02,0.01zm0.13 -1c0.01,-0.1 0.04,-0.19 0.08,-0.27 0.01,-0.01 0.02,-0.02 0.02,-0.03l1.07 1.07c-0.01,0 -0.02,0.01 -0.03,0.01 -0.08,0.05 -0.17,0.08 -0.27,0.09l-0.01 0 -0.86 -0.86 0 -0.01zm0.22 0.79l-0.15 -0.14c-0.03,-0.18 -0.06,-0.35 -0.07,-0.49l0.7 0.71c-0.14,-0.01 -0.3,-0.04 -0.48,-0.08zm-1.59 0.84c0.02,-0.03 0.04,-0.06 0.07,-0.09l-0.23 -0.23c0.05,-0.08 0.12,-0.15 0.21,-0.2l0.22 0.22c0.03,-0.02 0.06,-0.04 0.09,-0.06l-0.21 -0.21c0.09,-0.05 0.2,-0.08 0.32,-0.09l0.16 0.16c0.04,-0.02 0.08,-0.03 0.12,-0.04l-0.14 -0.14c0.13,0 0.27,0 0.43,0.02l0.08 0.08c0.14,0.01 0.28,0.04 0.4,0.09 0,-0.03 0,-0.06 -0.01,-0.09l0.02 0c0.28,0.05 0.53,0.1 0.73,0.08 0.14,-0.01 0.26,-0.06 0.37,-0.12 0.14,-0.07 0.25,-0.17 0.34,-0.27l-0.19 -0.17c-0.05,0.04 -0.1,0.09 -0.15,0.13l-1.1 -1.09c0.05,-0.06 0.09,-0.11 0.14,-0.15l-0.18 -0.19c-0.1,0.09 -0.19,0.2 -0.26,0.33 -0.07,0.11 -0.11,0.24 -0.12,0.37 -0.02,0.21 0.03,0.46 0.08,0.74l0 0.01c-1.35,-0.2 -1.96,0.43 -1.72,1.7l0.01 0.02c-0.51,-0.07 -1.05,-0.08 -1.47,0.31l0.18 0.19c0.05,-0.05 0.1,-0.09 0.16,-0.12l1.07 1.07c-0.03,0.05 -0.07,0.11 -0.12,0.16l0.19 0.17c0.39,-0.42 0.38,-0.95 0.31,-1.46l0.02 0c0.03,0.01 0.05,0.01 0.08,0.02 -0.05,-0.11 -0.07,-0.23 -0.09,-0.36l-0.09 -0.09c-0.03,-0.16 -0.04,-0.31 -0.04,-0.45l0.16 0.16c0.01,-0.05 0.02,-0.09 0.03,-0.13l-0.18 -0.18c0.01,-0.12 0.04,-0.23 0.09,-0.32l0.22 0.22z"/>
  </g>
 </g>
</svg>
