<?xml version="1.0" encoding="UTF-8" ?>
<!DOCTYPE svg PUBLIC "-//W3C//DTD SVG 1.1//EN" "http://www.w3.org/Graphics/SVG/1.1/DTD/svg11.dtd">
<svg width="142pt" height="142pt" viewBox="0 0 142 142" version="1.1" xmlns="http://www.w3.org/2000/svg">
<g id="#939598ff">
<path fill="#939598" opacity="1.00" d=" M 23.70 33.84 C 34.84 19.44 52.83 10.74 71.04 10.94 C 70.90 29.62 71.09 48.30 70.98 66.97 C 70.95 70.13 71.22 73.27 71.36 76.42 L 71.30 76.68 C 71.06 77.79 70.81 78.89 70.55 80.00 C 69.85 79.51 69.14 79.03 68.41 78.57 C 67.60 80.61 66.71 82.63 66.03 84.72 C 64.47 89.00 64.29 94.19 67.04 98.03 C 68.61 100.54 71.27 102.72 71.02 105.98 C 71.11 114.33 70.89 122.70 71.06 131.06 C 55.30 131.17 39.54 124.83 28.50 113.53 C 17.69 102.97 11.37 88.08 10.98 73.01 C 10.48 59.02 14.91 44.79 23.70 33.84 M 24.76 42.75 C 24.62 45.01 24.59 47.30 25.31 49.47 L 25.27 49.92 L 23.97 49.65 C 23.59 54.69 23.36 59.77 23.97 64.80 L 24.98 63.69 L 25.12 64.36 C 23.49 69.11 27.30 73.43 30.34 76.66 C 36.43 82.88 45.92 82.64 52.87 87.37 C 55.98 89.34 55.58 93.51 56.35 96.65 L 56.26 97.24 C 55.86 97.40 55.05 97.72 54.65 97.89 L 54.79 98.71 L 55.04 99.59 C 54.85 101.17 54.71 102.75 54.63 104.34 C 56.15 104.14 58.56 105.11 59.39 103.25 C 60.77 101.18 60.65 98.57 59.71 96.34 C 59.79 94.46 59.74 92.58 59.58 90.71 C 61.39 89.46 60.94 85.00 58.47 85.23 C 56.58 75.77 51.10 67.64 45.01 60.37 C 45.70 60.34 47.06 60.30 47.74 60.28 C 51.63 63.34 53.71 67.99 56.48 71.97 L 56.04 72.78 L 56.54 73.71 L 57.48 73.76 C 58.32 75.76 59.22 77.74 60.13 79.72 C 60.10 80.56 60.03 82.23 60.00 83.07 C 62.09 82.93 64.31 82.30 65.54 80.46 C 69.71 74.22 69.44 65.18 64.60 59.37 C 59.51 53.32 52.20 49.69 44.88 47.08 C 38.38 44.87 31.69 42.78 24.76 42.75 Z" />
</g>
<g id="#7f7f7fff">
<path fill="#7f7f7f" opacity="1.00" d=" M 71.04 10.94 C 86.78 10.83 102.53 17.21 113.55 28.50 C 124.80 39.52 131.20 55.24 131.03 70.97 C 131.21 86.72 124.81 102.46 113.55 113.50 C 102.53 124.78 86.80 131.16 71.06 131.06 C 70.89 122.70 71.11 114.33 71.02 105.98 C 71.27 102.72 68.61 100.54 67.04 98.03 C 64.29 94.19 64.47 89.00 66.03 84.72 C 65.91 88.87 65.26 93.50 68.03 97.00 C 71.91 103.48 80.43 105.49 87.25 102.82 C 87.00 99.96 86.37 97.17 85.69 94.39 C 80.47 89.78 75.58 84.82 70.55 80.00 C 70.81 78.89 71.06 77.79 71.30 76.68 C 76.40 81.25 81.09 86.24 85.95 91.05 C 86.07 85.30 86.03 79.54 86.01 73.79 C 80.93 72.27 75.63 73.32 71.36 76.42 C 71.22 73.27 70.95 70.13 70.98 66.97 C 71.09 48.30 70.90 29.62 71.04 10.94 M 98.38 39.45 C 91.62 40.42 86.40 47.20 87.01 53.98 C 87.24 66.98 86.50 79.97 87.00 92.96 C 87.13 95.46 86.52 98.38 88.33 100.44 C 90.56 102.89 92.84 105.65 96.14 106.65 C 104.25 110.13 114.21 102.69 113.97 94.06 C 114.02 80.36 114.02 66.65 113.97 52.95 C 114.23 44.97 106.21 38.12 98.38 39.45 Z" />
<path fill="#7f7f7f" opacity="1.00" d=" M 24.76 42.75 C 31.69 42.78 38.38 44.87 44.88 47.08 C 52.20 49.69 59.51 53.32 64.60 59.37 C 69.44 65.18 69.71 74.22 65.54 80.46 C 64.31 82.30 62.09 82.93 60.00 83.07 C 60.03 82.23 60.10 80.56 60.13 79.72 C 60.55 80.27 61.38 81.36 61.80 81.91 C 65.71 78.11 68.35 72.66 67.00 67.12 C 65.09 58.97 57.50 54.01 50.43 50.60 C 42.67 47.00 34.33 44.86 25.93 43.40 C 25.74 45.42 25.54 47.45 25.31 49.47 C 24.59 47.30 24.62 45.01 24.76 42.75 Z" />
<path fill="#7f7f7f" opacity="1.00" d=" M 23.97 49.65 L 25.27 49.92 C 24.71 54.49 24.67 59.10 24.98 63.69 L 23.97 64.80 C 23.36 59.77 23.59 54.69 23.97 49.65 Z" />
<path fill="#7f7f7f" opacity="1.00" d=" M 41.73 56.12 C 43.75 57.48 45.78 58.83 47.74 60.28 C 47.06 60.30 45.70 60.34 45.01 60.37 C 43.90 58.97 42.81 57.55 41.73 56.12 Z" />
<path fill="#7f7f7f" opacity="1.00" d=" M 25.12 64.36 C 26.55 69.95 29.94 75.08 35.09 77.87 C 41.06 81.88 48.90 81.87 54.53 86.42 C 57.63 88.92 56.94 93.21 56.35 96.65 C 55.58 93.51 55.98 89.34 52.87 87.37 C 45.92 82.64 36.43 82.88 30.34 76.66 C 27.30 73.43 23.49 69.11 25.12 64.36 Z" />
<path fill="#7f7f7f" opacity="1.00" d=" M 58.47 85.23 C 60.94 85.00 61.39 89.46 59.58 90.71 C 59.22 88.88 58.82 87.06 58.47 85.23 Z" />
<path fill="#7f7f7f" opacity="1.00" d=" M 54.65 97.89 C 55.05 97.72 55.86 97.40 56.26 97.24 C 55.89 97.60 55.16 98.34 54.79 98.71 L 54.65 97.89 Z" />
<path fill="#7f7f7f" opacity="1.00" d=" M 57.39 102.47 C 59.16 100.98 59.27 98.45 59.71 96.34 C 60.65 98.57 60.77 101.18 59.39 103.25 C 58.56 105.11 56.15 104.14 54.63 104.34 C 54.71 102.75 54.85 101.17 55.04 99.59 C 55.65 100.70 55.45 103.52 57.39 102.47 Z" />
</g>
<g id="#ffffffff">
<path fill="#ffffff" opacity="1.00" d=" M 98.38 39.45 C 106.21 38.12 114.23 44.97 113.97 52.95 C 114.02 66.65 114.02 80.36 113.97 94.06 C 114.21 102.69 104.25 110.13 96.14 106.65 C 92.84 105.65 90.56 102.89 88.33 100.44 C 86.52 98.38 87.13 95.46 87.00 92.96 C 86.50 79.97 87.24 66.98 87.01 53.98 C 86.40 47.20 91.62 40.42 98.38 39.45 M 88.84 53.99 C 88.70 66.66 88.82 79.33 88.78 92.00 C 88.67 97.89 93.02 103.82 99.04 104.55 C 105.66 105.60 112.11 99.60 111.98 93.00 C 112.05 87.01 111.98 81.02 111.96 75.03 C 105.51 74.98 99.06 75.03 92.62 75.00 C 92.81 66.67 92.25 58.30 92.89 49.99 C 93.07 45.99 97.16 44.74 99.35 42.09 C 93.81 43.31 88.99 48.14 88.84 53.99 Z" />
</g>
<g id="#af0c6cff">
<path fill="#af0c6c" opacity="1.00" d=" M 88.84 53.99 C 88.99 48.14 93.81 43.31 99.35 42.09 C 97.16 44.74 93.07 45.99 92.89 49.99 C 92.25 58.30 92.81 66.67 92.62 75.00 C 99.06 75.03 105.51 74.98 111.96 75.03 C 111.98 81.02 112.05 87.01 111.98 93.00 C 112.11 99.60 105.66 105.60 99.04 104.55 C 93.02 103.82 88.67 97.89 88.78 92.00 C 88.82 79.33 88.70 66.66 88.84 53.99 Z" />
</g>
<g id="#1bf31bff">
<path fill="#1bf31b" opacity="1.00" d=" M 25.93 43.40 C 34.33 44.86 42.67 47.00 50.43 50.60 C 57.50 54.01 65.09 58.97 67.00 67.12 C 68.35 72.66 65.71 78.11 61.80 81.91 C 61.38 81.36 60.55 80.27 60.13 79.72 C 59.22 77.74 58.32 75.76 57.48 73.76 C 57.23 73.31 56.73 72.42 56.48 71.97 C 53.71 67.99 51.63 63.34 47.74 60.28 C 45.78 58.83 43.75 57.48 41.73 56.12 C 42.81 57.55 43.90 58.97 45.01 60.37 C 51.10 67.64 56.58 75.77 58.47 85.23 C 58.82 87.06 59.22 88.88 59.58 90.71 C 59.74 92.58 59.79 94.46 59.71 96.34 C 59.27 98.45 59.16 100.98 57.39 102.47 C 55.45 103.52 55.65 100.70 55.04 99.59 L 54.79 98.71 C 55.16 98.34 55.89 97.60 56.26 97.24 L 56.35 96.65 C 56.94 93.21 57.63 88.92 54.53 86.42 C 48.90 81.87 41.06 81.88 35.09 77.87 C 29.94 75.08 26.55 69.95 25.12 64.36 L 24.98 63.69 C 24.67 59.10 24.71 54.49 25.27 49.92 L 25.31 49.47 C 25.54 47.45 25.74 45.42 25.93 43.40 Z" />
</g>
<g id="#f0f2b0ff">
<path fill="#f0f2b0" opacity="1.00" d=" M 71.36 76.42 C 75.63 73.32 80.93 72.27 86.01 73.79 C 86.03 79.54 86.07 85.30 85.95 91.05 C 81.09 86.24 76.40 81.25 71.30 76.68 L 71.36 76.42 Z" />
<path fill="#f0f2b0" opacity="1.00" d=" M 68.41 78.57 C 69.14 79.03 69.85 79.51 70.55 80.00 C 75.58 84.82 80.47 89.78 85.69 94.39 C 86.37 97.17 87.00 99.96 87.25 102.82 C 80.43 105.49 71.91 103.48 68.03 97.00 C 65.26 93.50 65.91 88.87 66.03 84.72 C 66.71 82.63 67.60 80.61 68.41 78.57 Z" />
</g>
</svg>
