<?xml version="1.0" encoding="UTF-8" ?>
<!DOCTYPE svg PUBLIC "-//W3C//DTD SVG 1.1//EN" "http://www.w3.org/Graphics/SVG/1.1/DTD/svg11.dtd">
<svg width="142pt" height="142pt" viewBox="0 0 142 142" version="1.1" xmlns="http://www.w3.org/2000/svg">
<g id="#000000ff">
<path fill="#000000" opacity="1.00" d=" M 26.00 26.98 C 36.57 16.43 51.07 9.87 66.00 9.12 C 80.26 8.25 94.77 12.58 106.20 21.16 C 120.16 31.35 129.34 47.73 130.89 64.94 C 133.25 88.03 121.24 112.23 100.68 123.30 L 100.42 123.41 L 100.19 123.58 C 92.41 128.51 83.22 130.92 74.11 131.79 C 53.73 133.48 32.77 124.14 20.55 107.71 C 11.71 96.21 7.23 81.47 8.12 66.99 C 8.88 52.05 15.43 37.54 26.00 26.98 M 64.53 16.76 C 53.25 17.59 42.46 22.65 34.09 30.17 C 22.38 40.62 15.85 56.43 16.18 72.03 C 17.06 85.36 22.43 98.57 32.02 107.99 C 42.38 118.55 57.36 124.10 72.03 123.82 C 85.62 122.97 99.01 117.31 108.43 107.36 C 118.59 97.36 123.64 83.03 123.91 68.96 C 123.19 60.56 121.56 52.08 117.39 44.66 C 107.48 25.91 85.54 14.16 64.53 16.76 Z" />
</g>
<g id="#ed008cff">
<path fill="#ed008c" opacity="1.00" d=" M 64.53 16.76 C 85.54 14.16 107.48 25.91 117.39 44.66 C 121.56 52.08 123.19 60.56 123.91 68.96 C 123.64 83.03 118.59 97.36 108.43 107.36 C 99.01 117.31 85.62 122.97 72.03 123.82 C 57.36 124.10 42.38 118.55 32.02 107.99 C 22.43 98.57 17.06 85.36 16.18 72.03 C 15.85 56.43 22.38 40.62 34.09 30.17 C 42.46 22.65 53.25 17.59 64.53 16.76 M 46.75 34.27 C 54.41 43.10 62.93 51.15 70.89 59.72 C 78.84 51.58 87.13 43.80 95.13 35.73 C 81.30 25.28 61.25 24.88 46.75 34.27 M 35.18 94.54 C 41.03 89.28 46.49 83.63 52.06 78.08 C 54.62 75.49 57.56 73.25 59.75 70.31 C 51.48 62.10 43.60 53.50 35.53 45.09 C 24.83 59.27 24.81 80.17 35.18 94.54 M 81.83 70.90 C 89.34 78.95 97.13 86.75 104.69 94.75 C 114.62 80.98 115.23 61.32 105.89 47.10 C 97.57 54.72 89.80 62.92 81.83 70.90 M 70.45 81.88 C 62.59 89.86 54.58 97.67 46.75 105.68 C 60.53 114.71 79.38 114.74 93.15 105.68 C 85.67 97.67 78.10 89.73 70.45 81.88 Z" />
</g>
<g id="#898a8cff">
<path fill="#898a8c" opacity="1.00" d=" M 46.75 34.27 C 61.25 24.88 81.30 25.28 95.13 35.73 C 87.13 43.80 78.84 51.58 70.89 59.72 C 62.93 51.15 54.41 43.10 46.75 34.27 Z" />
<path fill="#898a8c" opacity="1.00" d=" M 35.18 94.54 C 24.81 80.17 24.83 59.27 35.53 45.09 C 43.60 53.50 51.48 62.10 59.75 70.31 C 57.56 73.25 54.62 75.49 52.06 78.08 C 46.49 83.63 41.03 89.28 35.18 94.54 Z" />
<path fill="#898a8c" opacity="1.00" d=" M 81.83 70.90 C 89.80 62.92 97.57 54.72 105.89 47.10 C 115.23 61.32 114.62 80.98 104.69 94.75 C 97.13 86.75 89.34 78.95 81.83 70.90 Z" />
<path fill="#898a8c" opacity="1.00" d=" M 70.45 81.88 C 78.10 89.73 85.67 97.67 93.15 105.68 C 79.38 114.74 60.53 114.71 46.75 105.68 C 54.58 97.67 62.59 89.86 70.45 81.88 Z" />
<path fill="#898a8c" opacity="1.00" d=" M 100.42 123.41 L 100.68 123.30 C 100.56 123.37 100.31 123.51 100.19 123.58 L 100.42 123.41 Z" />
</g>
</svg>
