<?xml version="1.0" encoding="UTF-8"?>
<!DOCTYPE svg PUBLIC "-//W3C//DTD SVG 1.1//EN" "http://www.w3.org/Graphics/SVG/1.1/DTD/svg11.dtd">
<!-- Creator: CorelDRAW 2017 -->
<svg xmlns="http://www.w3.org/2000/svg" xml:space="preserve" width="336px" height="336px" version="1.1" style="shape-rendering:geometricPrecision; text-rendering:geometricPrecision; image-rendering:optimizeQuality; fill-rule:evenodd; clip-rule:evenodd"
viewBox="0 0 16.44 16.44"
 xmlns:xlink="http://www.w3.org/1999/xlink">
 <defs>
  <style type="text/css">
   <![CDATA[
    .str3 {stroke:red;stroke-width:0.45;stroke-miterlimit:2.61313}
    .str4 {stroke:red;stroke-width:0.45;stroke-miterlimit:2.61313}
    .str1 {stroke:#4D4D4D;stroke-width:0.56;stroke-miterlimit:2.61313}
    .str2 {stroke:#4D4D4D;stroke-width:0.17;stroke-miterlimit:10}
    .str0 {stroke:#666666;stroke-width:0.44;stroke-miterlimit:2.61313}
    .fil1 {fill:none}
    .fil3 {fill:#4D4D4D;fill-rule:nonzero}
    .fil0 {fill:url(#id0)}
    .fil2 {fill:url(#id1);fill-rule:nonzero}
   ]]>
  </style>
  <linearGradient id="id0" gradientUnits="userSpaceOnUse" x1="8.22" y1="0.16" x2="8.22" y2="16.04">
   <stop offset="0" style="stop-opacity:1; stop-color:#CCCACB"/>
   <stop offset="1" style="stop-opacity:1; stop-color:white"/>
  </linearGradient>
  <linearGradient id="id1" gradientUnits="userSpaceOnUse" x1="8.43" y1="15.98" x2="8.01" y2="0.45">
   <stop offset="0" style="stop-opacity:1; stop-color:#A2A1A6"/>
   <stop offset="1" style="stop-opacity:1; stop-color:white"/>
  </linearGradient>
 </defs>
 <g id="Layer_x0020_1">
  <metadata id="CorelCorpID_0Corel-Layer"/>
  <g id="_964769648">
   <circle class="fil0" cx="8.22" cy="8.1" r="7.94"/>
   <circle class="fil1 str0" cx="8.22" cy="8.22" r="8"/>
   <path class="fil2" d="M8.22 0.45c2.14,0 4.09,0.87 5.49,2.28 1.41,1.4 2.28,3.34 2.28,5.49 0,2.14 -0.87,4.09 -2.28,5.49 -1.4,1.41 -3.35,2.28 -5.49,2.28 -2.15,0 -4.09,-0.87 -5.49,-2.28 -1.41,-1.4 -2.28,-3.35 -2.28,-5.49 0,-2.15 0.87,-4.09 2.28,-5.49 1.4,-1.41 3.34,-2.28 5.49,-2.28zm5.14 2.63c-1.32,-1.32 -3.13,-2.13 -5.14,-2.13 -2.01,0 -3.83,0.81 -5.14,2.13 -1.32,1.31 -2.13,3.13 -2.13,5.14 0,2.01 0.81,3.82 2.13,5.14 1.31,1.31 3.13,2.13 5.14,2.13 2.01,0 3.82,-0.82 5.14,-2.13 1.31,-1.32 2.13,-3.13 2.13,-5.14 0,-2.01 -0.82,-3.83 -2.13,-5.14z"/>
   <circle class="fil1 str1" cx="8.22" cy="8.1" r="4.46"/>
   <path class="fil3" d="M11.43 8.15l0 -0.1c0,-0.49 -0.4,-0.89 -0.89,-0.89l-2.46 0 0 1.88 2.46 0c0.49,0 0.89,-0.4 0.89,-0.89zm-0.35 -0.12c-0.01,-0.49 -0.55,-0.59 -1.02,-0.55l-1.46 0c-0.04,0 -0.08,-0.04 -0.08,-0.09 0,-0.05 0.04,-0.09 0.08,-0.09l1.46 0c0.23,0.01 0.49,-0.03 0.75,0.08 0.26,0.09 0.45,0.36 0.46,0.63 0,0.05 -0.04,0.09 -0.09,0.09 -0.05,0 -0.09,-0.03 -0.1,-0.07z"/>
   <path class="fil3 str2" d="M7.67 8.87l-1.83 0c-0.41,0 -0.74,-0.33 -0.74,-0.74l0 -0.07c0,-0.4 0.33,-0.73 0.74,-0.73l1.83 0 0 1.54 0 0zm0.09 0.09l0 -1.73 -1.92 0c-0.46,0 -0.83,0.37 -0.83,0.83l0 0.07c0,0.46 0.37,0.83 0.83,0.83l1.92 0z"/>
   <line class="fil1 str3" x1="7.01" y1="9.3" x2="9.42" y2= "6.89" />
   <line class="fil1 str4" x1="7.01" y1="6.89" x2="9.42" y2= "9.3" />
  </g>
 </g>
</svg>
