<?xml version="1.0" encoding="UTF-8"?>
<!DOCTYPE svg PUBLIC "-//W3C//DTD SVG 1.1//EN" "http://www.w3.org/Graphics/SVG/1.1/DTD/svg11.dtd">
<!-- Creator: CorelDRAW 2017 -->
<svg xmlns="http://www.w3.org/2000/svg" xml:space="preserve" width="336px" height="336px" version="1.1" style="shape-rendering:geometricPrecision; text-rendering:geometricPrecision; image-rendering:optimizeQuality; fill-rule:evenodd; clip-rule:evenodd"
viewBox="0 0 11.78 11.78"
 xmlns:xlink="http://www.w3.org/1999/xlink">
 <defs>
  <style type="text/css">
   <![CDATA[
    .str3 {stroke:#4D4D4D;stroke-width:0.13;stroke-miterlimit:2.61313}
    .str1 {stroke:#4D4D4D;stroke-width:0.09;stroke-miterlimit:10}
    .str2 {stroke:#4D4D4D;stroke-width:0.53;stroke-miterlimit:2.61313}
    .str0 {stroke:#666666;stroke-width:0.32;stroke-miterlimit:2.61313}
    .fil1 {fill:none}
    .fil3 {fill:#4D4D4D}
    .fil4 {fill:#E6E6E6}
    .fil5 {fill:#4D4D4D;fill-rule:nonzero}
    .fil0 {fill:url(#id0)}
    .fil2 {fill:url(#id1);fill-rule:nonzero}
   ]]>
  </style>
  <linearGradient id="id0" gradientUnits="userSpaceOnUse" x1="5.89" y1="0.07" x2="5.89" y2="11.53">
   <stop offset="0" style="stop-opacity:1; stop-color:#CCCACB"/>
   <stop offset="1" style="stop-opacity:1; stop-color:white"/>
  </linearGradient>
  <linearGradient id="id1" gradientUnits="userSpaceOnUse" x1="6.04" y1="11.45" x2="5.74" y2="0.33">
   <stop offset="0" style="stop-opacity:1; stop-color:#A2A1A6"/>
   <stop offset="1" style="stop-opacity:1; stop-color:white"/>
  </linearGradient>
 </defs>
 <g id="Layer_x0020_1">
  <metadata id="CorelCorpID_0Corel-Layer"/>
  <g id="_952700128">
   <circle class="fil0" cx="5.89" cy="5.8" r="5.73"/>
   <circle class="fil1 str0" cx="5.89" cy="5.89" r="5.73"/>
   <path class="fil2" d="M5.89 0.32c1.54,0 2.93,0.63 3.94,1.63 1,1.01 1.63,2.4 1.63,3.94 0,1.54 -0.63,2.93 -1.63,3.94 -1.01,1 -2.4,1.63 -3.94,1.63 -1.54,0 -2.93,-0.63 -3.94,-1.63 -1,-1.01 -1.63,-2.4 -1.63,-3.94 0,-1.54 0.63,-2.93 1.63,-3.94 1.01,-1 2.4,-1.63 3.94,-1.63zm3.68 1.89c-0.94,-0.95 -2.24,-1.53 -3.68,-1.53 -1.44,0 -2.74,0.58 -3.68,1.53 -0.95,0.94 -1.53,2.24 -1.53,3.68 0,1.44 0.58,2.74 1.53,3.68 0.94,0.95 2.24,1.53 3.68,1.53 1.44,0 2.74,-0.58 3.68,-1.53 0.95,-0.94 1.53,-2.24 1.53,-3.68 0,-1.44 -0.58,-2.74 -1.53,-3.68z"/>
   <path class="fil3" d="M5.96 5.91c0.51,0.49 0.74,0.8 1.13,1.29 0.26,0.31 0.3,0.47 0.48,0.29 0.18,-0.18 0.05,-0.2 -0.35,-0.6 -0.08,-0.07 -0.15,-0.15 -0.22,-0.22l-0.76 -0.76c-0.03,-0.03 -0.08,-0.07 -0.1,-0.09 -0.23,-0.27 -1.13,-1.14 -1.43,-1.44 -0.08,-0.08 -0.21,-0.23 -0.29,-0.26 -0.18,0.12 -0.04,0.41 0.04,0.56 0.22,0.4 0.59,0.77 0.93,1.07 0.26,0.22 0.33,0.19 0.57,0.16z"/>
   <path class="fil3" d="M6.38 5.31c-0.38,0.36 -0.74,0.7 -1.13,1.05 -0.15,0.14 -1.08,0.95 -1.11,1.04 -0.02,0.09 0.14,0.24 0.25,0.26 0.13,-0.11 0.89,-0.95 1.04,-1.12 0.34,-0.39 0.69,-0.77 1.05,-1.14l0.02 0.01c0.08,0.03 0.13,0.1 0.3,0.04 0.12,-0.04 0.24,-0.16 0.33,-0.26 0.17,-0.17 0.4,-0.46 0.52,-0.66l-0.57 0.57c-0.07,0.06 -0.12,0.11 -0.2,0.06 0.02,-0.13 0.21,-0.28 0.3,-0.38 0.09,-0.09 0.33,-0.3 0.36,-0.39 -0.18,0.06 -0.63,0.71 -0.78,0.64 -0.11,-0.1 0.6,-0.63 0.64,-0.8 -0.13,0.11 -0.25,0.24 -0.38,0.36 -0.11,0.1 -0.27,0.31 -0.39,0.32 -0.09,-0.11 0.12,-0.26 0.26,-0.4 0.07,-0.07 0.34,-0.36 0.39,-0.39 -0.26,0.2 -1.11,0.72 -0.94,1.1 0.02,0.04 0.03,0.04 0.04,0.09z"/>
   <rect class="fil4" x="4.13" y="5.55" width="3.51" height="1.17"/>
   <path class="fil5" d="M4.24 6.16l0 -0.06c0,-0.25 0.2,-0.45 0.45,-0.45l1.27 0 0 0.96 -1.27 0c-0.25,0 -0.45,-0.2 -0.45,-0.45zm0.17 -0.07c0.01,-0.25 0.29,-0.3 0.53,-0.28l0.75 0c0.03,0 0.04,-0.02 0.04,-0.04 0,-0.03 -0.01,-0.05 -0.04,-0.05l-0.75 0c-0.12,0 -0.25,-0.02 -0.39,0.04 -0.13,0.05 -0.23,0.19 -0.23,0.33 0,0.02 0.02,0.04 0.04,0.04 0.03,0 0.05,-0.02 0.05,-0.04z"/>
   <path class="fil5 str1" d="M6.18 6.53l0.94 0c0.21,0 0.38,-0.17 0.38,-0.38l0 -0.04c0,-0.21 -0.17,-0.38 -0.38,-0.38l-0.94 0 0 0.8 0 0zm-0.05 0.05l0 -0.89 0.99 0c0.23,0 0.42,0.19 0.42,0.42l0 0.04c0,0.23 -0.19,0.43 -0.42,0.43l-0.99 0z"/>
   <circle class="fil1 str2" cx="5.89" cy="5.89" r="3.17"/>
   <circle class="fil1 str3" cx="5.89" cy="5.89" r="2.59"/>
  </g>
 </g>
</svg>
