<?xml version="1.0" encoding="UTF-8" ?>
<!DOCTYPE svg PUBLIC "-//W3C//DTD SVG 1.1//EN" "http://www.w3.org/Graphics/SVG/1.1/DTD/svg11.dtd">
<svg width="142pt" height="142pt" viewBox="0 0 142 142" version="1.1" xmlns="http://www.w3.org/2000/svg">
<g id="#939598ff">
<path fill="#939598" opacity="1.00" d=" M 28.51 28.46 C 39.64 17.32 55.27 10.82 71.04 10.95 C 71.02 17.05 71.01 23.15 70.85 29.25 C 62.33 25.55 52.32 25.88 44.07 30.17 C 44.06 30.68 44.03 31.70 44.01 32.20 C 42.85 33.08 41.68 33.95 40.51 34.83 C 40.33 40.19 39.94 45.76 42.21 50.80 C 41.69 51.36 41.19 51.94 40.71 52.54 C 34.63 58.53 35.58 67.52 35.64 75.29 C 32.98 73.94 30.36 72.49 27.76 71.03 C 27.19 72.17 26.63 73.32 26.08 74.47 C 24.99 74.71 23.90 74.94 22.82 75.18 C 22.87 76.60 22.19 78.37 23.55 79.42 C 26.79 82.35 30.84 84.16 34.44 86.59 C 34.74 91.65 34.80 97.31 38.60 101.17 C 42.55 106.16 49.41 106.09 55.16 106.70 C 56.76 110.33 58.03 114.28 60.78 117.24 C 63.47 119.84 67.38 120.36 70.83 121.39 C 70.96 124.61 71.06 127.83 71.14 131.05 C 55.57 131.20 40.13 124.89 29.00 114.03 C 17.59 102.88 10.77 87.03 11.00 71.03 C 10.76 55.24 17.38 39.60 28.51 28.46 Z" />
</g>
<g id="#7f7f7fff">
<path fill="#7f7f7f" opacity="1.00" d=" M 71.04 10.95 C 87.04 10.82 102.90 17.54 114.05 29.00 C 124.86 40.10 131.26 55.51 131.00 71.05 C 131.24 86.57 124.83 101.95 114.03 113.02 C 102.90 124.44 87.10 131.16 71.14 131.05 C 71.06 127.83 70.96 124.61 70.83 121.39 C 67.38 120.36 63.47 119.84 60.78 117.24 C 58.03 114.28 56.76 110.33 55.16 106.70 C 49.41 106.09 42.55 106.16 38.60 101.17 C 34.80 97.31 34.74 91.65 34.44 86.59 C 30.84 84.16 26.79 82.35 23.55 79.42 C 22.19 78.37 22.87 76.60 22.82 75.18 C 23.90 74.94 24.99 74.71 26.08 74.47 C 29.90 76.46 33.68 78.54 37.33 80.83 C 32.54 79.92 28.58 76.80 23.78 75.91 C 25.30 81.59 32.05 82.41 36.24 85.49 C 36.42 90.95 36.24 97.36 40.77 101.27 C 45.13 105.26 51.45 103.81 56.64 105.43 C 58.63 109.34 59.24 114.40 63.36 116.84 C 68.60 119.93 75.36 120.73 81.10 118.59 C 83.36 118.14 83.93 116.25 83.74 114.17 C 84.79 113.81 85.82 113.41 86.85 113.02 C 86.84 112.40 86.82 111.15 86.80 110.53 C 80.18 107.77 73.38 104.86 68.19 99.73 C 68.72 99.99 69.77 100.51 70.30 100.77 C 75.42 103.57 80.94 106.40 86.98 105.65 C 93.38 104.89 100.30 102.77 104.44 97.52 L 101.95 97.62 C 106.77 94.34 111.58 90.43 113.64 84.77 C 116.85 77.06 113.78 68.34 108.90 62.07 C 105.72 57.73 100.65 55.39 95.64 53.85 C 100.37 50.76 105.68 47.88 108.21 42.54 C 109.77 40.32 111.41 38.15 113.06 36.00 C 113.02 35.28 112.94 33.85 112.90 33.13 C 108.58 30.76 102.89 27.63 98.36 31.28 C 94.27 35.21 91.53 40.32 87.61 44.42 C 87.06 44.50 85.96 44.65 85.41 44.72 C 85.45 43.74 85.50 42.77 85.54 41.79 C 87.25 41.25 89.52 41.18 89.73 38.91 C 89.09 37.47 87.72 36.42 86.11 37.13 C 83.24 37.78 81.55 40.43 79.69 42.47 C 77.83 44.55 76.72 47.13 76.32 49.88 C 74.91 49.31 73.51 48.72 72.10 48.14 C 72.02 47.29 71.87 45.59 71.79 44.75 C 72.30 44.49 73.33 43.97 73.84 43.71 C 73.73 39.27 73.74 34.83 73.78 30.39 C 72.81 30.00 71.83 29.62 70.85 29.25 C 71.01 23.15 71.02 17.05 71.04 10.95 Z" />
<path fill="#7f7f7f" opacity="1.00" d=" M 98.92 38.45 C 100.20 38.69 101.48 38.93 102.76 39.17 C 101.78 40.41 100.80 41.66 99.77 42.87 C 98.11 44.36 95.78 44.52 93.74 45.08 C 95.43 42.88 97.11 40.68 98.70 38.41 L 98.92 38.45 Z" />
</g>
<g id="#ffffffff">
<path fill="#ffffff" opacity="1.00" d=" M 44.07 30.17 C 52.32 25.88 62.33 25.55 70.85 29.25 C 71.83 29.62 72.81 30.00 73.78 30.39 C 73.74 34.83 73.73 39.27 73.84 43.71 C 73.33 43.97 72.30 44.49 71.79 44.75 C 70.49 45.30 69.13 45.71 67.77 46.06 C 61.96 47.32 55.96 47.16 50.15 46.04 C 48.79 45.73 47.44 45.37 46.13 44.88 C 45.39 44.39 44.65 43.90 43.92 43.40 C 43.93 39.67 43.90 35.93 44.01 32.20 C 44.03 31.70 44.06 30.68 44.07 30.17 M 49.70 32.20 C 55.33 35.02 61.92 34.44 67.78 32.70 C 66.37 31.04 64.23 30.47 62.16 30.18 C 57.93 29.71 53.33 29.63 49.70 32.20 M 48.05 34.81 C 48.16 37.10 47.63 39.54 48.45 41.73 C 55.06 44.59 62.87 44.47 69.51 41.66 C 69.45 39.39 69.42 37.11 69.38 34.83 C 66.58 35.42 63.80 36.11 60.95 36.48 C 56.57 37.08 52.33 35.50 48.05 34.81 Z" />
<path fill="#ffffff" opacity="1.00" d=" M 88.35 54.79 C 90.77 54.39 93.19 54.00 95.64 53.85 C 100.65 55.39 105.72 57.73 108.90 62.07 C 113.78 68.34 116.85 77.06 113.64 84.77 C 111.58 90.43 106.77 94.34 101.95 97.62 C 97.83 99.37 93.54 100.98 89.00 101.02 C 82.85 101.40 76.74 98.86 72.22 94.78 C 66.37 88.55 62.83 79.43 65.09 70.93 C 65.94 66.86 68.73 63.54 71.62 60.71 C 72.73 60.02 73.85 59.35 75.00 58.75 C 75.83 58.55 77.47 58.16 78.30 57.96 C 80.24 57.94 82.19 58.02 84.13 58.09 C 84.79 59.36 85.48 60.62 86.19 61.86 C 79.96 60.74 72.95 62.74 69.66 68.47 C 67.05 75.09 68.10 82.56 71.74 88.58 C 74.61 91.33 77.12 94.74 81.02 96.08 C 91.93 100.01 105.83 94.43 110.20 83.49 C 113.05 75.12 108.87 66.25 102.61 60.65 C 98.71 58.34 94.23 57.43 89.75 58.31 C 89.27 57.14 88.82 55.96 88.35 54.79 Z" />
<path fill="#ffffff" opacity="1.00" d=" M 95.57 62.08 C 96.06 62.21 97.02 62.47 97.51 62.60 C 98.51 65.27 98.84 68.07 97.52 70.71 C 96.91 71.30 96.30 71.90 95.69 72.50 C 92.62 74.21 89.24 73.98 86.07 72.68 C 85.27 71.23 84.02 69.86 84.47 68.02 C 85.86 69.13 87.22 70.30 88.54 71.50 C 90.43 71.44 92.33 71.33 94.22 71.25 L 95.22 71.27 C 95.66 69.41 96.11 67.53 96.16 65.60 L 95.05 64.91 C 95.18 64.20 95.44 62.79 95.57 62.08 Z" />
<path fill="#ffffff" opacity="1.00" d=" M 26.08 74.47 C 26.63 73.32 27.19 72.17 27.76 71.03 C 30.36 72.49 32.98 73.94 35.64 75.29 C 36.85 75.91 38.07 76.51 39.28 77.11 C 40.67 77.80 42.03 78.52 43.38 79.26 C 44.23 79.73 45.07 80.21 45.90 80.71 C 46.49 81.09 47.68 81.85 48.27 82.22 C 54.15 86.00 61.94 88.54 64.24 95.91 L 64.46 96.33 C 65.63 97.54 66.90 98.65 68.19 99.73 C 73.38 104.86 80.18 107.77 86.80 110.53 C 86.82 111.15 86.84 112.40 86.85 113.02 C 85.82 113.41 84.79 113.81 83.74 114.17 C 78.13 115.38 71.65 116.43 66.43 113.39 C 62.11 110.77 60.68 105.61 59.69 100.98 C 59.61 99.70 59.60 98.42 59.65 97.13 C 59.68 96.59 59.74 95.49 59.78 94.94 C 59.56 94.76 59.14 94.40 58.93 94.22 C 57.73 93.22 56.56 92.20 55.30 91.29 C 53.09 89.64 50.76 88.15 48.27 86.95 C 47.67 86.64 46.45 86.02 45.84 85.72 C 44.96 85.26 44.09 84.79 43.23 84.32 C 41.87 83.57 40.55 82.75 39.23 81.95 C 38.76 81.67 37.81 81.11 37.33 80.83 C 33.68 78.54 29.90 76.46 26.08 74.47 M 64.26 102.60 C 64.81 106.46 66.92 110.35 71.06 111.19 C 73.36 111.17 75.65 111.24 77.95 111.29 C 75.55 110.02 73.18 108.68 70.83 107.32 C 69.32 105.04 66.47 104.08 64.26 102.60 Z" />
<path fill="#ffffff" opacity="1.00" d=" M 72.08 80.29 C 72.65 80.34 73.79 80.43 74.36 80.48 C 74.77 82.16 75.23 83.82 75.64 85.51 C 76.92 86.78 78.19 88.06 79.43 89.37 C 82.34 90.76 85.50 91.48 88.56 92.49 C 88.84 92.93 89.40 93.80 89.68 94.23 C 84.44 93.79 77.95 92.46 75.05 87.62 C 73.53 85.42 72.56 82.92 72.08 80.29 Z" />
</g>
<g id="#5a5a5aff">
<path fill="#5a5a5a" opacity="1.00" d=" M 49.70 32.20 C 53.33 29.63 57.93 29.71 62.16 30.18 C 64.23 30.47 66.37 31.04 67.78 32.70 C 61.92 34.44 55.33 35.02 49.70 32.20 Z" />
<path fill="#5a5a5a" opacity="1.00" d=" M 40.51 34.83 C 41.68 33.95 42.85 33.08 44.01 32.20 C 43.90 35.93 43.93 39.67 43.92 43.40 C 44.65 43.90 45.39 44.39 46.13 44.88 C 46.09 45.70 46.02 47.35 45.98 48.17 C 44.71 49.03 43.45 49.89 42.21 50.80 C 39.94 45.76 40.33 40.19 40.51 34.83 Z" />
<path fill="#5a5a5a" opacity="1.00" d=" M 101.76 34.61 C 103.54 34.10 105.43 34.47 107.26 34.43 C 105.57 37.78 103.58 41.64 99.77 42.87 C 100.80 41.66 101.78 40.41 102.76 39.17 C 101.48 38.93 100.20 38.69 98.92 38.45 C 99.71 37.08 100.35 35.48 101.76 34.61 Z" />
<path fill="#5a5a5a" opacity="1.00" d=" M 48.05 34.81 C 52.33 35.50 56.57 37.08 60.95 36.48 C 63.80 36.11 66.58 35.42 69.38 34.83 C 69.42 37.11 69.45 39.39 69.51 41.66 C 62.87 44.47 55.06 44.59 48.45 41.73 C 47.63 39.54 48.16 37.10 48.05 34.81 Z" />
<path fill="#5a5a5a" opacity="1.00" d=" M 76.32 49.88 C 76.72 47.13 77.83 44.55 79.69 42.47 C 80.06 47.93 81.29 53.36 84.13 58.09 C 82.19 58.02 80.24 57.94 78.30 57.96 C 78.13 55.17 77.75 52.34 76.32 49.88 Z" />
<path fill="#5a5a5a" opacity="1.00" d=" M 100.05 48.06 C 102.90 46.43 105.57 44.50 108.21 42.54 C 105.68 47.88 100.37 50.76 95.64 53.85 C 93.19 54.00 90.77 54.39 88.35 54.79 C 87.87 53.55 87.39 52.32 86.90 51.09 C 91.36 50.55 96.08 50.39 100.05 48.06 Z" />
<path fill="#5a5a5a" opacity="1.00" d=" M 50.15 46.04 C 55.96 47.16 61.96 47.32 67.77 46.06 C 67.96 48.60 67.96 51.54 70.91 52.32 C 70.94 55.13 71.18 57.93 71.62 60.71 C 68.73 63.54 65.94 66.86 65.09 70.93 C 62.83 79.43 66.37 88.55 72.22 94.78 C 76.74 98.86 82.85 101.40 89.00 101.02 C 93.54 100.98 97.83 99.37 101.95 97.62 L 104.44 97.52 C 100.30 102.77 93.38 104.89 86.98 105.65 C 80.94 106.40 75.42 103.57 70.30 100.77 C 71.36 99.16 72.15 97.40 72.59 95.52 C 69.88 95.75 67.17 96.04 64.46 96.33 L 64.24 95.91 C 61.94 88.54 54.15 86.00 48.27 82.22 C 48.39 77.86 48.51 73.49 48.22 69.13 C 44.09 71.36 46.29 76.93 45.90 80.71 C 45.07 80.21 44.23 79.73 43.38 79.26 C 43.42 73.15 43.38 67.04 43.35 60.93 C 43.42 58.35 43.33 55.32 45.37 53.41 C 46.69 52.44 48.21 51.82 49.67 51.10 C 49.84 49.41 49.99 47.73 50.15 46.04 M 52.86 49.93 C 52.81 50.48 52.72 51.58 52.67 52.14 C 55.38 55.16 60.00 55.47 63.39 53.44 C 65.04 52.95 65.34 51.43 64.89 49.94 C 62.64 50.83 60.42 52.26 57.90 52.01 C 56.10 51.64 54.52 50.67 52.86 49.93 Z" />
<path fill="#5a5a5a" opacity="1.00" d=" M 35.64 75.29 C 35.58 67.52 34.63 58.53 40.71 52.54 C 38.26 60.51 39.49 68.93 39.28 77.11 C 38.07 76.51 36.85 75.91 35.64 75.29 Z" />
<path fill="#5a5a5a" opacity="1.00" d=" M 23.78 75.91 C 28.58 76.80 32.54 79.92 37.33 80.83 C 37.81 81.11 38.76 81.67 39.23 81.95 C 39.17 87.12 38.97 93.15 42.91 97.11 C 47.52 101.00 53.97 101.02 59.69 100.98 C 60.68 105.61 62.11 110.77 66.43 113.39 C 71.65 116.43 78.13 115.38 83.74 114.17 C 83.93 116.25 83.36 118.14 81.10 118.59 C 75.36 120.73 68.60 119.93 63.36 116.84 C 59.24 114.40 58.63 109.34 56.64 105.43 C 51.45 103.81 45.13 105.26 40.77 101.27 C 36.24 97.36 36.42 90.95 36.24 85.49 C 32.05 82.41 25.30 81.59 23.78 75.91 Z" />
<path fill="#5a5a5a" opacity="1.00" d=" M 43.23 84.32 C 44.09 84.79 44.96 85.26 45.84 85.72 C 45.88 87.74 45.92 89.77 45.97 91.79 C 50.12 93.34 54.48 94.27 58.93 94.22 C 59.14 94.40 59.56 94.76 59.78 94.94 C 59.74 95.49 59.68 96.59 59.65 97.13 C 54.99 96.84 49.60 97.43 45.81 94.14 C 43.01 91.70 43.46 87.65 43.23 84.32 Z" />
<path fill="#5a5a5a" opacity="1.00" d=" M 48.27 86.95 C 50.76 88.15 53.09 89.64 55.30 91.29 C 53.03 90.85 50.74 90.47 48.45 90.12 C 48.41 89.33 48.32 87.74 48.27 86.95 Z" />
<path fill="#5a5a5a" opacity="1.00" d=" M 64.26 102.60 C 66.47 104.08 69.32 105.04 70.83 107.32 C 70.93 108.61 71.00 109.90 71.06 111.19 C 66.92 110.35 64.81 106.46 64.26 102.60 Z" />
</g>
<g id="#5d3605ff">
<path fill="#5d3605" opacity="1.00" d=" M 98.36 31.28 C 102.89 27.63 108.58 30.76 112.90 33.13 C 112.94 33.85 113.02 35.28 113.06 36.00 C 111.41 38.15 109.77 40.32 108.21 42.54 C 105.57 44.50 102.90 46.43 100.05 48.06 C 96.08 50.39 91.36 50.55 86.90 51.09 C 87.39 52.32 87.87 53.55 88.35 54.79 C 88.82 55.96 89.27 57.14 89.75 58.31 C 90.71 61.07 92.23 63.72 95.05 64.91 L 96.16 65.60 C 96.11 67.53 95.66 69.41 95.22 71.27 L 94.22 71.25 C 93.72 71.15 92.73 70.94 92.23 70.84 C 89.93 68.05 87.98 64.99 86.19 61.86 C 85.48 60.62 84.79 59.36 84.13 58.09 C 81.29 53.36 80.06 47.93 79.69 42.47 C 81.55 40.43 83.24 37.78 86.11 37.13 C 87.72 36.42 89.09 37.47 89.73 38.91 C 89.52 41.18 87.25 41.25 85.54 41.79 C 85.50 42.77 85.45 43.74 85.41 44.72 C 85.96 44.65 87.06 44.50 87.61 44.42 C 91.53 40.32 94.27 35.21 98.36 31.28 M 101.76 34.61 C 100.35 35.48 99.71 37.08 98.92 38.45 L 98.70 38.41 C 97.11 40.68 95.43 42.88 93.74 45.08 C 95.78 44.52 98.11 44.36 99.77 42.87 C 103.58 41.64 105.57 37.78 107.26 34.43 C 105.43 34.47 103.54 34.10 101.76 34.61 Z" />
</g>
<g id="#ed008cff">
<path fill="#ed008c" opacity="1.00" d=" M 46.13 44.88 C 47.44 45.37 48.79 45.73 50.15 46.04 C 49.99 47.73 49.84 49.41 49.67 51.10 C 48.21 51.82 46.69 52.44 45.37 53.41 C 43.33 55.32 43.42 58.35 43.35 60.93 C 43.38 67.04 43.42 73.15 43.38 79.26 C 42.03 78.52 40.67 77.80 39.28 77.11 C 39.49 68.93 38.26 60.51 40.71 52.54 C 41.19 51.94 41.69 51.36 42.21 50.80 C 43.45 49.89 44.71 49.03 45.98 48.17 C 46.02 47.35 46.09 45.70 46.13 44.88 Z" />
<path fill="#ed008c" opacity="1.00" d=" M 67.77 46.06 C 69.13 45.71 70.49 45.30 71.79 44.75 C 71.87 45.59 72.02 47.29 72.10 48.14 C 73.51 48.72 74.91 49.31 76.32 49.88 C 77.75 52.34 78.13 55.17 78.30 57.96 C 77.47 58.16 75.83 58.55 75.00 58.75 C 74.26 56.27 73.79 53.20 70.91 52.32 C 67.96 51.54 67.96 48.60 67.77 46.06 Z" />
<path fill="#ed008c" opacity="1.00" d=" M 52.86 49.93 C 54.52 50.67 56.10 51.64 57.90 52.01 C 60.42 52.26 62.64 50.83 64.89 49.94 C 65.34 51.43 65.04 52.95 63.39 53.44 C 60.00 55.47 55.38 55.16 52.67 52.14 C 52.72 51.58 52.81 50.48 52.86 49.93 Z" />
<path fill="#ed008c" opacity="1.00" d=" M 45.90 80.71 C 46.29 76.93 44.09 71.36 48.22 69.13 C 48.51 73.49 48.39 77.86 48.27 82.22 C 47.68 81.85 46.49 81.09 45.90 80.71 Z" />
<path fill="#ed008c" opacity="1.00" d=" M 39.23 81.95 C 40.55 82.75 41.87 83.57 43.23 84.32 C 43.46 87.65 43.01 91.70 45.81 94.14 C 49.60 97.43 54.99 96.84 59.65 97.13 C 59.60 98.42 59.61 99.70 59.69 100.98 C 53.97 101.02 47.52 101.00 42.91 97.11 C 38.97 93.15 39.17 87.12 39.23 81.95 Z" />
<path fill="#ed008c" opacity="1.00" d=" M 45.84 85.72 C 46.45 86.02 47.67 86.64 48.27 86.95 C 48.32 87.74 48.41 89.33 48.45 90.12 C 50.74 90.47 53.03 90.85 55.30 91.29 C 56.56 92.20 57.73 93.22 58.93 94.22 C 54.48 94.27 50.12 93.34 45.97 91.79 C 45.92 89.77 45.88 87.74 45.84 85.72 Z" />
<path fill="#ed008c" opacity="1.00" d=" M 64.46 96.33 C 67.17 96.04 69.88 95.75 72.59 95.52 C 72.15 97.40 71.36 99.16 70.30 100.77 C 69.77 100.51 68.72 99.99 68.19 99.73 C 66.90 98.65 65.63 97.54 64.46 96.33 Z" />
</g>
<g id="#221e1fff">
<path fill="#221e1f" opacity="1.00" d=" M 70.91 52.32 C 73.79 53.20 74.26 56.27 75.00 58.75 C 73.85 59.35 72.73 60.02 71.62 60.71 C 71.18 57.93 70.94 55.13 70.91 52.32 Z" />
<path fill="#221e1f" opacity="1.00" d=" M 70.83 107.32 C 73.18 108.68 75.55 110.02 77.95 111.29 C 75.65 111.24 73.36 111.17 71.06 111.19 C 71.00 109.90 70.93 108.61 70.83 107.32 Z" />
</g>
<g id="#ff0000ff">
<path fill="#ff0000" opacity="1.00" d=" M 89.75 58.31 C 94.23 57.43 98.71 58.34 102.61 60.65 C 108.87 66.25 113.05 75.12 110.20 83.49 C 105.83 94.43 91.93 100.01 81.02 96.08 C 77.12 94.74 74.61 91.33 71.74 88.58 C 68.10 82.56 67.05 75.09 69.66 68.47 C 72.95 62.74 79.96 60.74 86.19 61.86 C 87.98 64.99 89.93 68.05 92.23 70.84 C 92.73 70.94 93.72 71.15 94.22 71.25 C 92.33 71.33 90.43 71.44 88.54 71.50 C 87.22 70.30 85.86 69.13 84.47 68.02 C 84.02 69.86 85.27 71.23 86.07 72.68 C 89.24 73.98 92.62 74.21 95.69 72.50 C 96.30 71.90 96.91 71.30 97.52 70.71 C 98.84 68.07 98.51 65.27 97.51 62.60 C 97.02 62.47 96.06 62.21 95.57 62.08 C 95.44 62.79 95.18 64.20 95.05 64.91 C 92.23 63.72 90.71 61.07 89.75 58.31 M 72.08 80.29 C 72.56 82.92 73.53 85.42 75.05 87.62 C 77.95 92.46 84.44 93.79 89.68 94.23 C 89.40 93.80 88.84 92.93 88.56 92.49 C 85.50 91.48 82.34 90.76 79.43 89.37 C 78.19 88.06 76.92 86.78 75.64 85.51 C 75.23 83.82 74.77 82.16 74.36 80.48 C 73.79 80.43 72.65 80.34 72.08 80.29 Z" />
</g>
</svg>
