<?xml version="1.0" encoding="UTF-8"?>
<!DOCTYPE svg PUBLIC "-//W3C//DTD SVG 1.1//EN" "http://www.w3.org/Graphics/SVG/1.1/DTD/svg11.dtd">
<!-- Creator: CorelDRAW 2017 -->
<svg xmlns="http://www.w3.org/2000/svg" xml:space="preserve" width="115px" height="236px" version="1.1" style="shape-rendering:geometricPrecision; text-rendering:geometricPrecision; image-rendering:optimizeQuality; fill-rule:evenodd; clip-rule:evenodd"
viewBox="0 0 0.89 1.82"
 xmlns:xlink="http://www.w3.org/1999/xlink">
 <defs>
  <style type="text/css">
   <![CDATA[
    .fil0 {fill:black}
   ]]>
  </style>
 </defs>
 <g id="Layer_x0020_1">
  <metadata id="CorelCorpID_0Corel-Layer"/>
  <g id="_831733664">
   <path class="fil0" d="M0.01 0.8c-0.02,0.06 -0.01,0.11 0.02,0.13 0.05,0.03 0.1,-0.01 0.1,-0.06 0.01,-0.06 0.02,-0.14 0.04,-0.19 0.01,-0.01 0,0 0.01,-0.01 0,0.01 0,0.04 0,0.06l-0.03 0.26c0,0 0,0 0,0l0 0.03c-0.02,0.11 -0.04,0.22 -0.06,0.33l-0.02 0.17c0,0.02 -0.01,0.03 0,0.05l0.13 0 0.01 0.17c0,0.04 0.03,0.08 0.08,0.08 0.05,0 0.08,-0.04 0.08,-0.09l0.01 -0.13c0,-0.04 0,-0.03 0.06,-0.03 0,0.04 0,0.17 0.01,0.19 0.03,0.09 0.16,0.07 0.16,-0.03l0 -0.1c0,-0.08 -0.01,-0.06 0.09,-0.06 0.07,0 0.05,-0.01 0.04,-0.06 0,-0.03 0,-0.04 -0.01,-0.06 -0.01,-0.04 -0.01,-0.07 -0.02,-0.11 -0.01,-0.1 -0.08,-0.5 -0.09,-0.58 0,-0.02 0,-0.02 0,-0.03 0,-0.01 0,-0.04 0,-0.06l0.01 0c0,0.02 0.01,0.03 0.01,0.05 0.01,0.02 0.01,0.04 0.02,0.06 0,0.02 0,0.04 0.01,0.07 0,0.01 0,0.03 0,0.04 0,0.01 0.01,0.02 0.01,0.02 0,0.01 -0.02,0.04 -0.02,0.06 0,0.04 0.05,0.04 0.05,0.01 0.01,-0.02 0.01,-0.02 0.02,-0.04 0.02,0 0.04,-0.01 0.06,-0.02 0,0 0,0 0,0l0.02 0.01c0.02,0.02 0.02,0.03 0.02,0.07l0 0.72c0,0.04 -0.01,0.1 0.03,0.1 0.02,0 0.03,-0.02 0.03,-0.04l0 -0.8c0,-0.05 -0.02,-0.08 -0.05,-0.1 -0.04,-0.04 -0.01,0.03 -0.04,-0.11 -0.02,-0.07 -0.03,-0.15 -0.07,-0.22 -0.1,-0.19 -0.39,-0.26 -0.56,-0.12 -0.08,0.06 -0.1,0.12 -0.13,0.22 -0.01,0.04 -0.02,0.08 -0.03,0.11l0 0.01c0,0.01 0,0.02 0,0.03z"/>
   <path class="fil0" d="M0.13 0.42c0.11,-0.1 0.35,-0.14 0.52,0.01 -0.02,-0.06 -0.04,-0.23 -0.08,-0.33 -0.07,-0.14 -0.25,-0.13 -0.32,0.02 -0.05,0.1 -0.12,0.28 -0.12,0.3z"/>
  </g>
 </g>
</svg>
