<?xml version="1.0" encoding="UTF-8"?>
<!DOCTYPE svg PUBLIC "-//W3C//DTD SVG 1.1//EN" "http://www.w3.org/Graphics/SVG/1.1/DTD/svg11.dtd">
<!-- Creator: CorelDRAW 2017 -->
<svg xmlns="http://www.w3.org/2000/svg" xml:space="preserve" width="336px" height="336px" version="1.1" style="shape-rendering:geometricPrecision; text-rendering:geometricPrecision; image-rendering:optimizeQuality; fill-rule:evenodd; clip-rule:evenodd"
viewBox="0 0 10.44 10.44"
 xmlns:xlink="http://www.w3.org/1999/xlink">
 <defs>
  <style type="text/css">
   <![CDATA[
    .str0 {stroke:#666666;stroke-width:0.28;stroke-miterlimit:2.61313}
    .fil1 {fill:none}
    .fil3 {fill:#4D4D4D}
    .fil0 {fill:url(#id0)}
    .fil2 {fill:url(#id1);fill-rule:nonzero}
   ]]>
  </style>
  <linearGradient id="id0" gradientUnits="userSpaceOnUse" x1="5.22" y1="0.21" x2="5.22" y2="10.07">
   <stop offset="0" style="stop-opacity:1; stop-color:#CCCACB"/>
   <stop offset="1" style="stop-opacity:1; stop-color:white"/>
  </linearGradient>
  <linearGradient id="id1" gradientUnits="userSpaceOnUse" x1="5.35" y1="10.15" x2="5.08" y2="0.29">
   <stop offset="0" style="stop-opacity:1; stop-color:#A2A1A6"/>
   <stop offset="1" style="stop-opacity:1; stop-color:white"/>
  </linearGradient>
 </defs>
 <g id="Layer_x0020_1">
  <metadata id="CorelCorpID_0Corel-Layer"/>
  <g id="_964819088">
   <circle class="fil0" cx="5.22" cy="5.14" r="4.93"/>
   <circle class="fil1 str0" cx="5.22" cy="5.22" r="5.08"/>
   <path class="fil2" d="M5.22 0.29c1.36,0 2.59,0.55 3.49,1.44 0.89,0.89 1.44,2.13 1.44,3.49 0,1.36 -0.55,2.59 -1.44,3.49 -0.9,0.89 -2.13,1.44 -3.49,1.44 -1.36,0 -2.6,-0.55 -3.49,-1.44 -0.89,-0.9 -1.44,-2.13 -1.44,-3.49 0,-1.36 0.55,-2.6 1.44,-3.49 0.89,-0.89 2.13,-1.44 3.49,-1.44zm3.26 1.66c-0.83,-0.83 -1.99,-1.35 -3.26,-1.35 -1.28,0 -2.43,0.52 -3.27,1.35 -0.83,0.84 -1.35,1.99 -1.35,3.27 0,1.27 0.52,2.43 1.35,3.26 0.84,0.84 1.99,1.35 3.27,1.35 1.27,0 2.43,-0.51 3.26,-1.35 0.84,-0.83 1.35,-1.99 1.35,-3.26 0,-1.28 -0.51,-2.43 -1.35,-3.27z"/>
   <path class="fil3" d="M3.46 4.8c-0.05,0.23 -0.04,0.41 0.08,0.51 0.22,0.11 0.41,-0.03 0.43,-0.27 0.01,-0.21 0.08,-0.53 0.15,-0.73 0.02,-0.07 -0.01,-0.03 0.03,-0.07 0,0.07 0.01,0.18 0,0.25l-0.11 1.05c0,0 0,0 0,0.01l-0.02 0.1c-0.08,0.44 -0.13,0.9 -0.21,1.35l-0.1 0.67c-0.02,0.1 -0.03,0.14 0.01,0.21l0.52 0 0.02 0.67c0.03,0.19 0.14,0.33 0.35,0.33 0.2,0 0.32,-0.16 0.32,-0.36l0.01 -0.51c0,-0.18 0.03,-0.13 0.25,-0.13 0.01,0.18 0,0.66 0.04,0.78 0.11,0.34 0.64,0.28 0.64,-0.14l0.02 -0.41c0,-0.3 -0.05,-0.23 0.37,-0.23 0.27,0 0.18,-0.06 0.15,-0.26 -0.01,-0.09 -0.02,-0.15 -0.03,-0.23 -0.03,-0.16 -0.05,-0.28 -0.08,-0.43 -0.07,-0.4 -0.35,-2.01 -0.36,-2.34 0,-0.07 0,-0.07 -0.01,-0.12 -0.01,-0.06 0,-0.18 0,-0.26l0.03 0c0.01,0.09 0.04,0.15 0.06,0.23 0.02,0.07 0.04,0.16 0.05,0.24 0.02,0.09 0.03,0.16 0.04,0.25 0.02,0.07 0.01,0.13 0.03,0.2 0,0.01 0.02,0.06 0.02,0.06 0,0.04 -0.08,0.16 -0.08,0.26 0,0.14 0.2,0.16 0.22,0.02 0.02,-0.07 0.01,-0.09 0.05,-0.17 0.12,0 0.17,-0.03 0.26,-0.08 0.01,0 0.01,0 0.01,0l0.06 0.04c0.1,0.08 0.09,0.15 0.09,0.28l0 2.92c0,0.16 -0.04,0.38 0.12,0.38 0.09,0 0.12,-0.06 0.12,-0.14l0 -3.22c0,-0.2 -0.08,-0.31 -0.2,-0.4 -0.18,-0.16 -0.05,0.12 -0.16,-0.43 -0.07,-0.32 -0.14,-0.64 -0.29,-0.93 -0.4,-0.75 -1.54,-1.01 -2.26,-0.47 -0.33,0.25 -0.4,0.51 -0.5,0.9 -0.04,0.14 -0.09,0.31 -0.11,0.46l-0.01 0.02c-0.01,0.05 -0.02,0.09 -0.02,0.14z"/>
   <path class="fil3" d="M3.97 3.24c0.44,-0.4 1.37,-0.54 2.07,0.03 -0.06,-0.21 -0.16,-0.91 -0.34,-1.3 -0.26,-0.57 -0.98,-0.55 -1.27,0.06 -0.2,0.42 -0.49,1.16 -0.46,1.21z"/>
  </g>
 </g>
</svg>
