<?xml version="1.0" encoding="UTF-8"?>
<!DOCTYPE svg PUBLIC "-//W3C//DTD SVG 1.1//EN" "http://www.w3.org/Graphics/SVG/1.1/DTD/svg11.dtd">
<!-- Creator: CorelDRAW 2017 -->
<svg xmlns="http://www.w3.org/2000/svg" xml:space="preserve" width="141px" height="214px" version="1.1" style="shape-rendering:geometricPrecision; text-rendering:geometricPrecision; image-rendering:optimizeQuality; fill-rule:evenodd; clip-rule:evenodd"
viewBox="0 0 2.59 3.92"
 xmlns:xlink="http://www.w3.org/1999/xlink">
 <defs>
  <style type="text/css">
   <![CDATA[
    .fil1 {fill:black}
    .fil0 {fill:black;fill-rule:nonzero}
   ]]>
  </style>
 </defs>
 <g id="Layer_x0020_1">
  <metadata id="CorelCorpID_0Corel-Layer"/>
  <g id="_831725376">
   <path class="fil0" d="M2.08 0.62c0,0.43 -0.59,0.46 -0.59,0.03 0,-0.18 0.18,-0.23 0.24,-0.62 0.03,-0.17 0.35,0.41 0.35,0.59z"/>
   <g>
    <path class="fil0" d="M2.21 2.03l-0.83 0 0 -0.21 0.83 0 0 0 0 0.21zm0.38 0.17l-0.21 0 0 0 0 -0.01 0 0 0 -0.01 0 -0.01 -0.01 -0.01 0 -0.01 0 0 0 -0.01 -0.01 -0.01 0 -0.01 -0.01 0 0 -0.01 0 -0.01 -0.01 0 -0.01 -0.01 0 -0.01 -0.01 0 0 -0.01 -0.01 0 -0.01 -0.01 0 0 -0.01 -0.01 -0.01 0 -0.01 0 0 -0.01 -0.01 0 -0.01 0 -0.01 0 -0.01 0 0 -0.01 -0.01 0 -0.01 0 0 -0.21 0.02 0 0.02 0 0.02 0.01 0.02 0 0.01 0 0.02 0.01 0.02 0 0.02 0.01 0.01 0.01 0.02 0.01 0.02 0.01 0.01 0.01 0.02 0.01 0.01 0.01 0.02 0.01 0.01 0.01 0.01 0.02 0.01 0.01 0.02 0.02 0.01 0.01 0.01 0.02 0 0.01 0.01 0.02 0.01 0.01 0.01 0.02 0 0.02 0.01 0.02 0 0.02 0.01 0.02 0 0.01 0 0.02 0 0.02 0 0zm-0.21 1.33l0 -1.33 0.21 0 0 1.33 0 0 -0.21 0zm-0.17 0.39l0 -0.22 0 0 0.01 0 0.01 0 0 0 0.01 0 0.01 0 0.01 0 0.01 -0.01 0 0 0.01 0 0.01 -0.01 0.01 0 0 -0.01 0.01 0 0.01 -0.01 0 0 0.01 -0.01 0 0 0.01 -0.01 0.01 -0.01 0 0 0 -0.01 0.01 -0.01 0 0 0.01 -0.01 0 -0.01 0 -0.01 0 0 0.01 -0.01 0 -0.01 0 -0.01 0 -0.01 0 -0.01 0.21 0 0 0.02 0 0.02 0 0.02 -0.01 0.02 0 0.02 -0.01 0.02 0 0.01 -0.01 0.02 -0.01 0.02 -0.01 0.02 0 0.01 -0.01 0.02 -0.01 0.01 -0.02 0.02 -0.01 0.01 -0.01 0.01 -0.01 0.02 -0.02 0.01 -0.01 0.01 -0.02 0.01 -0.01 0.01 -0.02 0.01 -0.02 0.01 -0.01 0.01 -0.02 0 -0.02 0.01 -0.02 0 -0.01 0.01 -0.02 0 -0.02 0 -0.02 0 -0.02 0.01 0 0zm-0.85 -0.22l0.85 0 0 0.22 -0.85 0 0 0 0 -0.22zm-0.39 -0.17l0.22 0 0 0 0 0.01 0 0.01 0 0.01 0 0.01 0 0.01 0 0 0.01 0.01 0 0.01 0 0.01 0.01 0 0 0.01 0.01 0.01 0 0 0.01 0.01 0 0.01 0.01 0 0 0.01 0.01 0 0.01 0.01 0 0 0.01 0.01 0.01 0 0 0.01 0.01 0 0.01 0 0.01 0.01 0 0 0.01 0 0.01 0 0.01 0 0.01 0 0.01 0 0 0.22 -0.02 -0.01 -0.02 0 -0.02 0 -0.02 0 -0.02 -0.01 -0.02 0 -0.02 -0.01 -0.01 0 -0.02 -0.01 -0.02 -0.01 -0.01 -0.01 -0.02 -0.01 -0.01 -0.01 -0.02 -0.01 -0.01 -0.01 -0.01 -0.02 -0.02 -0.01 -0.01 -0.01 -0.01 -0.02 -0.01 -0.01 -0.01 -0.02 -0.01 -0.01 -0.01 -0.02 -0.01 -0.02 0 -0.02 -0.01 -0.01 0 -0.02 -0.01 -0.02 0 -0.02 0 -0.02 -0.01 -0.02 0 -0.02 0 0zm0.22 -1.3l0 1.3 -0.22 0 0 -1.3 0 0 0.22 0zm0.19 -0.41l0 0.21 0 0 -0.01 0 -0.01 0 -0.01 0.01 -0.01 0 -0.01 0 -0.01 0 -0.01 0.01 0 0 -0.01 0 -0.01 0.01 -0.01 0 -0.01 0.01 -0.01 0 0 0.01 -0.01 0 -0.01 0.01 0 0.01 -0.01 0 0 0.01 -0.01 0.01 -0.01 0.01 0 0.01 0 0 -0.01 0.01 0 0.01 0 0.01 -0.01 0.01 0 0.01 0 0.01 0 0.01 0 0.01 0 0.01 -0.22 0 0 -0.02 0.01 -0.02 0 -0.02 0 -0.02 0.01 -0.02 0 -0.02 0.01 -0.02 0.01 -0.02 0 -0.02 0.01 -0.02 0.01 -0.01 0.01 -0.02 0.02 -0.02 0.01 -0.01 0.01 -0.02 0.01 -0.01 0.02 -0.01 0.01 -0.02 0.02 -0.01 0.01 -0.01 0.02 -0.01 0.02 -0.01 0.01 -0.01 0.02 -0.01 0.02 0 0.02 -0.01 0.02 -0.01 0.02 0 0.02 0 0.02 -0.01 0.02 0 0.02 0 0 0z"/>
   </g>
   <g>
    <path class="fil0" d="M2.11 1.32l-0.66 0 0 -0.21 0.66 0 0 0 0 0.21zm0.22 0.01l-0.21 0 0 0 0 0 0 0 0 0 0 0 0 0 0 0 0 0 0 -0.01 0 0 0 0 0 0 0 0 0 0 0 0 0 0 0 0 0 0 0 0 0 0 0 0 0 0 0 0 0 0 0 0 0 0 0 0 0 0 0 0 0 0 0 0 0 0 -0.01 0 0 -0.21 0.02 0 0.01 0 0.01 0 0.01 0 0.01 0 0.01 0.01 0.01 0 0.01 0 0.01 0.01 0.01 0 0.01 0.01 0.01 0 0.01 0.01 0 0.01 0.01 0 0.01 0.01 0.01 0.01 0 0.01 0.01 0.01 0.01 0 0 0.01 0.01 0.01 0 0.01 0.01 0.01 0 0.01 0 0.01 0.01 0.01 0 0.01 0 0.01 0 0.01 0 0.02 0 0.01 0 0zm-0.21 0.17l0 -0.17 0.21 0 0 0.17 0 0 -0.21 0zm-0.01 0.22l0 -0.21 0 0 0.01 0 0 0 0 0 0 0 0 0 0 0 0 0 0 0 0 0 0 0 0 0 0 0 0 0 0 0 0 0 0 0 0 0 0 0 0 0 0 0 0 0 0 0 0 0 0 0 0 0 0 0 0 0 0 0 0 0 0 -0.01 0 0 0 0 0.21 0 0 0.02 0 0.01 0 0.01 0 0.01 0 0.01 -0.01 0.01 0 0.01 0 0.01 -0.01 0.01 0 0.01 -0.01 0.01 0 0.01 -0.01 0.01 -0.01 0 0 0.01 -0.01 0.01 -0.01 0.01 -0.01 0 0 0.01 -0.01 0.01 -0.01 0 -0.01 0.01 -0.01 0 -0.01 0.01 -0.01 0 -0.01 0 -0.01 0.01 -0.01 0 -0.01 0 -0.01 0 -0.01 0 -0.02 0 0 0zm-0.66 -0.21l0.66 0 0 0.21 -0.66 0 0 0 0 -0.21zm-0.22 -0.01l0.21 0 0 0 0 0 0 0 0 0.01 0 0 0 0 0 0 0 0 0 0 0 0 0 0 0 0 0 0 0 0 0 0 0 0 0 0 0 0 0 0 0 0 0 0 0.01 0 0 0 0 0 0 0 0 0 0 0 0 0 0 0 0 0 0 0 0 0 0 0 0 0.21 -0.01 0 -0.01 0 -0.01 0 -0.01 0 -0.01 0 -0.01 -0.01 -0.01 0 -0.01 0 -0.01 -0.01 -0.01 0 -0.01 -0.01 -0.01 0 -0.01 -0.01 -0.01 -0.01 -0.01 0 0 -0.01 -0.01 -0.01 -0.01 -0.01 0 0 -0.01 -0.01 -0.01 -0.01 0 -0.01 -0.01 -0.01 0 -0.01 0 -0.01 -0.01 -0.01 0 -0.01 0 -0.01 -0.01 -0.01 0 -0.01 0 -0.01 0 -0.02 0 0zm0.21 -0.17l0 0.17 -0.21 0 0 -0.17 0 0 0.21 0zm0.01 -0.22l0 0.21 0 0 0 0 0 0 0 0 0 0 0 0 0 0 0 0 0 0 0 0 0 0 0 0 -0.01 0 0 0 0 0 0 0 0 0 0 0 0 0 0 0 0 0 0 0 0 0 0 0 0 0 0 0.01 0 0 0 0 0 0 0 0 0 0 0 0 0 0 -0.21 0 0 -0.01 0 -0.02 0 -0.01 0.01 -0.01 0 -0.01 0 -0.01 0.01 -0.01 0 -0.01 0 -0.01 0.01 -0.01 0 -0.01 0.01 -0.01 0.01 0 0 -0.01 0.01 -0.01 0.01 -0.01 0 -0.01 0.01 0 0.01 -0.01 0.01 -0.01 0.01 0 0.01 -0.01 0.01 0 0.01 -0.01 0.01 0 0.01 0 0.01 -0.01 0.01 0 0.01 0 0.01 0 0.01 0 0.01 0 0 0z"/>
   </g>
   <g>
    <polygon class="fil0" points="2.49,2.58 1.78,2.58 1.78,2.5 2.49,2.5 "/>
   </g>
   <g>
    <polygon class="fil0" points="2.49,2.91 1.78,2.91 1.78,2.83 2.49,2.83 "/>
   </g>
   <g>
    <polygon class="fil0" points="2.49,3.24 1.78,3.24 1.78,3.16 2.49,3.16 "/>
   </g>
   <path class="fil1" d="M0.4 3.39c0.02,0 0.05,-0.01 0.07,-0.03l0.05 -0.06 0 0.5c0,0.07 -0.05,0.12 -0.12,0.12 -0.07,0 -0.13,-0.05 -0.13,-0.12l0 -0.5 0.06 0.06c0.02,0.02 0.04,0.03 0.07,0.03z"/>
   <path class="fil1" d="M0.06 1.12l0 1.83c0,0.03 0.02,0.07 0.04,0.09l0.27 0.27c0.01,0.01 0.02,0.01 0.03,0.01 0.01,0 0.01,0 0.02,-0.01l0.27 -0.27c0.02,-0.02 0.04,-0.06 0.04,-0.09l0 -1.83c0,-0.18 -0.15,-0.33 -0.33,-0.33 -0.19,0 -0.34,0.15 -0.34,0.33zm0.34 -0.4c0.22,0 0.39,0.18 0.39,0.4l0 1.83c0,0.05 -0.02,0.1 -0.05,0.14l-0.27 0.27c-0.02,0.02 -0.05,0.03 -0.07,0.03 -0.03,0 -0.05,-0.01 -0.07,-0.03l-0.28 -0.27c-0.03,-0.04 -0.05,-0.09 -0.05,-0.14l0 -1.83c0,-0.22 0.18,-0.4 0.4,-0.4z"/>
   <path class="fil1" d="M0.4 1.22c0.14,0 0.25,0.12 0.25,0.26l0 0.08 -0.13 0c-0.03,0 -0.06,0.02 -0.06,0.05 0,0.03 0.03,0.05 0.06,0.05l0.13 0 0 0.29 -0.13 0c-0.03,0 -0.06,0.02 -0.06,0.05 0,0.03 0.03,0.05 0.06,0.05l0.13 0 0 0.29 -0.13 0c-0.02,0 -0.03,0 -0.04,0.01 -0.01,0.01 -0.02,0.02 -0.02,0.04 0,0.03 0.03,0.05 0.06,0.05l0.13 0 0 0.29 -0.13 0c-0.02,0 -0.03,0 -0.04,0.01 -0.01,0.01 -0.02,0.02 -0.02,0.04 0,0.02 0.03,0.05 0.06,0.05l0.13 0 0 0.06c0,0.02 -0.01,0.05 -0.02,0.06l-0.22 0.21c0,0.01 -0.01,0.01 -0.01,0.01 -0.01,0 -0.02,0 -0.02,-0.01l-0.21 -0.21c-0.02,-0.01 -0.03,-0.04 -0.03,-0.06l0 -1.41c0,-0.14 0.12,-0.26 0.26,-0.26z"/>
  </g>
 </g>
</svg>
