<?xml version="1.0" encoding="UTF-8" ?>
<!DOCTYPE svg PUBLIC "-//W3C//DTD SVG 1.1//EN" "http://www.w3.org/Graphics/SVG/1.1/DTD/svg11.dtd">
<svg width="142pt" height="142pt" viewBox="0 0 142 142" version="1.1" xmlns="http://www.w3.org/2000/svg">
<g id="#939598ff">
<path fill="#939598" opacity="1.00" d=" M 27.96 29.01 C 39.14 17.54 55.04 10.80 71.08 10.96 C 70.83 19.17 71.24 27.39 70.84 35.59 C 69.41 36.26 67.97 36.93 66.52 37.55 C 65.59 37.65 64.65 37.75 63.72 37.86 C 63.20 37.91 62.16 38.00 61.64 38.05 C 60.78 42.79 64.94 46.34 64.65 50.97 C 64.69 55.83 65.42 61.47 61.30 65.00 C 61.09 61.60 61.52 58.22 62.17 54.89 C 63.01 52.21 61.01 48.44 57.95 48.70 C 50.56 48.52 43.14 48.54 35.75 48.92 C 35.80 49.31 35.89 50.09 35.94 50.49 C 36.01 51.00 36.17 52.02 36.24 52.53 C 36.90 55.98 37.81 59.43 37.76 62.97 C 37.66 73.65 37.78 84.34 37.66 95.02 C 37.35 99.46 39.79 104.05 43.66 106.23 C 52.65 107.26 61.79 105.75 70.78 107.09 C 71.10 115.07 70.95 123.05 71.08 131.04 C 55.04 131.21 39.14 124.46 27.97 113.00 C 17.17 101.90 10.76 86.51 11.00 70.98 C 10.77 55.46 17.18 40.10 27.96 29.01 Z" />
</g>
<g id="#7f7f7fff">
<path fill="#7f7f7f" opacity="1.00" d=" M 71.08 10.96 C 87.30 10.81 103.36 17.76 114.52 29.49 C 125.04 40.54 131.26 55.72 131.00 71.02 C 131.22 84.71 126.25 98.30 117.67 108.92 C 106.53 122.80 88.89 131.21 71.08 131.04 C 70.95 123.05 71.10 115.07 70.78 107.09 C 79.17 107.78 87.60 107.24 96.01 107.44 C 99.45 107.33 103.41 107.60 106.24 105.29 C 108.68 102.74 107.77 98.66 106.06 95.97 C 100.54 86.87 95.11 77.71 89.58 68.62 C 84.07 60.95 84.81 50.48 88.26 42.11 C 87.98 41.66 87.42 40.76 87.14 40.30 C 86.63 39.52 86.11 38.73 85.60 37.95 C 79.27 37.14 72.88 37.62 66.52 37.55 C 67.97 36.93 69.41 36.26 70.84 35.59 C 71.24 27.39 70.83 19.17 71.08 10.96 Z" />
<path fill="#7f7f7f" opacity="1.00" d=" M 61.64 38.05 C 62.16 38.00 63.20 37.91 63.72 37.86 C 63.37 39.10 63.09 40.35 62.80 41.61 C 64.05 42.15 65.29 42.68 66.54 43.22 C 66.39 48.78 66.80 54.35 66.38 59.90 C 65.13 63.71 62.40 66.86 60.35 70.29 C 57.09 65.25 58.66 59.08 60.44 53.81 C 60.23 53.38 59.81 52.53 59.60 52.10 C 59.44 51.57 59.11 50.53 58.95 50.01 C 51.28 50.26 43.55 49.39 35.94 50.49 C 35.89 50.09 35.80 49.31 35.75 48.92 C 43.14 48.54 50.56 48.52 57.95 48.70 C 61.01 48.44 63.01 52.21 62.17 54.89 C 61.52 58.22 61.09 61.60 61.30 65.00 C 65.42 61.47 64.69 55.83 64.65 50.97 C 64.94 46.34 60.78 42.79 61.64 38.05 Z" />
<path fill="#7f7f7f" opacity="1.00" d=" M 46.18 77.87 C 46.66 78.03 47.60 78.36 48.07 78.52 C 47.65 78.56 46.81 78.64 46.39 78.68 L 46.18 77.87 Z" />
<path fill="#7f7f7f" opacity="1.00" d=" M 52.55 98.62 C 52.58 98.57 52.65 98.48 52.68 98.44 C 52.65 98.48 52.58 98.57 52.55 98.62 Z" />
</g>
<g id="#ffffffff">
<path fill="#ffffff" opacity="1.00" d=" M 63.72 37.86 C 64.65 37.75 65.59 37.65 66.52 37.55 C 72.88 37.62 79.27 37.14 85.60 37.95 C 86.11 38.73 86.63 39.52 87.14 40.30 C 85.99 41.39 84.82 42.46 83.64 43.51 C 83.81 49.61 83.10 55.80 83.99 61.84 C 90.83 73.92 98.28 85.68 105.32 97.67 C 106.65 99.29 105.51 101.22 104.88 102.86 C 102.65 103.52 100.36 104.09 98.02 103.99 C 81.00 104.00 63.99 104.01 46.98 103.99 C 42.21 104.36 38.39 99.53 38.76 94.98 C 38.73 81.28 38.72 67.57 38.79 53.87 C 37.93 53.43 37.08 52.99 36.24 52.53 C 36.17 52.02 36.01 51.00 35.94 50.49 C 43.55 49.39 51.28 50.26 58.95 50.01 C 59.11 50.53 59.44 51.57 59.60 52.10 C 58.98 52.59 57.75 53.57 57.13 54.06 C 56.78 61.03 57.06 68.03 57.05 75.01 C 58.18 73.46 59.29 71.89 60.35 70.29 C 62.40 66.86 65.13 63.71 66.38 59.90 C 66.80 54.35 66.39 48.78 66.54 43.22 C 65.29 42.68 64.05 42.15 62.80 41.61 C 63.09 40.35 63.37 39.10 63.72 37.86 M 70.08 43.32 C 69.33 49.31 70.51 55.51 69.54 61.44 C 65.56 68.21 61.35 74.85 57.05 81.42 C 56.41 87.96 58.65 95.26 54.97 101.16 C 60.24 101.18 65.51 100.81 70.78 101.04 C 77.53 101.28 84.28 100.79 91.03 100.96 C 95.09 100.77 99.24 101.20 103.22 100.20 C 102.40 98.67 101.58 97.13 100.72 95.62 C 99.69 93.94 98.68 92.26 97.66 90.58 C 95.59 86.90 93.16 83.43 91.19 79.69 C 90.04 78.12 89.06 76.42 88.19 74.68 C 87.04 73.11 86.07 71.42 85.19 69.68 C 84.05 68.12 83.08 66.45 82.20 64.73 C 81.51 63.53 80.30 62.47 80.36 60.98 C 80.35 54.83 80.22 48.66 80.48 42.51 C 77.30 42.70 74.10 42.76 70.92 42.52 L 70.08 43.32 M 42.15 53.26 C 41.92 67.53 42.03 81.81 42.08 96.09 C 42.47 101.08 50.03 103.29 52.55 98.62 C 52.58 98.57 52.65 98.48 52.68 98.44 C 53.59 97.49 54.01 96.36 53.92 95.06 C 54.00 81.15 53.81 67.25 53.68 53.34 C 49.84 53.18 45.99 53.23 42.15 53.26 Z" />
<path fill="#ffffff" opacity="1.00" d=" M 46.04 69.92 C 47.67 69.96 49.30 69.98 50.93 69.98 C 51.42 71.24 51.93 72.54 51.85 73.92 C 51.87 81.57 51.80 89.21 51.87 96.85 C 51.27 97.56 50.69 98.27 50.10 98.99 C 48.41 98.80 46.46 99.09 45.12 97.80 C 43.92 95.27 44.92 92.41 44.84 89.75 C 46.21 89.83 47.59 89.90 48.96 89.98 C 48.92 88.76 48.87 87.55 48.81 86.34 C 47.52 86.27 46.23 86.21 44.94 86.15 C 44.91 84.76 44.94 83.37 45.04 81.99 C 46.30 81.16 47.89 81.53 49.30 81.34 C 48.99 80.64 48.38 79.23 48.07 78.52 C 47.60 78.36 46.66 78.03 46.18 77.87 L 45.18 78.22 C 44.16 75.42 43.99 72.32 46.04 69.92 Z" />
<path fill="#ffffff" opacity="1.00" d=" M 67.15 73.58 C 72.44 73.67 77.73 73.85 83.02 73.78 C 88.06 81.69 92.43 90.03 97.74 97.76 C 88.85 97.59 79.95 97.58 71.06 97.76 C 67.36 97.92 63.67 97.89 59.97 97.87 C 59.98 94.57 59.91 91.27 59.96 87.98 C 59.59 82.91 64.04 79.49 65.95 75.19 C 66.25 74.79 66.85 73.98 67.15 73.58 Z" />
</g>
<g id="#525253d2">
<path fill="#525253" opacity="0.82" d=" M 83.64 43.51 C 84.82 42.46 85.99 41.39 87.14 40.30 C 87.42 40.76 87.98 41.66 88.26 42.11 C 84.81 50.48 84.07 60.95 89.58 68.62 C 95.11 77.71 100.54 86.87 106.06 95.97 C 107.77 98.66 108.68 102.74 106.24 105.29 C 103.41 107.60 99.45 107.33 96.01 107.44 C 87.60 107.24 79.17 107.78 70.78 107.09 C 61.79 105.75 52.65 107.26 43.66 106.23 C 39.79 104.05 37.35 99.46 37.66 95.02 C 37.78 84.34 37.66 73.65 37.76 62.97 C 37.81 59.43 36.90 55.98 36.24 52.53 C 37.08 52.99 37.93 53.43 38.79 53.87 C 38.72 67.57 38.73 81.28 38.76 94.98 C 38.39 99.53 42.21 104.36 46.98 103.99 C 63.99 104.01 81.00 104.00 98.02 103.99 C 100.36 104.09 102.65 103.52 104.88 102.86 C 105.51 101.22 106.65 99.29 105.32 97.67 C 98.28 85.68 90.83 73.92 83.99 61.84 C 83.10 55.80 83.81 49.61 83.64 43.51 Z" />
<path fill="#525253" opacity="0.82" d=" M 57.13 54.06 C 57.75 53.57 58.98 52.59 59.60 52.10 C 59.81 52.53 60.23 53.38 60.44 53.81 C 58.66 59.08 57.09 65.25 60.35 70.29 C 59.29 71.89 58.18 73.46 57.05 75.01 C 57.06 68.03 56.78 61.03 57.13 54.06 Z" />
</g>
<g id="#ff0000ff">
<path fill="#ff0000" opacity="1.00" d=" M 70.08 43.32 L 70.92 42.52 C 71.08 52.58 70.99 62.64 70.99 72.70 C 69.62 72.96 68.26 73.22 66.91 73.54 C 66.67 73.95 66.19 74.78 65.95 75.19 C 64.04 79.49 59.59 82.91 59.96 87.98 C 59.91 91.27 59.98 94.57 59.97 97.87 C 63.67 97.89 67.36 97.92 71.06 97.76 C 70.99 98.58 70.85 100.22 70.78 101.04 C 65.51 100.81 60.24 101.18 54.97 101.16 C 58.65 95.26 56.41 87.96 57.05 81.42 C 61.35 74.85 65.56 68.21 69.54 61.44 C 70.51 55.51 69.33 49.31 70.08 43.32 Z" />
</g>
<g id="#aa0808ff">
<path fill="#aa0808" opacity="1.00" d=" M 70.92 42.52 C 74.10 42.76 77.30 42.70 80.48 42.51 C 80.22 48.66 80.35 54.83 80.36 60.98 C 80.30 62.47 81.51 63.53 82.20 64.73 C 83.08 66.45 84.05 68.12 85.19 69.68 C 86.07 71.42 87.04 73.11 88.19 74.68 C 89.06 76.42 90.04 78.12 91.19 79.69 C 93.16 83.43 95.59 86.90 97.66 90.58 C 98.68 92.26 99.69 93.94 100.72 95.62 C 101.58 97.13 102.40 98.67 103.22 100.20 C 99.24 101.20 95.09 100.77 91.03 100.96 C 84.28 100.79 77.53 101.28 70.78 101.04 C 70.85 100.22 70.99 98.58 71.06 97.76 C 79.95 97.58 88.85 97.59 97.74 97.76 C 92.43 90.03 88.06 81.69 83.02 73.78 C 77.73 73.85 72.44 73.67 67.15 73.58 C 66.85 73.98 66.25 74.79 65.95 75.19 C 66.19 74.78 66.67 73.95 66.91 73.54 C 68.26 73.22 69.62 72.96 70.99 72.70 C 70.99 62.64 71.08 52.58 70.92 42.52 Z" />
</g>
<g id="#0036ffff">
<path fill="#0036ff" opacity="1.00" d=" M 42.15 53.26 C 45.99 53.23 49.84 53.18 53.68 53.34 C 53.81 67.25 54.00 81.15 53.92 95.06 C 54.01 96.36 53.59 97.49 52.68 98.44 C 52.65 98.48 52.58 98.57 52.55 98.62 C 50.03 103.29 42.47 101.08 42.08 96.09 C 42.03 81.81 41.92 67.53 42.15 53.26 M 46.04 69.92 C 43.99 72.32 44.16 75.42 45.18 78.22 L 46.18 77.87 L 46.39 78.68 C 46.81 78.64 47.65 78.56 48.07 78.52 C 48.38 79.23 48.99 80.64 49.30 81.34 C 47.89 81.53 46.30 81.16 45.04 81.99 C 44.94 83.37 44.91 84.76 44.94 86.15 C 46.23 86.21 47.52 86.27 48.81 86.34 C 48.87 87.55 48.92 88.76 48.96 89.98 C 47.59 89.90 46.21 89.83 44.84 89.75 C 44.92 92.41 43.92 95.27 45.12 97.80 C 46.46 99.09 48.41 98.80 50.10 98.99 C 50.69 98.27 51.27 97.56 51.87 96.85 C 51.80 89.21 51.87 81.57 51.85 73.92 C 51.93 72.54 51.42 71.24 50.93 69.98 C 49.30 69.98 47.67 69.96 46.04 69.92 Z" />
</g>
</svg>
