<?xml version="1.0" encoding="UTF-8"?>
<!DOCTYPE svg PUBLIC "-//W3C//DTD SVG 1.1//EN" "http://www.w3.org/Graphics/SVG/1.1/DTD/svg11.dtd">
<!-- Creator: CorelDRAW 2017 -->
<svg xmlns="http://www.w3.org/2000/svg" xml:space="preserve" width="336px" height="336px" version="1.1" style="shape-rendering:geometricPrecision; text-rendering:geometricPrecision; image-rendering:optimizeQuality; fill-rule:evenodd; clip-rule:evenodd"
viewBox="0 0 13.27 13.27"
 xmlns:xlink="http://www.w3.org/1999/xlink">
 <defs>
  <style type="text/css">
   <![CDATA[
    .str0 {stroke:#666666;stroke-width:0.36;stroke-miterlimit:2.61313}
    .fil1 {fill:none}
    .fil4 {fill:#4D4D4D}
    .fil3 {fill:#4D4D4D;fill-rule:nonzero}
    .fil0 {fill:url(#id0)}
    .fil2 {fill:url(#id1);fill-rule:nonzero}
   ]]>
  </style>
  <linearGradient id="id0" gradientUnits="userSpaceOnUse" x1="6.63" y1="0.13" x2="6.63" y2="12.94">
   <stop offset="0" style="stop-opacity:1; stop-color:#CCCACB"/>
   <stop offset="1" style="stop-opacity:1; stop-color:white"/>
  </linearGradient>
  <linearGradient id="id1" gradientUnits="userSpaceOnUse" x1="6.8" y1="12.9" x2="6.46" y2="0.37">
   <stop offset="0" style="stop-opacity:1; stop-color:#A2A1A6"/>
   <stop offset="1" style="stop-opacity:1; stop-color:white"/>
  </linearGradient>
 </defs>
 <g id="Layer_x0020_1">
  <metadata id="CorelCorpID_0Corel-Layer"/>
  <g id="_877217104">
   <circle class="fil0" cx="6.63" cy="6.54" r="6.41"/>
   <circle class="fil1 str0" cx="6.63" cy="6.63" r="6.45"/>
   <path class="fil2" d="M6.63 0.36c1.73,0 3.3,0.71 4.44,1.84 1.13,1.13 1.83,2.7 1.83,4.43 0,1.73 -0.7,3.3 -1.83,4.44 -1.14,1.13 -2.71,1.83 -4.44,1.83 -1.73,0 -3.3,-0.7 -4.43,-1.83 -1.13,-1.14 -1.84,-2.71 -1.84,-4.44 0,-1.73 0.71,-3.3 1.84,-4.43 1.13,-1.13 2.7,-1.84 4.43,-1.84zm4.15 2.12c-1.06,-1.06 -2.53,-1.71 -4.15,-1.71 -1.62,0 -3.08,0.65 -4.15,1.71 -1.06,1.07 -1.71,2.53 -1.71,4.15 0,1.62 0.65,3.09 1.71,4.15 1.07,1.06 2.53,1.72 4.15,1.72 1.62,0 3.09,-0.66 4.15,-1.72 1.06,-1.06 1.72,-2.53 1.72,-4.15 0,-1.62 -0.66,-3.08 -1.72,-4.15z"/>
   <path class="fil3" d="M8.43 3.74c0,0.92 -1.27,0.99 -1.28,0.07 0,-0.39 0.4,-0.5 0.53,-1.33 0.06,-0.38 0.75,0.87 0.75,1.26z"/>
   <g>
    <path class="fil3" d="M8.71 6.79l-1.79 0 0 -0.46 1.79 0 0 0 0 0.46zm0.82 0.37l-0.45 0 0 0 0 -0.02 -0.01 -0.02 0 -0.02 0 -0.02 0 -0.02 -0.01 -0.01 -0.01 -0.02 0 -0.02 -0.01 -0.01 -0.01 -0.02 -0.01 -0.01 -0.01 -0.02 -0.01 -0.01 -0.01 -0.02 -0.01 -0.01 -0.01 -0.01 -0.01 -0.02 -0.02 -0.01 -0.01 -0.01 -0.02 -0.01 -0.01 -0.01 -0.02 -0.01 -0.01 0 -0.02 -0.01 -0.01 -0.01 -0.02 0 -0.02 -0.01 -0.02 0 -0.01 -0.01 -0.02 0 -0.02 0 -0.02 0 0 -0.46 0.04 0 0.04 0.01 0.05 0 0.04 0.01 0.04 0.01 0.04 0.01 0.03 0.01 0.04 0.02 0.04 0.01 0.03 0.02 0.04 0.02 0.03 0.02 0.03 0.03 0.03 0.02 0.03 0.03 0.03 0.02 0.03 0.03 0.03 0.03 0.02 0.03 0.02 0.04 0.02 0.03 0.02 0.03 0.02 0.04 0.02 0.04 0.01 0.03 0.02 0.04 0.01 0.04 0.01 0.04 0 0.04 0.01 0.04 0 0.04 0 0.05 0 0zm-0.45 2.86l0 -2.86 0.45 0 0 2.86 0 0 -0.45 0zm-0.37 0.83l0 -0.46 0 0 0.02 0 0.02 0 0.02 -0.01 0.01 0 0.02 0 0.02 -0.01 0.02 0 0.01 -0.01 0.02 -0.01 0.01 -0.01 0.02 0 0.01 -0.01 0.02 -0.01 0.01 -0.01 0.02 -0.02 0.01 -0.01 0.01 -0.01 0.01 -0.02 0.01 -0.01 0.01 -0.01 0.01 -0.02 0.01 -0.01 0.01 -0.02 0.01 -0.02 0 -0.01 0.01 -0.02 0.01 -0.02 0 -0.01 0 -0.02 0 -0.02 0.01 -0.02 0 -0.02 0.45 0 0 0.04 0 0.05 -0.01 0.04 0 0.04 -0.01 0.04 -0.01 0.04 -0.02 0.04 -0.01 0.03 -0.02 0.04 -0.02 0.03 -0.02 0.04 -0.02 0.03 -0.02 0.03 -0.02 0.04 -0.03 0.03 -0.03 0.02 -0.03 0.03 -0.03 0.03 -0.03 0.02 -0.03 0.02 -0.03 0.03 -0.04 0.02 -0.03 0.01 -0.04 0.02 -0.04 0.02 -0.03 0.01 -0.04 0.01 -0.04 0.01 -0.04 0.01 -0.05 0 -0.04 0 -0.04 0.01 0 0zm-1.84 -0.46l1.84 0 0 0.46 -1.84 0 0 0 0 -0.46zm-0.82 -0.37l0.46 0 0 0 0 0.02 0 0.02 0 0.02 0 0.02 0.01 0.01 0 0.02 0.01 0.02 0.01 0.01 0 0.02 0.01 0.02 0.01 0.01 0.01 0.02 0.01 0.01 0.01 0.01 0.01 0.02 0.01 0.01 0.02 0.01 0.01 0.01 0.01 0.02 0.02 0.01 0.01 0.01 0.02 0 0.02 0.01 0.01 0.01 0.02 0.01 0.01 0 0.02 0.01 0.02 0 0.02 0 0.02 0.01 0.01 0 0.02 0 0 0.46 -0.04 -0.01 -0.04 0 -0.04 0 -0.04 -0.01 -0.04 -0.01 -0.04 -0.01 -0.04 -0.01 -0.04 -0.02 -0.03 -0.02 -0.04 -0.01 -0.03 -0.02 -0.04 -0.03 -0.03 -0.02 -0.03 -0.02 -0.03 -0.03 -0.03 -0.03 -0.03 -0.02 -0.02 -0.03 -0.03 -0.04 -0.02 -0.03 -0.02 -0.03 -0.02 -0.04 -0.02 -0.03 -0.02 -0.04 -0.01 -0.03 -0.01 -0.04 -0.01 -0.04 -0.01 -0.04 -0.01 -0.04 -0.01 -0.04 0 -0.05 0 -0.04 0 0zm0.46 -2.81l0 2.81 -0.46 0 0 -2.81 0 0 0.46 0zm0.41 -0.88l0 0.46 0 0 -0.02 0 -0.02 0 -0.02 0 -0.02 0.01 -0.02 0 -0.02 0.01 -0.02 0 -0.02 0.01 -0.02 0.01 -0.01 0.01 -0.02 0.01 -0.02 0.01 -0.01 0.01 -0.02 0.01 -0.02 0.02 -0.01 0.01 -0.01 0.02 -0.02 0.01 -0.01 0.02 -0.01 0.01 -0.01 0.02 -0.01 0.02 -0.01 0.02 -0.01 0.02 -0.01 0.01 0 0.02 -0.01 0.02 -0.01 0.02 0 0.02 0 0.02 0 0.03 0 0.02 -0.46 0 0 -0.05 0 -0.04 0.01 -0.05 0.01 -0.04 0.01 -0.04 0.01 -0.04 0.01 -0.04 0.02 -0.04 0.02 -0.04 0.02 -0.04 0.02 -0.04 0.02 -0.03 0.02 -0.04 0.03 -0.03 0.03 -0.03 0.03 -0.03 0.03 -0.03 0.03 -0.03 0.03 -0.02 0.04 -0.03 0.03 -0.02 0.04 -0.02 0.04 -0.02 0.03 -0.02 0.04 -0.01 0.04 -0.02 0.05 -0.01 0.04 -0.01 0.04 -0.01 0.05 0 0.04 -0.01 0.04 0 0 0z"/>
   </g>
   <g>
    <path class="fil3" d="M8.51 5.25l-1.43 0 0 -0.46 1.43 0 0 0 0 0.46zm0.47 0.02l-0.45 0 0 0 0 0 0 0 0 0 0 -0.01 0 0 0 0 0 0 0 0 0 0 0 0 0 0 0 0 0 0 -0.01 0 0 0 0 0 0 0 0 0 0 -0.01 0 0 0 0 0 0 0 0 0 0 -0.01 0 0 0 0 0 0 0 0 0 0 0 0 0 0 0 0 -0.46 0.02 0 0.03 0.01 0.02 0 0.02 0 0.02 0.01 0.03 0 0.02 0.01 0.02 0.01 0.02 0.01 0.02 0.01 0.02 0.01 0.02 0.01 0.02 0.02 0.02 0.01 0.01 0.02 0.02 0.01 0.01 0.02 0.02 0.02 0.01 0.01 0.02 0.02 0.01 0.02 0.01 0.02 0.01 0.02 0.01 0.02 0.01 0.02 0.01 0.03 0 0.02 0.01 0.02 0 0.03 0.01 0.02 0 0.02 0 0.03 0 0zm-0.45 0.38l0 -0.38 0.45 0 0 0.38 0 0 -0.45 0zm-0.02 0.47l0 -0.45 0 0 0 0 0 0 0 0 0 0 0 0 0 -0.01 0 0 0.01 0 0 0 0 0 0 0 0 0 0 0 0 0 0 0 0 0 0 0 0 0 0.01 0 0 0 0 0 0 0 0 -0.01 0 0 0 0 0 0 0 0 0 0 0 0 0 0 0 0 0 0 0.45 0 0 0.02 0 0.03 -0.01 0.02 0 0.02 -0.01 0.03 0 0.02 -0.01 0.02 -0.01 0.02 -0.01 0.03 -0.01 0.02 -0.01 0.02 -0.01 0.02 -0.02 0.01 -0.01 0.02 -0.02 0.02 -0.01 0.01 -0.02 0.02 -0.01 0.02 -0.02 0.01 -0.02 0.01 -0.02 0.01 -0.02 0.02 -0.02 0.01 -0.02 0.01 -0.02 0 -0.02 0.01 -0.03 0.01 -0.02 0 -0.02 0.01 -0.02 0 -0.03 0 -0.02 0 0 0zm-1.43 -0.45l1.43 0 0 0.45 -1.43 0 0 0 0 -0.45zm-0.47 -0.02l0.45 0 0 0 0 0 0 0 0 0 0 0 0 0 0 0 0 0 0 0 0 0 0 0.01 0 0 0 0 0 0 0 0 0 0 0 0 0 0 0 0 0 0 0 0 0 0 0.01 0 0 0 0 0 0 0 0 0 0 0.01 0 0 0 0 0 0 0 0 0.01 0 0 0.45 -0.03 0 -0.02 0 -0.03 0 -0.02 -0.01 -0.02 0 -0.02 -0.01 -0.03 -0.01 -0.02 0 -0.02 -0.01 -0.02 -0.01 -0.02 -0.02 -0.02 -0.01 -0.01 -0.01 -0.02 -0.01 -0.02 -0.02 -0.02 -0.02 -0.01 -0.01 -0.02 -0.02 -0.01 -0.02 -0.01 -0.01 -0.02 -0.02 -0.01 -0.02 -0.01 -0.02 -0.01 -0.03 -0.01 -0.02 0 -0.02 -0.01 -0.02 -0.01 -0.03 0 -0.02 0 -0.02 0 -0.03 0 -0.02 0 0zm0.45 -0.38l0 0.38 -0.45 0 0 -0.38 0 0 0.45 0zm0.02 -0.48l0 0.46 0 0 -0.01 0 0 0 0 0 0 0 0 0 0 0 0 0 0 0 0 0 0 0 -0.01 0 0 0 0 0 0 0.01 0 0 0 0 0 0 0 0 0 0 0 0 0 0 0 0 0 0 0 0 0 0 0 0 0 0 0 0 0 0.01 0 0 0 0 0 0 -0.45 0 0 -0.03 0 -0.02 0 -0.02 0 -0.03 0.01 -0.02 0.01 -0.02 0 -0.03 0.01 -0.02 0.01 -0.02 0.01 -0.02 0.01 -0.02 0.02 -0.02 0.01 -0.02 0.01 -0.01 0.02 -0.02 0.01 -0.02 0.02 -0.01 0.02 -0.02 0.02 -0.01 0.01 -0.02 0.02 -0.01 0.02 -0.01 0.02 -0.01 0.02 -0.01 0.02 -0.01 0.03 -0.01 0.02 0 0.02 -0.01 0.02 0 0.03 0 0.02 -0.01 0.03 0 0 0z"/>
   </g>
   <g>
    <polygon class="fil3" points="9.32,7.97 7.79,7.97 7.79,7.79 9.32,7.79 "/>
   </g>
   <g>
    <polygon class="fil3" points="9.32,8.68 7.79,8.68 7.79,8.5 9.32,8.5 "/>
   </g>
   <g>
    <polygon class="fil3" points="9.32,9.39 7.79,9.39 7.79,9.21 9.32,9.21 "/>
   </g>
   <path class="fil4" d="M4.81 9.71c0.05,0 0.1,-0.02 0.14,-0.06l0.12 -0.12 0 1.06c0.01,0.15 -0.12,0.27 -0.26,0.27 -0.15,0 -0.27,-0.12 -0.27,-0.27l0 -1.06 0.12 0.12c0.04,0.04 0.09,0.06 0.15,0.06z"/>
   <path class="fil4" d="M4.09 4.82l0 3.95c0,0.06 0.03,0.15 0.08,0.19l0.59 0.59c0.01,0.01 0.03,0.02 0.05,0.02 0.01,0 0.03,-0.01 0.04,-0.02l0.6 -0.59c0.04,-0.04 0.07,-0.13 0.07,-0.19l0 -3.95c0,-0.39 -0.32,-0.72 -0.71,-0.72 -0.4,0 -0.72,0.33 -0.72,0.72zm0.72 -0.85c0.47,0 0.85,0.38 0.85,0.85l0 3.95c0,0.1 -0.05,0.22 -0.12,0.29l-0.59 0.59c-0.04,0.04 -0.09,0.06 -0.14,0.06 -0.06,0 -0.11,-0.02 -0.15,-0.06l-0.59 -0.59c-0.07,-0.07 -0.12,-0.19 -0.12,-0.29l0 -3.95c0,-0.47 0.38,-0.85 0.86,-0.85z"/>
   <path class="fil4" d="M4.81 5.04c0.3,0 0.55,0.25 0.55,0.55l0 0.17 -0.3 0c-0.06,0 -0.11,0.05 -0.11,0.11 0,0.06 0.05,0.11 0.11,0.11l0.3 0 0 0.62 -0.3 0c-0.06,0 -0.11,0.05 -0.11,0.11 0,0.06 0.05,0.11 0.11,0.11l0.3 0 0 0.62 -0.3 0c-0.03,0 -0.06,0.01 -0.08,0.03 -0.02,0.03 -0.03,0.05 -0.03,0.08 0,0.06 0.05,0.11 0.11,0.11l0.3 0 0 0.62 -0.3 0c-0.03,0 -0.06,0.01 -0.08,0.03 -0.02,0.03 -0.03,0.05 -0.03,0.08 0,0.06 0.05,0.11 0.11,0.11l0.3 0 0 0.13c0,0.04 -0.03,0.11 -0.06,0.14l-0.46 0.46c-0.01,0.01 -0.02,0.01 -0.03,0.01 -0.02,0 -0.03,0 -0.04,-0.01l-0.46 -0.46c-0.03,-0.03 -0.06,-0.1 -0.06,-0.14l0 -3.04c0,-0.3 0.25,-0.55 0.56,-0.55z"/>
  </g>
 </g>
</svg>
